<svg width="258" height="156" viewBox="0 0 258 156" fill="none" xmlns="http://www.w3.org/2000/svg">
<g filter="url(#filter0_d_1_1961)">
<path d="M54 78C54 64.7452 64.7452 54 78 54H180C193.255 54 204 64.7452 204 78C204 91.2548 193.255 102 180 102H78C64.7452 102 54 91.2548 54 78Z" fill="black" shape-rendering="crispEdges"/>
<path d="M54.5 78C54.5 65.0213 65.0213 54.5 78 54.5H180C192.979 54.5 203.5 65.0213 203.5 78C203.5 90.9787 192.979 101.5 180 101.5H78C65.0213 101.5 54.5 90.9787 54.5 78Z" stroke="#B4F72F" shape-rendering="crispEdges"/>
<path d="M152.678 76.1214V78.6415H151.099V80.2942H152.678V85.9097C152.678 87.8271 153.546 88.5941 155.728 88.5941C156.112 88.5941 156.477 88.5485 156.796 88.4937V86.8593C156.522 86.8867 156.349 86.9049 156.048 86.9049C155.071 86.9049 154.641 86.4484 154.641 85.4075V80.2942H156.796V78.6415H154.641V76.1214H152.678Z" fill="white"/>
<path d="M162.356 88.7311C165.259 88.7311 167.04 86.7862 167.04 83.563C167.04 80.3581 165.25 78.4041 162.356 78.4041C159.452 78.4041 157.662 80.3581 157.662 83.563C157.662 86.7862 159.443 88.7311 162.356 88.7311ZM162.356 86.9871C160.648 86.9871 159.689 85.7362 159.689 83.563C159.689 81.4082 160.648 80.1481 162.356 80.1481C164.054 80.1481 165.022 81.4082 165.022 83.563C165.022 85.727 164.054 86.9871 162.356 86.9871Z" fill="white"/>
<path d="M168.563 88.5394H170.526V82.6682C170.526 81.2712 171.576 80.3307 173.065 80.3307C173.412 80.3307 173.996 80.3946 174.16 80.4494V78.5137C173.95 78.4589 173.576 78.4315 173.284 78.4315C171.987 78.4315 170.882 79.1437 170.599 80.1207H170.453V78.5958H168.563V88.5394Z" fill="white"/>
<path d="M179.035 80.075C180.487 80.075 181.436 81.0886 181.482 82.6499H176.46C176.569 81.0977 177.583 80.075 179.035 80.075ZM181.473 85.8549C181.107 86.631 180.295 87.0602 179.108 87.0602C177.537 87.0602 176.524 85.9553 176.46 84.2113V84.1018H183.481V83.4169C183.481 80.2942 181.811 78.4041 179.044 78.4041C176.241 78.4041 174.46 80.422 174.46 83.5996C174.46 86.7771 176.204 88.7311 179.053 88.7311C181.327 88.7311 182.915 87.6354 183.363 85.8549H181.473Z" fill="white"/>
<path d="M139.804 84.8674C139.956 87.3091 141.991 88.8706 145.019 88.8706C148.256 88.8706 150.281 87.2333 150.281 84.6213C150.281 82.5677 149.126 81.432 146.325 80.779L144.82 80.4099C143.041 79.9935 142.322 79.4351 142.322 78.4603C142.322 77.23 143.439 76.4256 145.114 76.4256C146.704 76.4256 147.801 77.2111 148 78.4698H150.063C149.94 76.1701 147.915 74.5518 145.142 74.5518C142.161 74.5518 140.174 76.1701 140.174 78.6023C140.174 80.6086 141.3 81.8011 143.77 82.3784L145.53 82.8042C147.338 83.2301 148.133 83.8547 148.133 84.8958C148.133 86.1071 146.883 86.9873 145.18 86.9873C143.353 86.9873 142.085 86.1639 141.905 84.8674H139.804Z" fill="white"/>
<path d="M119.468 78.4315C118.117 78.4315 116.948 79.1072 116.346 80.2394H116.199V78.5958H114.309V91.8447H116.273V87.0328H116.428C116.948 88.0828 118.071 88.7037 119.487 88.7037C121.998 88.7037 123.595 86.7223 123.595 83.563C123.595 80.4038 121.998 78.4315 119.468 78.4315ZM118.911 86.9415C117.268 86.9415 116.236 85.6449 116.236 83.5722C116.236 81.4903 117.268 80.1937 118.92 80.1937C120.582 80.1937 121.578 81.4629 121.578 83.563C121.578 85.6723 120.582 86.9415 118.911 86.9415Z" fill="white"/>
<path d="M130.465 78.4315C129.113 78.4315 127.945 79.1072 127.342 80.2394H127.196V78.5958H125.306V91.8447H127.269V87.0328H127.424C127.945 88.0828 129.068 88.7037 130.483 88.7037C132.994 88.7037 134.592 86.7223 134.592 83.563C134.592 80.4038 132.994 78.4315 130.465 78.4315ZM129.908 86.9415C128.264 86.9415 127.232 85.6449 127.232 83.5722C127.232 81.4903 128.264 80.1937 129.917 80.1937C131.579 80.1937 132.574 81.4629 132.574 83.563C132.574 85.6723 131.579 86.9415 129.908 86.9415Z" fill="white"/>
<path d="M110.787 88.5394H113.04L108.109 74.883H105.828L100.897 88.5394H103.074L104.333 84.9147H109.538L110.787 88.5394ZM106.86 77.3625H107.021L108.999 83.1355H104.872L106.86 77.3625Z" fill="white"/>
<path d="M102.216 64.582V71.1699H104.594C106.558 71.1699 107.694 69.96 107.694 67.8554C107.694 65.7827 106.548 64.582 104.594 64.582H102.216ZM103.238 65.5133H104.48C105.845 65.5133 106.653 66.3807 106.653 67.8691C106.653 69.3802 105.859 70.2385 104.48 70.2385H103.238V65.5133Z" fill="white"/>
<path d="M111.176 71.2657C112.628 71.2657 113.518 70.2933 113.518 68.6817C113.518 67.0792 112.623 66.1022 111.176 66.1022C109.724 66.1022 108.829 67.0792 108.829 68.6817C108.829 70.2933 109.72 71.2657 111.176 71.2657ZM111.176 70.3937C110.322 70.3937 109.843 69.7683 109.843 68.6817C109.843 67.6043 110.322 66.9742 111.176 66.9742C112.025 66.9742 112.509 67.6043 112.509 68.6817C112.509 69.7637 112.025 70.3937 111.176 70.3937Z" fill="white"/>
<path d="M121.099 66.1981H120.118L119.232 69.992H119.154L118.132 66.1981H117.191L116.169 69.992H116.096L115.205 66.1981H114.21L115.58 71.1699H116.589L117.611 67.5084H117.689L118.716 71.1699H119.734L121.099 66.1981Z" fill="white"/>
<path d="M122.23 71.1699H123.211V68.2617C123.211 67.4856 123.672 67.0016 124.398 67.0016C125.124 67.0016 125.471 67.3988 125.471 68.1978V71.1699H126.453V67.9512C126.453 66.7688 125.841 66.1022 124.732 66.1022C123.983 66.1022 123.49 66.4355 123.248 66.9879H123.175V66.1981H122.23V71.1699Z" fill="white"/>
<path d="M127.999 71.1699H128.98V64.2578H127.999V71.1699Z" fill="white"/>
<path d="M132.672 71.2657C134.124 71.2657 135.014 70.2933 135.014 68.6817C135.014 67.0792 134.119 66.1022 132.672 66.1022C131.22 66.1022 130.325 67.0792 130.325 68.6817C130.325 70.2933 131.215 71.2657 132.672 71.2657ZM132.672 70.3937C131.818 70.3937 131.339 69.7683 131.339 68.6817C131.339 67.6043 131.818 66.9742 132.672 66.9742C133.521 66.9742 134.005 67.6043 134.005 68.6817C134.005 69.7637 133.521 70.3937 132.672 70.3937Z" fill="white"/>
<path d="M137.938 70.4257C137.404 70.4257 137.016 70.1655 137.016 69.7181C137.016 69.2798 137.327 69.0469 138.012 69.0013L139.226 68.9237V69.3391C139.226 69.9555 138.678 70.4257 137.938 70.4257ZM137.687 71.2521C138.34 71.2521 138.884 70.969 139.18 70.4714H139.258V71.1699H140.203V67.7732C140.203 66.7231 139.5 66.1022 138.253 66.1022C137.126 66.1022 136.322 66.6501 136.222 67.5038H137.171C137.281 67.1523 137.66 66.9514 138.208 66.9514C138.879 66.9514 139.226 67.2482 139.226 67.7732V68.2023L137.879 68.28C136.697 68.353 136.03 68.8689 136.03 69.7637C136.03 70.6722 136.729 71.2521 137.687 71.2521Z" fill="white"/>
<path d="M143.534 71.2521C144.219 71.2521 144.799 70.9279 145.095 70.3846H145.173V71.1699H146.113V64.2578H145.132V66.9879H145.059C144.789 66.4401 144.214 66.1159 143.534 66.1159C142.278 66.1159 141.47 67.1112 141.47 68.6817C141.47 70.2568 142.269 71.2521 143.534 71.2521ZM143.812 66.9971C144.634 66.9971 145.15 67.6499 145.15 68.6863C145.15 69.7272 144.639 70.3709 143.812 70.3709C142.981 70.3709 142.484 69.7363 142.484 68.6817C142.484 67.6362 142.986 66.9971 143.812 66.9971Z" fill="white"/>
<path d="M152.478 71.2657C153.93 71.2657 154.821 70.2933 154.821 68.6817C154.821 67.0792 153.926 66.1022 152.478 66.1022C151.027 66.1022 150.132 67.0792 150.132 68.6817C150.132 70.2933 151.022 71.2657 152.478 71.2657ZM152.478 70.3937C151.625 70.3937 151.145 69.7683 151.145 68.6817C151.145 67.6043 151.625 66.9742 152.478 66.9742C153.328 66.9742 153.812 67.6043 153.812 68.6817C153.812 69.7637 153.328 70.3937 152.478 70.3937Z" fill="white"/>
<path d="M156.12 71.1699H157.101V68.2617C157.101 67.4856 157.563 67.0016 158.288 67.0016C159.014 67.0016 159.361 67.3988 159.361 68.1978V71.1699H160.343V67.9512C160.343 66.7688 159.731 66.1022 158.622 66.1022C157.873 66.1022 157.38 66.4355 157.138 66.9879H157.065V66.1981H156.12V71.1699Z" fill="white"/>
<path d="M164.864 64.9609V66.2209H164.074V67.0473H164.864V69.855C164.864 70.8138 165.297 71.1973 166.388 71.1973C166.58 71.1973 166.763 71.1744 166.923 71.147V70.3298C166.786 70.3435 166.699 70.3527 166.548 70.3527C166.06 70.3527 165.845 70.1244 165.845 69.6039V67.0473H166.923V66.2209H165.845V64.9609H164.864Z" fill="white"/>
<path d="M168.24 71.1699H169.222V68.2663C169.222 67.513 169.669 67.0062 170.473 67.0062C171.167 67.0062 171.536 67.408 171.536 68.2023V71.1699H172.518V67.9604C172.518 66.7779 171.865 66.1068 170.806 66.1068C170.057 66.1068 169.532 66.4401 169.29 66.9971H169.213V64.2578H168.24V71.1699Z" fill="white"/>
<path d="M176.059 66.9377C176.785 66.9377 177.26 67.4445 177.282 68.2252H174.771C174.826 67.449 175.333 66.9377 176.059 66.9377ZM177.278 69.8276C177.095 70.2157 176.689 70.4303 176.095 70.4303C175.31 70.4303 174.803 69.8779 174.771 69.0059V68.9511H178.282V68.6087C178.282 67.0473 177.447 66.1022 176.063 66.1022C174.662 66.1022 173.772 67.1112 173.772 68.7C173.772 70.2887 174.644 71.2657 176.068 71.2657C177.205 71.2657 177.999 70.7179 178.223 69.8276H177.278Z" fill="white"/>
<path d="M90.2458 77.3312C90.2696 75.4821 91.2627 73.7324 92.838 72.7639C91.8442 71.3446 90.1796 70.4446 88.4477 70.3905C86.6006 70.1966 84.8098 71.4958 83.8685 71.4958C82.909 71.4958 81.4598 70.4097 79.8992 70.4418C77.865 70.5075 75.9687 71.6641 74.979 73.4425C72.8516 77.1257 74.4384 82.5389 76.4763 85.5162C77.4959 86.974 78.6875 88.6025 80.2467 88.5448C81.7725 88.4815 82.3423 87.5719 84.184 87.5719C86.0087 87.5719 86.5433 88.5448 88.1341 88.5081C89.7714 88.4815 90.8029 87.0437 91.7867 85.572C92.5193 84.5332 93.083 83.3851 93.457 82.1703C91.5329 81.3565 90.248 79.4202 90.2458 77.3312Z" fill="white"/>
<path d="M87.241 68.4325C88.1336 67.3608 88.5734 65.9834 88.4669 64.5928C87.1031 64.736 85.8433 65.3878 84.9386 66.4183C84.0539 67.4252 83.5935 68.7784 83.6805 70.1159C85.0448 70.1299 86.386 69.4958 87.241 68.4325Z" fill="white"/>
</g>
<defs>
<filter id="filter0_d_1_1961" x="0" y="0" width="258" height="156" filterUnits="userSpaceOnUse" color-interpolation-filters="sRGB">
<feFlood flood-opacity="0" result="BackgroundImageFix"/>
<feColorMatrix in="SourceAlpha" type="matrix" values="0 0 0 0 0 0 0 0 0 0 0 0 0 0 0 0 0 0 127 0" result="hardAlpha"/>
<feOffset/>
<feGaussianBlur stdDeviation="27"/>
<feComposite in2="hardAlpha" operator="out"/>
<feColorMatrix type="matrix" values="0 0 0 0 0.705882 0 0 0 0 0.968627 0 0 0 0 0.184314 0 0 0 0.2 0"/>
<feBlend mode="normal" in2="BackgroundImageFix" result="effect1_dropShadow_1_1961"/>
<feBlend mode="normal" in="SourceGraphic" in2="effect1_dropShadow_1_1961" result="shape"/>
</filter>
</defs>
</svg>
