<svg width="84" height="18" viewBox="0 0 84 18" fill="none" xmlns="http://www.w3.org/2000/svg">
<path d="M52.6784 2.12139V4.6415H51.0987V6.29419H52.6784V11.9097C52.6784 13.8271 53.5458 14.5941 55.7281 14.5941C56.1116 14.5941 56.4768 14.5485 56.7964 14.4937V12.8593C56.5224 12.8867 56.349 12.9049 56.0476 12.9049C55.0706 12.9049 54.6415 12.4484 54.6415 11.4075V6.29419H56.7964V4.6415H54.6415V2.12139H52.6784Z" fill="white"/>
<path d="M62.3556 14.7311C65.2592 14.7311 67.0397 12.7862 67.0397 9.56304C67.0397 6.3581 65.2501 4.4041 62.3556 4.4041C59.452 4.4041 57.6623 6.3581 57.6623 9.56304C57.6623 12.7862 59.4429 14.7311 62.3556 14.7311ZM62.3556 12.9871C60.6481 12.9871 59.6894 11.7362 59.6894 9.56304C59.6894 7.40815 60.6481 6.14809 62.3556 6.14809C64.0539 6.14809 65.0218 7.40815 65.0218 9.56304C65.0218 11.727 64.0539 12.9871 62.3556 12.9871Z" fill="white"/>
<path d="M68.5631 14.5394H70.5263V8.66821C70.5263 7.27119 71.5763 6.33071 73.0646 6.33071C73.4116 6.33071 73.996 6.39463 74.1603 6.44941V4.51367C73.9503 4.45889 73.576 4.43149 73.2838 4.43149C71.9872 4.43149 70.8824 5.1437 70.5993 6.1207H70.4532V4.59585H68.5631V14.5394Z" fill="white"/>
<path d="M79.0348 6.07505C80.4866 6.07505 81.4362 7.08857 81.4818 8.64995H76.4599C76.5694 7.0977 77.583 6.07505 79.0348 6.07505ZM81.4727 11.8549C81.1075 12.631 80.2948 13.0602 79.1078 13.0602C77.5373 13.0602 76.5238 11.9553 76.4599 10.2113V10.1018H83.4815V9.41694C83.4815 6.29419 81.8105 4.4041 79.0439 4.4041C76.2407 4.4041 74.4602 6.42202 74.4602 9.59956C74.4602 12.7771 76.2042 14.7311 79.053 14.7311C81.3266 14.7311 82.9154 13.6354 83.3628 11.8549H81.4727Z" fill="white"/>
<path d="M39.8044 10.8674C39.9558 13.3091 41.9906 14.8706 45.019 14.8706C48.2556 14.8706 50.2809 13.2333 50.2809 10.6213C50.2809 8.56765 49.1263 7.43199 46.325 6.77898L44.8203 6.40989C43.041 5.99348 42.3218 5.43511 42.3218 4.46034C42.3218 3.23003 43.4385 2.4256 45.1136 2.4256C46.7036 2.4256 47.8014 3.2111 48.0001 4.4698H50.0632C49.9402 2.17008 47.9149 0.551758 45.142 0.551758C42.1609 0.551758 40.1735 2.17008 40.1735 4.60229C40.1735 6.60863 41.2997 7.80108 43.7698 8.37838L45.53 8.80425C47.3376 9.23012 48.1326 9.85474 48.1326 10.8958C48.1326 12.1071 46.8834 12.9873 45.1799 12.9873C43.3534 12.9873 42.0852 12.1639 41.9054 10.8674H39.8044Z" fill="white"/>
<path d="M19.4683 4.43149C18.117 4.43149 16.9482 5.10718 16.3456 6.2394H16.1995V4.59585H14.3094V17.8447H16.2725V13.0328H16.4278C16.9482 14.0828 18.0713 14.7037 19.4866 14.7037C21.9976 14.7037 23.5955 12.7223 23.5955 9.56304C23.5955 6.40376 21.9976 4.43149 19.4683 4.43149ZM18.9114 12.9415C17.2678 12.9415 16.236 11.6449 16.236 9.57217C16.236 7.49033 17.2678 6.19375 18.9205 6.19375C20.5823 6.19375 21.5776 7.46294 21.5776 9.56304C21.5776 11.6723 20.5823 12.9415 18.9114 12.9415Z" fill="white"/>
<path d="M30.4648 4.43149C29.1134 4.43149 27.9447 5.10718 27.3421 6.2394H27.196V4.59585H25.3059V17.8447H27.269V13.0328H27.4242C27.9447 14.0828 29.0678 14.7037 30.4831 14.7037C32.9941 14.7037 34.592 12.7223 34.592 9.56304C34.592 6.40376 32.9941 4.43149 30.4648 4.43149ZM29.9078 12.9415C28.2643 12.9415 27.2325 11.6449 27.2325 9.57217C27.2325 7.49033 28.2643 6.19375 29.917 6.19375C31.5788 6.19375 32.574 7.46294 32.574 9.56304C32.574 11.6723 31.5788 12.9415 29.9078 12.9415Z" fill="white"/>
<path d="M10.7872 14.5394H13.0396L8.10893 0.882993H5.82814L0.897461 14.5394H3.07415L4.33285 10.9147H9.53797L10.7872 14.5394ZM6.8597 3.36253H7.02058L8.99853 9.13548H4.87229L6.8597 3.36253Z" fill="white"/>
</svg>
