<svg width="77" height="8" viewBox="0 0 77 8" fill="none" xmlns="http://www.w3.org/2000/svg">
<path d="M0.21582 0.581958V7.16987H2.59441C4.55754 7.16987 5.69434 5.96003 5.69434 3.85537C5.69434 1.78267 4.54841 0.581958 2.59441 0.581958H0.21582ZM1.23848 1.51331H2.48027C3.84534 1.51331 4.65342 2.38074 4.65342 3.86907C4.65342 5.38022 3.85903 6.23852 2.48027 6.23852H1.23848V1.51331Z" fill="white"/>
<path d="M9.17593 7.26575C10.6277 7.26575 11.518 6.29331 11.518 4.68171C11.518 3.07925 10.6232 2.10225 9.17593 2.10225C7.72413 2.10225 6.8293 3.07925 6.8293 4.68171C6.8293 6.29331 7.71956 7.26575 9.17593 7.26575ZM9.17593 6.39375C8.3222 6.39375 7.84283 5.76829 7.84283 4.68171C7.84283 3.60427 8.3222 2.97424 9.17593 2.97424C10.0251 2.97424 10.509 3.60427 10.509 4.68171C10.509 5.76372 10.0251 6.39375 9.17593 6.39375Z" fill="white"/>
<path d="M19.0994 2.19812H18.1178L17.2321 5.99199H17.1545L16.1318 2.19812H15.1913L14.1687 5.99199H14.0956L13.2054 2.19812H12.2101L13.5797 7.16987H14.5887L15.6114 3.5084H15.689L16.7162 7.16987H17.7343L19.0994 2.19812Z" fill="white"/>
<path d="M20.2298 7.16987H21.2113V4.26169C21.2113 3.48557 21.6724 3.00164 22.3983 3.00164C23.1242 3.00164 23.4712 3.39883 23.4712 4.19778V7.16987H24.4528V3.95124C24.4528 2.7688 23.841 2.10225 22.7316 2.10225C21.9829 2.10225 21.4898 2.43552 21.2478 2.98794H21.1748V2.19812H20.2298V7.16987Z" fill="white"/>
<path d="M25.9986 7.16987H26.9802V0.257812H25.9986V7.16987Z" fill="white"/>
<path d="M30.6718 7.26575C32.1236 7.26575 33.0139 6.29331 33.0139 4.68171C33.0139 3.07925 32.119 2.10225 30.6718 2.10225C29.22 2.10225 28.3252 3.07925 28.3252 4.68171C28.3252 6.29331 29.2154 7.26575 30.6718 7.26575ZM30.6718 6.39375C29.8181 6.39375 29.3387 5.76829 29.3387 4.68171C29.3387 3.60427 29.8181 2.97424 30.6718 2.97424C31.521 2.97424 32.0049 3.60427 32.0049 4.68171C32.0049 5.76372 31.521 6.39375 30.6718 6.39375Z" fill="white"/>
<path d="M35.9385 6.42571C35.4043 6.42571 35.0163 6.16548 35.0163 5.71807C35.0163 5.27978 35.3267 5.04695 36.0115 5.00129L37.2259 4.92368V5.33914C37.2259 5.95547 36.6781 6.42571 35.9385 6.42571ZM35.6874 7.25205C36.3402 7.25205 36.8835 6.96899 37.1803 6.47136H37.2579V7.16987H38.2029V3.77319C38.2029 2.72314 37.4999 2.10225 36.2535 2.10225C35.1258 2.10225 34.3223 2.6501 34.2219 3.50383H35.1715C35.2811 3.15229 35.66 2.95142 36.2078 2.95142C36.879 2.95142 37.2259 3.24817 37.2259 3.77319V4.20234L35.8791 4.27996C34.6967 4.353 34.0301 4.8689 34.0301 5.76372C34.0301 6.67224 34.7286 7.25205 35.6874 7.25205Z" fill="white"/>
<path d="M41.5339 7.25205C42.2187 7.25205 42.7985 6.9279 43.0953 6.38462H43.1729V7.16987H44.1133V0.257812H43.1318V2.98794H43.0587C42.7894 2.44009 42.2141 2.11594 41.5339 2.11594C40.2784 2.11594 39.4703 3.11121 39.4703 4.68171C39.4703 6.25679 40.2692 7.25205 41.5339 7.25205ZM41.8124 2.99707C42.6341 2.99707 43.15 3.64993 43.15 4.68628C43.15 5.7272 42.6387 6.37092 41.8124 6.37092C40.9815 6.37092 40.4838 5.73633 40.4838 4.68171C40.4838 3.63623 40.986 2.99707 41.8124 2.99707Z" fill="white"/>
<path d="M50.4785 7.26575C51.9303 7.26575 52.8205 6.29331 52.8205 4.68171C52.8205 3.07925 51.9257 2.10225 50.4785 2.10225C49.0267 2.10225 48.1318 3.07925 48.1318 4.68171C48.1318 6.29331 49.0221 7.26575 50.4785 7.26575ZM50.4785 6.39375C49.6247 6.39375 49.1454 5.76829 49.1454 4.68171C49.1454 3.60427 49.6247 2.97424 50.4785 2.97424C51.3276 2.97424 51.8116 3.60427 51.8116 4.68171C51.8116 5.76372 51.3276 6.39375 50.4785 6.39375Z" fill="white"/>
<path d="M54.1199 7.16987H55.1014V4.26169C55.1014 3.48557 55.5625 3.00164 56.2884 3.00164C57.0143 3.00164 57.3613 3.39883 57.3613 4.19778V7.16987H58.3429V3.95124C58.3429 2.7688 57.7311 2.10225 56.6217 2.10225C55.873 2.10225 55.3799 2.43552 55.1379 2.98794H55.0649V2.19812H54.1199V7.16987Z" fill="white"/>
<path d="M62.8636 0.960889V2.22095H62.0737V3.04729H62.8636V5.85503C62.8636 6.81377 63.2973 7.19727 64.3884 7.19727C64.5802 7.19727 64.7628 7.17444 64.9226 7.14705V6.32983C64.7856 6.34353 64.6989 6.35266 64.5482 6.35266C64.0597 6.35266 63.8451 6.12439 63.8451 5.60393V3.04729H64.9226V2.22095H63.8451V0.960889H62.8636Z" fill="white"/>
<path d="M66.2402 7.16987H67.2217V4.26626C67.2217 3.51296 67.6691 3.0062 68.4727 3.0062C69.1666 3.0062 69.5364 3.40796 69.5364 4.20234V7.16987H70.518V3.96038C70.518 2.77793 69.8651 2.10681 68.8059 2.10681C68.0572 2.10681 67.5322 2.44009 67.2902 2.99707H67.2126V0.257812H66.2402V7.16987Z" fill="white"/>
<path d="M74.0589 2.93772C74.7848 2.93772 75.2596 3.44448 75.2824 4.22517H72.7715C72.8262 3.44905 73.333 2.93772 74.0589 2.93772ZM75.2779 5.82764C75.0953 6.2157 74.6889 6.43027 74.0954 6.43027C73.3102 6.43027 72.8034 5.87786 72.7715 5.00586V4.95107H76.2823V4.60867C76.2823 3.04729 75.4468 2.10225 74.0635 2.10225C72.6619 2.10225 71.7716 3.11121 71.7716 4.69998C71.7716 6.28874 72.6436 7.26575 74.068 7.26575C75.2048 7.26575 75.9992 6.7179 76.2229 5.82764H75.2779Z" fill="white"/>
</svg>
