<svg width="21" height="25" viewBox="0 0 21 25" fill="none" xmlns="http://www.w3.org/2000/svg">
<path d="M17.2458 13.3312C17.2696 11.4821 18.2627 9.73241 19.838 8.7639C18.8442 7.34455 17.1796 6.44464 15.4477 6.39045C13.6006 6.19657 11.8098 7.49577 10.8685 7.49577C9.90905 7.49577 8.4598 6.4097 6.89919 6.44181C4.86502 6.50753 2.96865 7.66405 1.97898 9.44247C-0.148418 13.1257 1.43843 18.5389 3.4763 21.5162C4.49589 22.974 5.6875 24.6025 7.2467 24.5448C8.77246 24.4815 9.34231 23.5719 11.184 23.5719C13.0087 23.5719 13.5433 24.5448 15.1341 24.5081C16.7714 24.4815 17.8029 23.0437 18.7867 21.572C19.5193 20.5332 20.083 19.3851 20.457 18.1703C18.5329 17.3565 17.248 15.4202 17.2458 13.3312Z" fill="white"/>
<path d="M14.241 4.43246C15.1336 3.36083 15.5734 1.98343 15.4669 0.592773C14.1031 0.736016 12.8433 1.38783 11.9386 2.41834C11.0539 3.42521 10.5935 4.77837 10.6805 6.11587C12.0448 6.12992 13.386 5.49577 14.241 4.43246Z" fill="white"/>
</svg>
