<svg width="31" height="31" viewBox="0 0 31 31" fill="none" xmlns="http://www.w3.org/2000/svg">
<rect x="0.956055" y="0.779785" width="29.8047" height="29.8047" rx="14.9023" fill="#080705"/>
<path d="M10.0633 7.13672H21.654C22.1112 7.13672 22.4819 7.50739 22.4819 7.96463V23.8135C22.4819 24.0421 22.2965 24.2275 22.0679 24.2275C21.9902 24.2275 21.9139 24.2055 21.848 24.1642L15.8586 20.4091L9.86919 24.1642C9.67549 24.2857 9.42002 24.2271 9.29858 24.0334C9.25727 23.9675 9.23535 23.8913 9.23535 23.8135V7.96463C9.23535 7.50739 9.60602 7.13672 10.0633 7.13672ZM20.826 8.79253H10.8912V21.5691L15.8586 18.4548L20.826 21.5691V8.79253Z" fill="#B7FF2A"/>
</svg>
