<svg width="26" height="26" viewBox="0 0 26 26" fill="none" xmlns="http://www.w3.org/2000/svg">
<g clip-path="url(#clip0_1_1869)">
<path fill-rule="evenodd" clip-rule="evenodd" d="M12.9998 24.9991C19.6272 24.9991 24.9999 19.6264 24.9999 12.999C24.9999 6.3716 19.6272 0.999023 12.9998 0.999023C6.37239 0.999023 0.999809 6.3716 0.999809 12.999C0.999809 19.6264 6.37239 24.9991 12.9998 24.9991ZM15.9788 10.223C16.2778 9.91799 16.7626 9.91799 17.0618 10.223C17.3608 10.5281 17.3608 11.0227 17.0618 11.3278L12.7296 15.7467L11.6466 16.8514L8.93896 14.0896C8.63989 13.7845 8.63989 13.2899 8.93896 12.9849C9.23803 12.6798 9.72293 12.6798 10.022 12.9849L11.6466 14.642L15.9788 10.223Z" fill="#5DC64F"/>
</g>
<defs>
<clipPath id="clip0_1_1869">
<rect width="25" height="25" fill="white" transform="translate(0.5 0.5)"/>
</clipPath>
</defs>
</svg>
