<svg width="14" height="20" viewBox="0 0 14 20" fill="none" xmlns="http://www.w3.org/2000/svg">
<rect x="0.90625" y="0.216797" width="12.4355" height="19.0419" rx="1.65581" fill="#080705"/>
<path d="M5.35829 6.31274C5.14301 6.31274 4.94835 6.26464 4.77429 6.16846C4.60482 6.07227 4.4697 5.93715 4.36893 5.76309C4.26816 5.58446 4.21777 5.37147 4.21777 5.12413C4.21777 4.88136 4.26816 4.67296 4.36893 4.4989C4.4697 4.32027 4.60711 4.18285 4.78116 4.08667C4.95522 3.99048 5.14988 3.94238 5.36516 3.94238C5.57586 3.94238 5.76595 3.99048 5.93542 4.08667C6.10948 4.18285 6.24689 4.32027 6.34766 4.4989C6.44843 4.67296 6.49881 4.88136 6.49881 5.12413C6.49881 5.37147 6.44843 5.58446 6.34766 5.76309C6.24689 5.93715 6.10948 6.07227 5.93542 6.16846C5.76595 6.26464 5.57357 6.31274 5.35829 6.31274ZM5.01476 8.82738L7.76987 4.01796H8.48441L5.73618 8.82738H5.01476ZM5.35829 5.79057C5.50487 5.79057 5.63083 5.73561 5.73618 5.62568C5.8461 5.51117 5.90107 5.34398 5.90107 5.12413C5.90107 4.90427 5.8484 4.73937 5.74305 4.62944C5.6377 4.51493 5.50945 4.45768 5.35829 4.45768C5.21172 4.45768 5.08347 4.51493 4.97354 4.62944C4.86361 4.73937 4.80864 4.90427 4.80864 5.12413C4.80864 5.34398 4.86132 5.51117 4.96667 5.62568C5.0766 5.73561 5.20714 5.79057 5.35829 5.79057ZM8.18211 8.90982C7.96683 8.90982 7.77216 8.86173 7.59811 8.76554C7.42863 8.66935 7.29351 8.53423 7.19274 8.36018C7.09197 8.18154 7.04159 7.96855 7.04159 7.72121C7.04159 7.47845 7.09197 7.26775 7.19274 7.08912C7.29351 6.91048 7.43092 6.77307 7.60498 6.67688C7.77903 6.58069 7.9737 6.5326 8.18898 6.5326C8.39968 6.5326 8.58976 6.58069 8.75924 6.67688C8.93329 6.77307 9.0707 6.91048 9.17147 7.08912C9.27224 7.26775 9.32263 7.47845 9.32263 7.72121C9.32263 7.96855 9.27224 8.18154 9.17147 8.36018C9.0707 8.53423 8.93329 8.66935 8.75924 8.76554C8.58976 8.86173 8.39739 8.90982 8.18211 8.90982ZM8.18211 8.38079C8.32868 8.38079 8.45464 8.32582 8.55999 8.21589C8.66992 8.10597 8.72489 7.94107 8.72489 7.72121C8.72489 7.50135 8.67221 7.33646 8.56686 7.22653C8.46151 7.11202 8.33326 7.05476 8.18211 7.05476C8.03554 7.05476 7.90728 7.11202 7.79735 7.22653C7.68742 7.33646 7.63246 7.50135 7.63246 7.72121C7.63246 7.94107 7.68513 8.10597 7.79048 8.21589C7.90041 8.32582 8.03095 8.38079 8.18211 8.38079Z" fill="#B7FF2A"/>
<rect x="5.94141" y="15.3726" width="2.33166" height="2.33166" rx="1.16583" fill="#B7FF2A"/>
<path d="M3.99877 2.354H2.44434V3.71414" stroke="#B7FF2A" stroke-width="0.827907"/>
<path d="M3.99877 10.2234H2.44434V8.86326" stroke="#B7FF2A" stroke-width="0.827907"/>
<path d="M11.7705 3.81152L11.7705 2.25708L10.4104 2.25708" stroke="#B7FF2A" stroke-width="0.827907"/>
<path d="M11.7705 8.76612L11.7705 10.3206L10.4104 10.3206" stroke="#B7FF2A" stroke-width="0.827907"/>
<line x1="0.889648" y1="13.4547" x2="13.3251" y2="13.4547" stroke="#B7FF2A" stroke-width="0.827907" stroke-dasharray="2.48 2.48"/>
</svg>
