<svg width="82" height="110" viewBox="0 0 82 110" fill="none" xmlns="http://www.w3.org/2000/svg">
<g filter="url(#filter0_d_63_774)">
<path d="M77 52.3751C77 33.1273 60.884 17.5269 41 17.5269C21.116 17.5269 5 33.1273 5 52.3751V51.5039C5 51.2135 5 52.3751 5.012 52.7352C5.18 68.8874 16.7 82.4027 32.222 86.1721C36.1339 94.4466 38.521 97.9847 39.8922 99.4875C40.7409 100.417 42.2569 100.409 43.0931 99.4678C44.4497 97.9406 46.8064 94.3469 50.654 85.9456C65.726 81.8916 76.82 68.597 76.994 52.7584L77 52.3751Z" fill="white"/>
<path d="M77.4999 52.3829H77.5V52.3751C77.5 32.8359 61.1447 17.0269 41 17.0269C21.1825 17.0269 5.03235 32.3265 4.51289 51.4259C4.5046 51.4354 4.50029 51.4413 4.50026 51.4423L4.50007 51.4506L4.50002 51.4547L4.50001 51.4573L4.5 51.4657L4.5 51.5039V52.3751H4.50531C4.50697 52.522 4.50917 52.6556 4.51209 52.746C4.68438 69.0589 16.2617 82.7036 31.8718 86.6008C35.7272 94.73 38.1107 98.2769 39.5229 99.8245C40.5711 100.973 42.4331 100.964 43.4669 99.7999C44.8639 98.2271 47.2175 94.6239 51.011 86.3666C66.1683 82.1866 77.3176 68.7627 77.494 52.7652C77.494 52.7648 77.494 52.7644 77.494 52.7639L77.4999 52.3829Z" stroke="white"/>
</g>
<path d="M41 90.0667C62.5391 90.0667 80 73.0535 80 52.0667C80 31.0798 62.5391 14.0667 41 14.0667C19.4609 14.0667 2 31.0798 2 52.0667C2 73.0535 19.4609 90.0667 41 90.0667Z" fill="#C9FC8C"/>
<path fill-rule="evenodd" clip-rule="evenodd" d="M44.3472 53.0705C44.3472 51.6197 45.5257 50.4397 46.9734 50.4397C48.4226 50.4397 49.6011 51.6197 49.6011 53.0705C49.6011 54.5213 48.4226 55.7013 46.9734 55.7013C45.5257 55.7013 44.3472 54.5213 44.3472 53.0705ZM40.5411 49.2551C39.0919 49.2551 37.9134 48.0813 37.9134 46.6382C37.9134 45.189 39.0919 44.009 40.5411 44.009C41.9903 44.009 43.1672 45.189 43.1672 46.6382C43.1672 48.0813 41.9903 49.2551 40.5411 49.2551ZM40.5411 62.132C39.0919 62.132 37.9134 60.952 37.9134 59.5013C37.9134 58.0582 39.0919 56.8843 40.5411 56.8843C41.9903 56.8843 43.1672 58.0582 43.1672 59.5013C43.1672 60.952 41.9903 62.132 40.5411 62.132ZM34.1072 55.7013C32.658 55.7013 31.4795 54.5213 31.4795 53.0705C31.4795 51.6197 32.658 50.4397 34.1072 50.4397C35.5564 50.4397 36.7334 51.6197 36.7334 53.0705C36.7334 54.5213 35.5564 55.7013 34.1072 55.7013ZM54.5903 65.5628H48.4411C52.578 62.9366 55.3365 58.3243 55.3365 53.0705C55.3365 44.909 48.6996 38.2705 40.5411 38.2705C32.3826 38.2705 25.7441 44.909 25.7441 53.0705C25.7441 61.2305 32.3811 67.869 40.5396 67.8705H54.5903C55.2272 67.8705 55.7442 67.3536 55.7442 66.7166C55.7442 66.0797 55.2272 65.5628 54.5903 65.5628Z" fill="#080705"/>
<path d="M31.6673 1.07611L33.8528 10.7956L32.0727 11.1707L26.4561 5.94689L26.3847 5.96193L27.7603 12.0793L25.6993 12.5136L23.5137 2.79411L25.3224 2.413L30.9046 7.63904L30.9903 7.62099L29.6158 1.50837L31.6673 1.07611Z" fill="white"/>
<path d="M35.9392 10.3939L35.467 0.442995L42.1731 0.144807L42.2555 1.87942L37.6535 2.08405L37.766 4.45517L42.0229 4.26589L42.1053 6.0005L37.8483 6.18979L37.9611 8.56577L42.5825 8.36028L42.6648 10.0949L35.9392 10.3939Z" fill="white"/>
<path d="M46.2515 10.3845L44.886 0.138198L47.165 0.45414L47.7854 7.52799L47.8673 7.53934L50.6823 0.941746L52.6337 1.21227L53.4158 8.32326L53.5025 8.33528L56.151 1.69987L58.4301 2.01581L54.1486 11.4793L52.1153 11.1974L51.1894 4.49369L51.1123 4.483L48.2848 10.6664L46.2515 10.3845Z" fill="white"/>
<defs>
<filter id="filter0_d_63_774" x="0" y="16.5269" width="82" height="92.6526" filterUnits="userSpaceOnUse" color-interpolation-filters="sRGB">
<feFlood flood-opacity="0" result="BackgroundImageFix"/>
<feColorMatrix in="SourceAlpha" type="matrix" values="0 0 0 0 0 0 0 0 0 0 0 0 0 0 0 0 0 0 127 0" result="hardAlpha"/>
<feOffset dy="4"/>
<feGaussianBlur stdDeviation="2"/>
<feComposite in2="hardAlpha" operator="out"/>
<feColorMatrix type="matrix" values="0 0 0 0 0 0 0 0 0 0 0 0 0 0 0 0 0 0 0.25 0"/>
<feBlend mode="normal" in2="BackgroundImageFix" result="effect1_dropShadow_63_774"/>
<feBlend mode="normal" in="SourceGraphic" in2="effect1_dropShadow_63_774" result="shape"/>
</filter>
</defs>
</svg>
