<svg width="70" height="91" viewBox="0 0 70 91" fill="none" xmlns="http://www.w3.org/2000/svg">
<g filter="url(#filter0_d_63_793)">
<path d="M64.9457 43.4542C64.9457 27.4289 51.5279 14.4403 34.9729 14.4403C18.4178 14.4403 5 27.4289 5 43.4542V42.7289C5 42.4871 5 43.4542 5.00999 43.7541C5.14986 57.202 14.7412 68.4546 27.6645 71.5929C30.9214 78.4821 32.9088 81.4278 34.0505 82.679C34.7571 83.4533 36.0193 83.4463 36.7155 82.6626C37.845 81.3911 39.8072 78.3991 43.0106 71.4043C55.5592 68.0291 64.7958 56.9602 64.9407 43.7734L64.9457 43.4542Z" fill="white"/>
<path d="M65.3619 43.4608L65.362 43.4608V43.4542C65.362 27.1863 51.7449 14.024 34.9729 14.024C18.4732 14.024 5.02693 26.7622 4.59444 42.664C4.58754 42.6719 4.58396 42.6768 4.58392 42.6776L4.58377 42.6845L4.58373 42.6879L4.58372 42.6901L4.58371 42.6971L4.58371 42.7289V43.4542H4.58813C4.58951 43.5765 4.59134 43.6878 4.59377 43.7631C4.73722 57.3448 14.3763 68.7051 27.3729 71.9499C30.5828 78.718 32.5673 81.6711 33.743 82.9596C34.6158 83.916 36.166 83.908 37.0267 82.9391C38.1899 81.6297 40.1494 78.6297 43.3078 71.7548C55.9275 68.2746 65.2103 57.0981 65.357 43.7788C65.357 43.7785 65.357 43.7782 65.357 43.778L65.3619 43.4608Z" stroke="white" stroke-width="0.832579"/>
</g>
<path d="M34.9725 74.8356C52.9056 74.8356 67.4431 60.6708 67.4431 43.1976C67.4431 25.7244 52.9056 11.5596 34.9725 11.5596C17.0395 11.5596 2.50195 25.7244 2.50195 43.1976C2.50195 60.6708 17.0395 74.8356 34.9725 74.8356Z" fill="#C9FC8C"/>
<path fill-rule="evenodd" clip-rule="evenodd" d="M39.8378 49.5039H41.9745V47.5057H39.8378V49.5039ZM37.4853 44.8654H39.622V42.8673H37.4853V44.8654ZM33.6434 47.1487H31.1657V49.5772H29.1675V47.1487H26.6871V45.1505H29.1675V42.7207H31.1657V45.1505H33.6434V47.1487ZM39.6513 36.3078H35.6389V35.8442C35.6296 33.8207 33.9525 32.1689 31.8957 32.1622H30.525C30.0973 32.1622 29.7483 31.8292 29.7483 31.4216V30.4225H27.7501V31.4216C27.7501 32.9309 28.9957 34.1604 30.525 34.1604H31.8917C32.8521 34.1631 33.6368 34.9237 33.6408 35.8496V36.3078H29.6271C24.1787 36.3078 19.748 40.7398 19.748 46.1869C19.748 51.634 24.1787 56.066 29.6271 56.066H39.6513C45.0997 56.066 49.5304 51.634 49.5304 46.1869C49.5304 40.7398 45.0997 36.3078 39.6513 36.3078Z" fill="#080705"/>
<path d="M27.2408 0.916389L29.0605 9.0086L27.5783 9.3209L22.9021 4.9717L22.8426 4.98422L23.9879 10.0774L22.272 10.439L20.4523 2.34676L21.9582 2.02946L26.6058 6.38055L26.6772 6.36552L25.5328 1.27628L27.2408 0.916389Z" fill="white"/>
<path d="M30.767 8.67815L30.3738 0.393191L35.9572 0.144926L36.0258 1.58913L32.1942 1.7595L32.2879 3.73365L35.8322 3.57605L35.9007 5.02026L32.3565 5.17785L32.4503 7.15605L36.298 6.98496L36.3665 8.42916L30.767 8.67815Z" fill="white"/>
<path d="M39.3188 8.66869L38.1819 0.137825L40.0793 0.400871L40.5958 6.29041L40.664 6.29986L43.0078 0.806842L44.6325 1.03207L45.2836 6.95254L45.3558 6.96255L47.5609 1.43804L49.4584 1.70109L45.8937 9.58017L44.2009 9.34549L43.43 3.76412L43.3658 3.75522L41.0116 8.90337L39.3188 8.66869Z" fill="white"/>
<defs>
<filter id="filter0_d_63_793" x="0.837164" y="13.6078" width="68.2715" height="77.1405" filterUnits="userSpaceOnUse" color-interpolation-filters="sRGB">
<feFlood flood-opacity="0" result="BackgroundImageFix"/>
<feColorMatrix in="SourceAlpha" type="matrix" values="0 0 0 0 0 0 0 0 0 0 0 0 0 0 0 0 0 0 127 0" result="hardAlpha"/>
<feOffset dy="3.33032"/>
<feGaussianBlur stdDeviation="1.66516"/>
<feComposite in2="hardAlpha" operator="out"/>
<feColorMatrix type="matrix" values="0 0 0 0 0 0 0 0 0 0 0 0 0 0 0 0 0 0 0.25 0"/>
<feBlend mode="normal" in2="BackgroundImageFix" result="effect1_dropShadow_63_793"/>
<feBlend mode="normal" in="SourceGraphic" in2="effect1_dropShadow_63_793" result="shape"/>
</filter>
</defs>
</svg>
