<svg width="268" height="156" viewBox="0 0 268 156" fill="none" xmlns="http://www.w3.org/2000/svg">
<g filter="url(#filter0_d_1_1965)">
<path d="M54 78C54 64.7452 64.7452 54 78 54H190C203.255 54 214 64.7452 214 78C214 91.2548 203.255 102 190 102H78C64.7452 102 54 91.2548 54 78Z" fill="black"/>
<path d="M54.5 78C54.5 65.0213 65.0213 54.5 78 54.5H190C202.979 54.5 213.5 65.0213 213.5 78C213.5 90.9787 202.979 101.5 190 101.5H78C65.0213 101.5 54.5 90.9787 54.5 78Z" stroke="#B4F72F"/>
<path d="M133.95 79.9264C131.363 79.9264 129.254 81.8943 129.254 84.6047C129.254 87.2986 131.363 89.283 133.95 89.283C136.538 89.283 138.647 87.2986 138.647 84.6047C138.646 81.8943 136.537 79.9264 133.95 79.9264ZM133.95 87.4416C132.532 87.4416 131.31 86.2723 131.31 84.6058C131.31 82.9217 132.533 81.77 133.95 81.77C135.368 81.77 136.59 82.9217 136.59 84.6058C136.59 86.2712 135.368 87.4416 133.95 87.4416ZM123.704 79.9264C121.117 79.9264 119.009 81.8943 119.009 84.6047C119.009 87.2986 121.117 89.283 123.704 89.283C126.293 89.283 128.401 87.2986 128.401 84.6047C128.401 81.8943 126.293 79.9264 123.704 79.9264ZM123.704 87.4416C122.287 87.4416 121.064 86.2723 121.064 84.6058C121.064 82.9217 122.288 81.77 123.704 81.77C125.122 81.77 126.344 82.9217 126.344 84.6058C126.346 86.2712 125.122 87.4416 123.704 87.4416ZM111.519 81.363V83.3474H116.268C116.127 84.4639 115.755 85.279 115.187 85.8455C114.496 86.5363 113.415 87.2986 111.519 87.2986C108.595 87.2986 106.309 84.9413 106.309 82.0175C106.309 79.0937 108.595 76.7364 111.519 76.7364C113.096 76.7364 114.248 77.3568 115.098 78.1543L116.498 76.754C115.31 75.6199 113.734 74.752 111.519 74.752C107.514 74.752 104.146 78.0124 104.146 82.0175C104.146 86.0226 107.514 89.283 111.519 89.283C113.68 89.283 115.311 88.5735 116.586 87.2447C117.898 85.9335 118.306 84.0899 118.306 82.6016C118.306 82.1418 118.27 81.7161 118.199 81.3619H111.519V81.363ZM161.357 82.9041C160.968 81.8591 159.78 79.9264 157.352 79.9264C154.942 79.9264 152.939 81.8228 152.939 84.6047C152.939 87.2271 154.925 89.283 157.582 89.283C159.726 89.283 160.967 87.9718 161.482 87.2095L159.887 86.1458C159.355 86.9257 158.628 87.4394 157.582 87.4394C156.537 87.4394 155.793 86.9609 155.314 86.0215L161.57 83.4343L161.357 82.9041ZM154.977 84.4639C154.925 82.6555 156.378 81.7348 157.424 81.7348C158.239 81.7348 158.93 82.1429 159.161 82.727L154.977 84.4639ZM149.892 89.0003H151.947V75.2492H149.892V89.0003ZM146.524 80.9725H146.454C145.993 80.4225 145.106 79.9264 143.991 79.9264C141.651 79.9264 139.507 81.9823 139.507 84.6234C139.507 87.2458 141.651 89.2841 143.991 89.2841C145.107 89.2841 145.993 88.788 146.454 88.2215H146.524V88.8947C146.524 90.6844 145.567 91.6414 144.026 91.6414C142.767 91.6414 141.988 90.7383 141.669 89.976L139.879 90.7207C140.393 91.9604 141.757 93.485 144.026 93.485C146.436 93.485 148.474 92.0671 148.474 88.6109V80.2113H146.525V80.9725H146.524ZM144.168 87.4416C142.75 87.4416 141.563 86.2536 141.563 84.6234C141.563 82.9745 142.75 81.77 144.168 81.77C145.567 81.77 146.666 82.9745 146.666 84.6234C146.666 86.2536 145.567 87.4416 144.168 87.4416ZM170.987 75.2492H166.069V89.0003H168.12V83.7907H170.986C173.261 83.7907 175.498 82.144 175.498 79.5205C175.498 76.897 173.262 75.2492 170.987 75.2492ZM171.04 81.8767H168.12V77.1632H171.04C172.574 77.1632 173.445 78.4337 173.445 79.5205C173.445 80.5853 172.574 81.8767 171.04 81.8767ZM183.725 79.9022C182.239 79.9022 180.7 80.5567 180.063 82.0076L181.885 82.7677C182.274 82.0076 183 81.759 183.76 81.759C184.822 81.759 185.901 82.3959 185.918 83.5278V83.6697C185.546 83.4574 184.75 83.1395 183.778 83.1395C181.814 83.1395 179.814 84.2186 179.814 86.2349C179.814 88.0752 181.425 89.2599 183.229 89.2599C184.608 89.2599 185.369 88.6406 185.847 87.9146H185.917V88.9761H187.899V83.7038C187.9 81.264 186.077 79.9022 183.725 79.9022ZM183.476 87.4383C182.805 87.4383 181.867 87.1017 181.867 86.2701C181.867 85.2086 183.035 84.8016 184.044 84.8016C184.945 84.8016 185.37 84.9963 185.918 85.2614C185.759 86.5363 184.662 87.4383 183.476 87.4383ZM195.118 80.2025L192.765 86.1645H192.694L190.252 80.2025H188.041L191.703 88.535L189.615 93.1704H191.756L197.4 80.2025H195.118ZM176.631 89.0003H178.682V75.2492H176.631V89.0003Z" fill="white"/>
<path d="M111.16 67.2675C111.16 68.1893 110.887 68.923 110.34 69.4708C109.72 70.122 108.91 70.4476 107.916 70.4476C106.963 70.4476 106.153 70.1176 105.487 69.4576C104.821 68.7965 104.487 67.9781 104.487 67.0013C104.487 66.0234 104.821 65.205 105.487 64.545C106.153 63.8839 106.963 63.5539 107.916 63.5539C108.389 63.5539 108.841 63.6463 109.27 63.83C109.7 64.0148 110.045 64.2601 110.302 64.567L109.722 65.1478C109.286 64.6253 108.684 64.3646 107.915 64.3646C107.22 64.3646 106.619 64.6088 106.112 65.0972C105.605 65.5856 105.352 66.2203 105.352 67.0002C105.352 67.7801 105.605 68.4148 106.112 68.9032C106.619 69.3916 107.22 69.6358 107.915 69.6358C108.652 69.6358 109.267 69.3905 109.759 68.8988C110.078 68.5787 110.262 68.1332 110.312 67.5623H107.915V66.7692H111.113C111.146 66.9419 111.16 67.108 111.16 67.2675Z" fill="white"/>
<path d="M116.231 64.511H113.226V66.6032H115.936V67.3963H113.226V69.4885H116.231V70.3003H112.378V63.7003H116.231V64.511Z" fill="white"/>
<path d="M119.807 70.3003H118.959V64.511H117.115V63.7003H121.651V64.511H119.807V70.3003Z" fill="white"/>
<path d="M124.932 70.3003V63.7003H125.78V70.3003H124.932Z" fill="white"/>
<path d="M129.541 70.3003H128.693V64.511H126.849V63.7003H131.385V64.511H129.541V70.3003Z" fill="white"/>
<path d="M139.97 69.4478C139.321 70.1144 138.515 70.4477 137.55 70.4477C136.585 70.4477 135.779 70.1144 135.131 69.4478C134.482 68.7812 134.159 67.965 134.159 67.0003C134.159 66.0356 134.482 65.2194 135.131 64.5528C135.779 63.8862 136.585 63.5518 137.55 63.5518C138.509 63.5518 139.314 63.8873 139.965 64.5572C140.617 65.2271 140.942 66.0411 140.942 67.0003C140.942 67.965 140.618 68.7812 139.97 69.4478ZM135.757 68.8945C136.245 69.3895 136.843 69.6359 137.55 69.6359C138.257 69.6359 138.856 69.3884 139.343 68.8945C139.831 68.3995 140.077 67.7681 140.077 67.0003C140.077 66.2325 139.831 65.6011 139.343 65.1061C138.856 64.6111 138.257 64.3647 137.55 64.3647C136.843 64.3647 136.245 64.6122 135.757 65.1061C135.27 65.6011 135.024 66.2325 135.024 67.0003C135.024 67.7681 135.27 68.3995 135.757 68.8945Z" fill="white"/>
<path d="M142.132 70.3003V63.7003H143.164L146.372 68.834H146.408L146.372 67.5624V63.7003H147.22V70.3003H146.334L142.978 64.9169H142.942L142.978 66.1885V70.3003H142.132Z" fill="white"/>
<path d="M111.16 67.2675C111.16 68.1893 110.887 68.923 110.34 69.4708C109.72 70.122 108.91 70.4476 107.916 70.4476C106.963 70.4476 106.153 70.1176 105.487 69.4576C104.821 68.7965 104.487 67.9781 104.487 67.0013C104.487 66.0234 104.821 65.205 105.487 64.545C106.153 63.8839 106.963 63.5539 107.916 63.5539C108.389 63.5539 108.841 63.6463 109.27 63.83C109.7 64.0148 110.045 64.2601 110.302 64.567L109.722 65.1478C109.286 64.6253 108.684 64.3646 107.915 64.3646C107.22 64.3646 106.619 64.6088 106.112 65.0972C105.605 65.5856 105.352 66.2203 105.352 67.0002C105.352 67.7801 105.605 68.4148 106.112 68.9032C106.619 69.3916 107.22 69.6358 107.915 69.6358C108.652 69.6358 109.267 69.3905 109.759 68.8988C110.078 68.5787 110.262 68.1332 110.312 67.5623H107.915V66.7692H111.113C111.146 66.9419 111.16 67.108 111.16 67.2675Z" stroke="white" stroke-width="0.2" stroke-miterlimit="10"/>
<path d="M116.231 64.511H113.226V66.6032H115.936V67.3963H113.226V69.4885H116.231V70.3003H112.378V63.7003H116.231V64.511Z" stroke="white" stroke-width="0.2" stroke-miterlimit="10"/>
<path d="M119.807 70.3003H118.959V64.511H117.115V63.7003H121.651V64.511H119.807V70.3003Z" stroke="white" stroke-width="0.2" stroke-miterlimit="10"/>
<path d="M124.932 70.3003V63.7003H125.78V70.3003H124.932Z" stroke="white" stroke-width="0.2" stroke-miterlimit="10"/>
<path d="M129.541 70.3003H128.693V64.511H126.849V63.7003H131.385V64.511H129.541V70.3003Z" stroke="white" stroke-width="0.2" stroke-miterlimit="10"/>
<path d="M139.97 69.4478C139.321 70.1144 138.515 70.4477 137.55 70.4477C136.585 70.4477 135.779 70.1144 135.131 69.4478C134.482 68.7812 134.159 67.965 134.159 67.0003C134.159 66.0356 134.482 65.2194 135.131 64.5528C135.779 63.8862 136.585 63.5518 137.55 63.5518C138.509 63.5518 139.314 63.8873 139.965 64.5572C140.617 65.2271 140.942 66.0411 140.942 67.0003C140.942 67.965 140.618 68.7812 139.97 69.4478ZM135.757 68.8945C136.245 69.3895 136.843 69.6359 137.55 69.6359C138.257 69.6359 138.856 69.3884 139.343 68.8945C139.831 68.3995 140.077 67.7681 140.077 67.0003C140.077 66.2325 139.831 65.6011 139.343 65.1061C138.856 64.6111 138.257 64.3647 137.55 64.3647C136.843 64.3647 136.245 64.6122 135.757 65.1061C135.27 65.6011 135.024 66.2325 135.024 67.0003C135.024 67.7681 135.27 68.3995 135.757 68.8945Z" stroke="white" stroke-width="0.2" stroke-miterlimit="10"/>
<path d="M142.132 70.3003V63.7003H143.164L146.372 68.834H146.408L146.372 67.5624V63.7003H147.22V70.3003H146.334L142.978 64.9169H142.942L142.978 66.1885V70.3003H142.132Z" stroke="white" stroke-width="0.2" stroke-miterlimit="10"/>
<g filter="url(#filter1_ii_1_1965)">
<path d="M70.48 64.2922C70.1599 64.631 69.9707 65.1568 69.9707 65.8377V90.1653C69.9707 90.8473 70.1599 91.372 70.48 91.7108L70.5614 91.79L84.1893 78.1621V78.0015V77.8409L70.5614 64.2119L70.48 64.2922Z" fill="url(#paint0_linear_1_1965)"/>
<path d="M88.7312 82.7062L84.1893 78.1621V78.0015V77.8409L88.7323 73.2979L88.8346 73.3562L94.2169 76.4142C95.7536 77.2876 95.7536 78.7165 94.2169 79.591L88.8346 82.649L88.7312 82.7062Z" fill="url(#paint1_linear_1_1965)"/>
<g filter="url(#filter2_i_1_1965)">
<path d="M88.8351 82.6484L84.1887 78.002L70.4805 91.7113C70.9865 92.2481 71.8236 92.3141 72.7663 91.7795L88.8351 82.6484Z" fill="url(#paint2_linear_1_1965)"/>
</g>
<path d="M88.8351 73.3552L72.7663 64.2252C71.8236 63.6895 70.9865 63.7566 70.4805 64.2934L84.1898 78.0027L88.8351 73.3552Z" fill="url(#paint3_linear_1_1965)"/>
</g>
</g>
<defs>
<filter id="filter0_d_1_1965" x="0" y="0" width="268" height="156" filterUnits="userSpaceOnUse" color-interpolation-filters="sRGB">
<feFlood flood-opacity="0" result="BackgroundImageFix"/>
<feColorMatrix in="SourceAlpha" type="matrix" values="0 0 0 0 0 0 0 0 0 0 0 0 0 0 0 0 0 0 127 0" result="hardAlpha"/>
<feOffset/>
<feGaussianBlur stdDeviation="27"/>
<feComposite in2="hardAlpha" operator="out"/>
<feColorMatrix type="matrix" values="0 0 0 0 0.705882 0 0 0 0 0.968627 0 0 0 0 0.184314 0 0 0 0.2 0"/>
<feBlend mode="normal" in2="BackgroundImageFix" result="effect1_dropShadow_1_1965"/>
<feBlend mode="normal" in="SourceGraphic" in2="effect1_dropShadow_1_1965" result="shape"/>
</filter>
<filter id="filter1_ii_1_1965" x="69.9707" y="63.8555" width="25.3987" height="28.2935" filterUnits="userSpaceOnUse" color-interpolation-filters="sRGB">
<feFlood flood-opacity="0" result="BackgroundImageFix"/>
<feBlend mode="normal" in="SourceGraphic" in2="BackgroundImageFix" result="shape"/>
<feColorMatrix in="SourceAlpha" type="matrix" values="0 0 0 0 0 0 0 0 0 0 0 0 0 0 0 0 0 0 127 0" result="hardAlpha"/>
<feOffset dy="-0.15"/>
<feComposite in2="hardAlpha" operator="arithmetic" k2="-1" k3="1"/>
<feColorMatrix type="matrix" values="0 0 0 0 0 0 0 0 0 0 0 0 0 0 0 0 0 0 0.12 0"/>
<feBlend mode="normal" in2="shape" result="effect1_innerShadow_1_1965"/>
<feColorMatrix in="SourceAlpha" type="matrix" values="0 0 0 0 0 0 0 0 0 0 0 0 0 0 0 0 0 0 127 0" result="hardAlpha"/>
<feOffset dy="0.15"/>
<feComposite in2="hardAlpha" operator="arithmetic" k2="-1" k3="1"/>
<feColorMatrix type="matrix" values="0 0 0 0 1 0 0 0 0 1 0 0 0 0 1 0 0 0 0.25 0"/>
<feBlend mode="normal" in2="effect1_innerShadow_1_1965" result="effect2_innerShadow_1_1965"/>
</filter>
<filter id="filter2_i_1_1965" x="70.4805" y="78.002" width="18.3546" height="14.147" filterUnits="userSpaceOnUse" color-interpolation-filters="sRGB">
<feFlood flood-opacity="0" result="BackgroundImageFix"/>
<feBlend mode="normal" in="SourceGraphic" in2="BackgroundImageFix" result="shape"/>
<feColorMatrix in="SourceAlpha" type="matrix" values="0 0 0 0 0 0 0 0 0 0 0 0 0 0 0 0 0 0 127 0" result="hardAlpha"/>
<feOffset dy="-0.15"/>
<feComposite in2="hardAlpha" operator="arithmetic" k2="-1" k3="1"/>
<feColorMatrix type="matrix" values="0 0 0 0 0 0 0 0 0 0 0 0 0 0 0 0 0 0 0.08 0"/>
<feBlend mode="normal" in2="shape" result="effect1_innerShadow_1_1965"/>
</filter>
<linearGradient id="paint0_linear_1_1965" x1="82.9813" y1="65.5803" x2="64.5211" y2="84.0405" gradientUnits="userSpaceOnUse">
<stop stop-color="#00A0FF"/>
<stop offset="0.0066" stop-color="#00A1FF"/>
<stop offset="0.2601" stop-color="#00BEFF"/>
<stop offset="0.5122" stop-color="#00D2FF"/>
<stop offset="0.7604" stop-color="#00DFFF"/>
<stop offset="1" stop-color="#00E3FF"/>
</linearGradient>
<linearGradient id="paint1_linear_1_1965" x1="96.2172" y1="78.0015" x2="69.6017" y2="78.0015" gradientUnits="userSpaceOnUse">
<stop stop-color="#FFE000"/>
<stop offset="0.4087" stop-color="#FFBD00"/>
<stop offset="0.7754" stop-color="#FFA500"/>
<stop offset="1" stop-color="#FF9C00"/>
</linearGradient>
<linearGradient id="paint2_linear_1_1965" x1="86.3118" y1="80.5252" x2="61.2774" y2="105.56" gradientUnits="userSpaceOnUse">
<stop stop-color="#FF3A44"/>
<stop offset="1" stop-color="#C31162"/>
</linearGradient>
<linearGradient id="paint3_linear_1_1965" x1="67.028" y1="56.1949" x2="78.2065" y2="67.3735" gradientUnits="userSpaceOnUse">
<stop stop-color="#32A071"/>
<stop offset="0.0685" stop-color="#2DA771"/>
<stop offset="0.4762" stop-color="#15CF74"/>
<stop offset="0.8009" stop-color="#06E775"/>
<stop offset="1" stop-color="#00F076"/>
</linearGradient>
</defs>
</svg>
