<svg width="94" height="20" viewBox="0 0 94 20" fill="none" xmlns="http://www.w3.org/2000/svg">
<path d="M29.9499 5.92635C27.3627 5.92635 25.254 7.89426 25.254 10.6047C25.254 13.2986 27.3627 15.283 29.9499 15.283C32.5382 15.283 34.6469 13.2986 34.6469 10.6047C34.6458 7.89426 32.5371 5.92635 29.9499 5.92635ZM29.9499 13.4416C28.532 13.4416 27.3099 12.2723 27.3099 10.6058C27.3099 8.92165 28.5331 7.76995 29.9499 7.76995C31.3678 7.76995 32.5899 8.92165 32.5899 10.6058C32.5899 12.2712 31.3678 13.4416 29.9499 13.4416ZM19.7045 5.92635C17.1173 5.92635 15.0086 7.89426 15.0086 10.6047C15.0086 13.2986 17.1173 15.283 19.7045 15.283C22.2928 15.283 24.4015 13.2986 24.4015 10.6047C24.4015 7.89426 22.2928 5.92635 19.7045 5.92635ZM19.7045 13.4416C18.2866 13.4416 17.0645 12.2723 17.0645 10.6058C17.0645 8.92165 18.2877 7.76995 19.7045 7.76995C21.1224 7.76995 22.3445 8.92165 22.3445 10.6058C22.3456 12.2712 21.1224 13.4416 19.7045 13.4416ZM7.51868 7.36295V9.34735H12.2685C12.1266 10.4639 11.7548 11.279 11.1872 11.8455C10.4964 12.5363 9.41508 13.2986 7.51868 13.2986C4.59488 13.2986 2.30908 10.9413 2.30908 8.01745C2.30908 5.09365 4.59488 2.73635 7.51868 2.73635C9.09608 2.73635 10.2478 3.35675 11.0981 4.15425L12.4984 2.75395C11.3104 1.61985 9.73408 0.751954 7.51868 0.751954C3.51358 0.751954 0.146484 4.01235 0.146484 8.01745C0.146484 12.0226 3.51358 15.283 7.51868 15.283C9.68018 15.283 11.3115 14.5735 12.5864 13.2447C13.8976 11.9335 14.3057 10.0899 14.3057 8.60155C14.3057 8.14175 14.2705 7.71605 14.199 7.36185H7.51868V7.36295ZM57.3575 8.90405C56.9681 7.85905 55.7801 5.92635 53.3524 5.92635C50.9423 5.92635 48.9392 7.82275 48.9392 10.6047C48.9392 13.2271 50.9247 15.283 53.5823 15.283C55.7262 15.283 56.967 13.9718 57.4818 13.2095L55.8868 12.1458C55.3555 12.9257 54.6284 13.4394 53.5823 13.4394C52.5373 13.4394 51.7926 12.9609 51.3141 12.0215L57.5698 9.43425L57.3575 8.90405ZM50.9775 10.4639C50.9247 8.65545 52.3778 7.73475 53.4239 7.73475C54.239 7.73475 54.9298 8.14285 55.1608 8.72695L50.9775 10.4639ZM45.8922 15.0003H47.947V1.24915H45.8922V15.0003ZM42.524 6.97245H42.4536C41.9927 6.42245 41.1061 5.92635 39.9907 5.92635C37.651 5.92635 35.5071 7.98225 35.5071 10.6234C35.5071 13.2458 37.651 15.2841 39.9907 15.2841C41.1072 15.2841 41.9927 14.788 42.4536 14.2215H42.524V14.8947C42.524 16.6844 41.567 17.6414 40.0259 17.6414C38.7675 17.6414 37.9876 16.7383 37.6686 15.976L35.8789 16.7207C36.3926 17.9604 37.7566 19.485 40.0259 19.485C42.436 19.485 44.4743 18.0671 44.4743 14.6109V6.21125H42.5251V6.97245H42.524ZM40.1678 13.4416C38.7499 13.4416 37.563 12.2536 37.563 10.6234C37.563 8.97445 38.7499 7.76995 40.1678 7.76995C41.567 7.76995 42.6659 8.97445 42.6659 10.6234C42.6659 12.2536 41.567 13.4416 40.1678 13.4416ZM66.9869 1.24915H62.0688V15.0003H64.1203V9.79065H66.9858C69.2606 9.79065 71.498 8.14395 71.498 5.52045C71.498 2.89695 69.2617 1.24915 66.9869 1.24915ZM67.0397 7.87665H64.1203V3.16315H67.0397C68.5742 3.16315 69.4454 4.43365 69.4454 5.52045C69.4454 6.58525 68.5742 7.87665 67.0397 7.87665ZM79.7249 5.90215C78.2388 5.90215 76.6999 6.55665 76.063 8.00756L77.8846 8.76765C78.274 8.00755 79 7.75895 79.7601 7.75895C80.8216 7.75895 81.9007 8.39585 81.9183 9.52775V9.66965C81.5465 9.45735 80.7501 9.13945 79.7777 9.13945C77.8142 9.13945 75.8144 10.2186 75.8144 12.2349C75.8144 14.0752 77.4248 15.2599 79.2288 15.2599C80.6082 15.2599 81.3694 14.6406 81.8468 13.9146H81.9172V14.9761H83.8994V9.70376C83.9005 7.26396 82.0767 5.90215 79.7249 5.90215ZM79.4763 13.4383C78.8053 13.4383 77.867 13.1017 77.867 12.2701C77.867 11.2086 79.0352 10.8016 80.0439 10.8016C80.9448 10.8016 81.3705 10.9963 81.9183 11.2614C81.7588 12.5363 80.6621 13.4383 79.4763 13.4383ZM91.1176 6.20245L88.7647 12.1645H88.6943L86.2523 6.20245H84.0413L87.7032 14.535L85.6154 19.1704H87.756L93.4001 6.20245H91.1176ZM72.631 15.0003H74.6825V1.24915H72.631V15.0003Z" fill="white"/>
</svg>
