<svg width="44" height="8" viewBox="0 0 44 8" fill="none" xmlns="http://www.w3.org/2000/svg">
<path d="M7.1599 4.26751C7.1599 5.18931 6.8871 5.92301 6.3404 6.47081C5.72 7.12201 4.91041 7.44761 3.91601 7.44761C2.96341 7.44761 2.15271 7.1176 1.48721 6.4576C0.820605 5.7965 0.487305 4.97811 0.487305 4.00131C0.487305 3.02341 0.820605 2.20501 1.48721 1.54501C2.15271 0.883906 2.96341 0.553907 3.91601 0.553907C4.38901 0.553907 4.8411 0.646307 5.2701 0.830007C5.7002 1.01481 6.0445 1.26011 6.3019 1.56701L5.7222 2.14781C5.2855 1.62531 4.6838 1.36461 3.9149 1.36461C3.2197 1.36461 2.6191 1.60881 2.112 2.09721C1.6049 2.58561 1.3519 3.22031 1.3519 4.00021C1.3519 4.78011 1.6049 5.41481 2.112 5.90321C2.6191 6.3916 3.2197 6.63581 3.9149 6.63581C4.6519 6.63581 5.2668 6.39051 5.7585 5.89881C6.0775 5.57871 6.2623 5.13321 6.3118 4.56231H3.9149V3.76921H7.1126C7.1456 3.94191 7.1599 4.10801 7.1599 4.26751Z" fill="white"/>
<path d="M12.231 1.51097H9.22581V3.60317H11.9362V4.39627H9.22581V6.48847H12.231V7.30027H8.37771V0.700269H12.231V1.51097Z" fill="white"/>
<path d="M15.807 7.30027H14.9589V1.51097H13.1153V0.700269H17.6506V1.51097H15.807V7.30027Z" fill="white"/>
<path d="M20.9318 7.30027V0.700269H21.7799V7.30027H20.9318Z" fill="white"/>
<path d="M25.541 7.30027H24.6929V1.51097H22.8493V0.700269H27.3846V1.51097H25.541V7.30027Z" fill="white"/>
<path d="M35.9699 6.44776C35.3209 7.11436 34.5146 7.44766 33.5499 7.44766C32.5852 7.44766 31.7789 7.11436 31.131 6.44776C30.482 5.78116 30.1586 4.96496 30.1586 4.00026C30.1586 3.03556 30.482 2.21936 31.131 1.55276C31.7789 0.886158 32.5852 0.551758 33.5499 0.551758C34.5091 0.551758 35.3143 0.887257 35.9655 1.55716C36.6167 2.22706 36.9423 3.04106 36.9423 4.00026C36.9423 4.96496 36.6178 5.78116 35.9699 6.44776ZM31.7569 5.89446C32.2453 6.38946 32.8426 6.63586 33.5499 6.63586C34.2572 6.63586 34.8556 6.38836 35.3429 5.89446C35.8313 5.39946 36.0766 4.76806 36.0766 4.00026C36.0766 3.23246 35.8313 2.60106 35.3429 2.10606C34.8556 1.61106 34.2572 1.36466 33.5499 1.36466C32.8426 1.36466 32.2453 1.61216 31.7569 2.10606C31.2696 2.60106 31.0243 3.23246 31.0243 4.00026C31.0243 4.76806 31.2696 5.39946 31.7569 5.89446Z" fill="white"/>
<path d="M38.1325 7.30027V0.700269H39.1643L42.3719 5.83397H42.4082L42.3719 4.56237V0.700269H43.22V7.30027H42.3345L38.9784 1.91687H38.9421L38.9784 3.18847V7.30027H38.1325Z" fill="white"/>
<path d="M7.1599 4.26751C7.1599 5.18931 6.8871 5.92301 6.3404 6.47081C5.72 7.12201 4.91041 7.44761 3.91601 7.44761C2.96341 7.44761 2.15271 7.1176 1.48721 6.4576C0.820605 5.7965 0.487305 4.97811 0.487305 4.00131C0.487305 3.02341 0.820605 2.20501 1.48721 1.54501C2.15271 0.883906 2.96341 0.553907 3.91601 0.553907C4.38901 0.553907 4.8411 0.646307 5.2701 0.830007C5.7002 1.01481 6.0445 1.26011 6.3019 1.56701L5.7222 2.14781C5.2855 1.62531 4.6838 1.36461 3.9149 1.36461C3.2197 1.36461 2.6191 1.60881 2.112 2.09721C1.6049 2.58561 1.3519 3.22031 1.3519 4.00021C1.3519 4.78011 1.6049 5.41481 2.112 5.90321C2.6191 6.3916 3.2197 6.63581 3.9149 6.63581C4.6519 6.63581 5.2668 6.39051 5.7585 5.89881C6.0775 5.57871 6.2623 5.13321 6.3118 4.56231H3.9149V3.76921H7.1126C7.1456 3.94191 7.1599 4.10801 7.1599 4.26751Z" stroke="white" stroke-width="0.2" stroke-miterlimit="10"/>
<path d="M12.231 1.51097H9.22581V3.60317H11.9362V4.39627H9.22581V6.48847H12.231V7.30027H8.37771V0.700269H12.231V1.51097Z" stroke="white" stroke-width="0.2" stroke-miterlimit="10"/>
<path d="M15.807 7.30027H14.9589V1.51097H13.1153V0.700269H17.6506V1.51097H15.807V7.30027Z" stroke="white" stroke-width="0.2" stroke-miterlimit="10"/>
<path d="M20.9318 7.30027V0.700269H21.7799V7.30027H20.9318Z" stroke="white" stroke-width="0.2" stroke-miterlimit="10"/>
<path d="M25.541 7.30027H24.6929V1.51097H22.8493V0.700269H27.3846V1.51097H25.541V7.30027Z" stroke="white" stroke-width="0.2" stroke-miterlimit="10"/>
<path d="M35.9699 6.44776C35.3209 7.11436 34.5146 7.44766 33.5499 7.44766C32.5852 7.44766 31.7789 7.11436 31.131 6.44776C30.482 5.78116 30.1586 4.96496 30.1586 4.00026C30.1586 3.03556 30.482 2.21936 31.131 1.55276C31.7789 0.886158 32.5852 0.551758 33.5499 0.551758C34.5091 0.551758 35.3143 0.887257 35.9655 1.55716C36.6167 2.22706 36.9423 3.04106 36.9423 4.00026C36.9423 4.96496 36.6178 5.78116 35.9699 6.44776ZM31.7569 5.89446C32.2453 6.38946 32.8426 6.63586 33.5499 6.63586C34.2572 6.63586 34.8556 6.38836 35.3429 5.89446C35.8313 5.39946 36.0766 4.76806 36.0766 4.00026C36.0766 3.23246 35.8313 2.60106 35.3429 2.10606C34.8556 1.61106 34.2572 1.36466 33.5499 1.36466C32.8426 1.36466 32.2453 1.61216 31.7569 2.10606C31.2696 2.60106 31.0243 3.23246 31.0243 4.00026C31.0243 4.76806 31.2696 5.39946 31.7569 5.89446Z" stroke="white" stroke-width="0.2" stroke-miterlimit="10"/>
<path d="M38.1325 7.30027V0.700269H39.1643L42.3719 5.83397H42.4082L42.3719 4.56237V0.700269H43.22V7.30027H42.3345L38.9784 1.91687H38.9421L38.9784 3.18847V7.30027H38.1325Z" stroke="white" stroke-width="0.2" stroke-miterlimit="10"/>
</svg>
