<svg width="11" height="10" viewBox="0 0 11 10" fill="none" xmlns="http://www.w3.org/2000/svg">
<g clip-path="url(#clip0_63_674)">
<path d="M1.7251 8.53233C1.7251 6.85577 3.08421 5.49667 4.76076 5.49667C6.43731 5.49667 7.79642 6.85577 7.79642 8.53233H1.7251ZM4.76076 5.11721C3.50286 5.11721 2.48401 4.09837 2.48401 2.84046C2.48401 1.58256 3.50286 0.563721 4.76076 0.563721C6.01866 0.563721 7.0375 1.58256 7.0375 2.84046C7.0375 4.09837 6.01866 5.11721 4.76076 5.11721ZM7.55463 5.96461C8.7254 6.26382 9.60563 7.28903 9.68748 8.53233H8.55533C8.55533 7.54202 8.17595 6.64031 7.55463 5.96461ZM6.7871 5.10085C7.40664 4.54506 7.79642 3.73829 7.79642 2.84046C7.79642 2.30264 7.65655 1.79749 7.41123 1.35939C8.28034 1.53284 8.93479 2.29961 8.93479 3.21992C8.93479 4.26817 8.08575 5.11721 7.0375 5.11721C6.95262 5.11721 6.86902 5.11163 6.7871 5.10085Z" fill="#545454"/>
</g>
<defs>
<clipPath id="clip0_63_674">
<rect width="9.10698" height="9.10698" fill="white" transform="translate(0.965332 0.184326)"/>
</clipPath>
</defs>
</svg>
