<svg width="25" height="24" viewBox="0 0 25 24" fill="none" xmlns="http://www.w3.org/2000/svg">
<path d="M18.1709 7.85045C17.5086 7.85173 16.9702 7.31549 16.9688 6.65322C16.9675 5.99096 17.5038 5.45246 18.1663 5.45117C18.8289 5.44988 19.3674 5.98642 19.3687 6.64868C19.3697 7.31096 18.8335 7.8491 18.1709 7.85045Z" fill="white"/>
<path fill-rule="evenodd" clip-rule="evenodd" d="M12.8522 17.1342C10.0169 17.1397 7.71358 14.8458 7.70808 12.0098C7.70257 9.17442 9.9971 6.87075 12.8325 6.86524C15.6685 6.85973 17.9721 9.15499 17.9776 11.99C17.9831 14.826 15.6879 17.1288 12.8522 17.1342ZM12.836 8.66704C10.9957 8.67027 9.50593 10.1655 9.50915 12.0062C9.51275 13.8472 11.0083 15.3366 12.8487 15.3331C14.6896 15.3295 16.1794 13.8346 16.1758 11.9936C16.1722 10.1526 14.6767 8.66344 12.836 8.66704Z" fill="white"/>
<path fill-rule="evenodd" clip-rule="evenodd" d="M6.27453 2.53775C6.90957 2.28892 7.6363 2.11849 8.7003 2.06827C9.76695 2.01708 10.1074 2.00542 12.8226 2.00023C15.5383 1.99505 15.8788 2.00541 16.9455 2.05272C18.0098 2.09872 18.7369 2.26656 19.3733 2.51281C20.0316 2.7665 20.5902 3.10801 21.1469 3.66238C21.7034 4.21739 22.0463 4.77404 22.3032 5.43144C22.5517 6.06714 22.7221 6.79324 22.7726 7.85794C22.8232 8.92422 22.8355 9.26442 22.8407 11.9799C22.8459 14.6951 22.8349 15.0359 22.7882 16.1032C22.7419 17.1669 22.5744 17.8943 22.3281 18.5303C22.0738 19.1887 21.7329 19.7472 21.1786 20.3039C20.6242 20.8608 20.0669 21.2034 19.4096 21.4606C18.7739 21.7088 18.0478 21.8792 16.9838 21.9301C15.9171 21.9807 15.5766 21.9926 12.8605 21.9978C10.1457 22.003 9.8052 21.9926 8.73855 21.9456C7.67421 21.899 6.94683 21.7314 6.31081 21.4856C5.65245 21.2309 5.09388 20.8904 4.53723 20.3357C3.98028 19.781 3.63718 19.224 3.38058 18.5666C3.13174 17.9312 2.96195 17.2048 2.91108 16.1411C2.86022 15.0741 2.84823 14.7333 2.84306 12.0181C2.83785 9.30267 2.84856 8.96247 2.89521 7.89582C2.94219 6.83115 3.10905 6.10407 3.3553 5.4674C3.60963 4.80935 3.95048 4.25109 4.50549 3.69413C5.05986 3.13749 5.61714 2.79403 6.27453 2.53775ZM6.9598 19.8056C7.31264 19.9413 7.84205 20.1033 8.817 20.1458C9.87195 20.1915 10.1878 20.2015 12.8572 20.1963C15.5277 20.1915 15.8436 20.1801 16.8982 20.1306C17.8721 20.0842 18.4016 19.9203 18.7535 19.7829C19.2203 19.6005 19.5527 19.3824 19.902 19.0329C20.2513 18.6819 20.4674 18.3486 20.6482 17.8816C20.7842 17.5284 20.9459 16.9987 20.9884 16.0238C21.0347 14.9695 21.0444 14.6532 21.0392 11.9832C21.0344 9.31369 21.023 8.99742 20.9729 7.94277C20.9268 6.96852 20.7632 6.4391 20.6255 6.08755C20.4431 5.62001 20.2257 5.28823 19.8752 4.93863C19.5245 4.58902 19.1912 4.37356 18.7236 4.19277C18.3714 4.05637 17.8414 3.895 16.8671 3.85257C15.8121 3.80623 15.4959 3.79683 12.8258 3.80202C10.1563 3.8072 9.84052 3.81789 8.78587 3.86779C7.81128 3.91412 7.2825 4.07774 6.92998 4.21545C6.46342 4.39786 6.13099 4.61462 5.7814 4.96552C5.43245 5.31641 5.21634 5.64917 5.03556 6.11703C4.90014 6.46955 4.73715 6.99962 4.69536 7.9739C4.64934 9.02885 4.63963 9.34512 4.64481 12.0146C4.64968 14.6847 4.66101 15.0009 4.71059 16.0549C4.75627 17.0298 4.92117 17.5586 5.05824 17.9115C5.24064 18.3777 5.45806 18.7101 5.8083 19.0597C6.1592 19.408 6.49259 19.6248 6.9598 19.8056Z" fill="white"/>
</svg>
