<svg width="25" height="24" viewBox="0 0 25 24" fill="none" xmlns="http://www.w3.org/2000/svg">
<g clip-path="url(#clip0_1_2009)">
<mask id="mask0_1_2009" style="mask-type:luminance" maskUnits="userSpaceOnUse" x="0" y="-1" width="25" height="25">
<path d="M24.8448 -0.00195312H0.844788V23.998H24.8448V-0.00195312Z" fill="white"/>
</mask>
<g mask="url(#mask0_1_2009)">
<path d="M23.0683 -0.00195312H2.61666C1.63698 -0.00195312 0.844788 0.771484 0.844788 1.72773V22.2637C0.844788 23.2199 1.63698 23.998 2.61666 23.998H23.0683C24.0479 23.998 24.8448 23.2199 24.8448 22.2684V1.72773C24.8448 0.771484 24.0479 -0.00195312 23.0683 -0.00195312ZM7.9651 20.4496H4.4026V8.99332H7.9651V20.4496ZM6.18385 7.43242C5.0401 7.43242 4.11666 6.50898 4.11666 5.36992C4.11666 4.23086 5.0401 3.30742 6.18385 3.30742C7.32291 3.30742 8.24635 4.23086 8.24635 5.36992C8.24635 6.5043 7.32291 7.43242 6.18385 7.43242ZM21.2963 20.4496H17.7385V14.8809C17.7385 13.5543 17.7151 11.8433 15.8869 11.8433C14.0354 11.8433 13.7542 13.2918 13.7542 14.7871V20.4496H10.201V8.99332H13.6135V10.559H13.6604C14.1339 9.65902 15.2964 8.70742 17.026 8.70742C20.6308 8.70742 21.2963 11.0793 21.2963 14.1637V20.4496Z" fill="white"/>
</g>
</g>
<defs>
<clipPath id="clip0_1_2009">
<rect width="24" height="24" fill="white" transform="translate(0.841858)"/>
</clipPath>
</defs>
</svg>
