<svg width="600" height="600" viewBox="0 0 600 600" fill="none" xmlns="http://www.w3.org/2000/svg">
<rect width="600" height="600" fill="#0C0B0B"/>
<path d="M273.063 321.2C271.923 319.945 271.923 317.91 273.063 316.655L296.108 291.275C297.247 290.02 299.095 290.02 300.235 291.275L323.28 316.655C324.419 317.91 324.419 319.945 323.28 321.2L298.171 348.852L273.063 321.2Z" fill="#B7FF2A"/>
<path d="M273.063 381.049C271.923 379.794 271.923 377.759 273.063 376.504L298.171 348.852L323.28 376.504C324.419 377.759 324.419 379.794 323.28 381.049L300.235 406.428C299.095 407.683 297.247 407.683 296.108 406.428L273.063 381.049Z" fill="#B7FF2A"/>
<path d="M111.443 176.054L148.707 163.956C158.381 160.816 168.509 166.192 171.329 175.965L242.736 423.489L205.472 435.587C195.797 438.727 185.669 433.351 182.85 423.578L111.443 176.054Z" fill="#B7FF2A"/>
<path d="M427.683 176.367C430.503 166.594 440.632 161.218 450.306 164.36L487.569 176.46L416.141 423.979C413.321 433.751 403.193 439.127 393.519 435.985L356.256 423.885L427.683 176.367Z" fill="#B7FF2A"/>
</svg>
