<svg width="82" height="110" viewBox="0 0 82 110" fill="none" xmlns="http://www.w3.org/2000/svg">
<g filter="url(#filter0_d_63_750)">
<path d="M77 52.3751C77 33.1273 60.884 17.5269 41 17.5269C21.116 17.5269 5 33.1273 5 52.3751V51.5039C5 51.2135 5 52.3751 5.012 52.7352C5.18 68.8874 16.7 82.4027 32.222 86.1721C36.1339 94.4466 38.521 97.9847 39.8922 99.4875C40.7409 100.417 42.2569 100.409 43.0931 99.4678C44.4497 97.9406 46.8064 94.3469 50.654 85.9456C65.726 81.8916 76.82 68.597 76.994 52.7584L77 52.3751Z" fill="white"/>
<path d="M77.4999 52.3829H77.5V52.3751C77.5 32.8359 61.1447 17.0269 41 17.0269C21.1825 17.0269 5.03235 32.3265 4.51289 51.4259C4.5046 51.4354 4.50029 51.4413 4.50026 51.4423L4.50007 51.4506L4.50002 51.4547L4.50001 51.4573L4.5 51.4657L4.5 51.5039V52.3751H4.50531C4.50697 52.522 4.50917 52.6556 4.51209 52.746C4.68438 69.0589 16.2617 82.7036 31.8718 86.6008C35.7272 94.73 38.1107 98.2769 39.5229 99.8245C40.5711 100.973 42.4331 100.964 43.4669 99.7999C44.8639 98.2271 47.2175 94.6239 51.011 86.3666C66.1683 82.1866 77.3176 68.7627 77.494 52.7652C77.494 52.7648 77.494 52.7644 77.494 52.7639L77.4999 52.3829Z" stroke="white"/>
</g>
<path d="M41 90.0667C62.5391 90.0667 80 73.0535 80 52.0667C80 31.0798 62.5391 14.0667 41 14.0667C19.4609 14.0667 2 31.0798 2 52.0667C2 73.0535 19.4609 90.0667 41 90.0667Z" fill="#C9FC8C"/>
<path d="M37.1402 35.8483C36.9026 35.4934 36.4406 35.3343 36.0292 35.4249C35.6436 35.508 35.3295 35.8312 35.2377 36.2118C35.1984 36.3445 35.2007 36.4823 35.2029 36.6196C35.2036 36.6697 35.2044 36.7197 35.2032 36.7694C35.2036 38.8469 35.2036 40.9248 35.2032 43.0022C35.2078 43.4231 34.9157 43.8278 34.5168 43.9604C34.1379 44.0987 33.6833 43.987 33.412 43.6886C33.2142 43.4859 33.1311 43.1975 33.1336 42.9196C33.1341 41.6609 33.134 40.4022 33.134 39.1436C33.1339 38.1998 33.1339 37.2561 33.1341 36.3124C33.1486 35.9945 32.9674 35.6763 32.6845 35.53C32.4589 35.4078 32.1805 35.3883 31.9428 35.4889C31.6291 35.6106 31.4077 35.9318 31.4073 36.2687C31.3613 37.1512 31.3178 38.0338 31.2743 38.9164C31.2482 39.4471 31.222 39.9778 31.1954 40.5084C31.1786 40.6528 31.1758 40.7982 31.173 40.9435C31.1699 41.1035 31.1669 41.2634 31.1451 41.4221C31.1362 41.5429 31.1333 41.6641 31.1304 41.7852C31.126 41.9696 31.1216 42.154 31.0961 42.337C31.0965 42.566 31.0821 42.794 31.0678 43.0219C31.0535 43.2497 31.0391 43.4774 31.0396 43.7061C30.9909 44.1282 30.9972 44.5545 31.0063 44.9787C31.0591 45.592 31.2087 46.1974 31.4559 46.7616C31.7837 47.5137 32.3022 48.1735 32.9234 48.7061C34.2297 49.8226 34.9319 51.5987 34.7416 53.3069C34.6772 53.8742 34.6151 54.4131 34.5556 54.9311C34.1612 58.3589 33.8723 60.8701 33.6709 64.6431C33.6326 65.2556 33.788 65.8834 34.1387 66.3902C34.5255 66.9346 35.1126 67.3422 35.772 67.4726C36.4572 67.6167 37.2005 67.4742 37.778 67.0767C38.3232 66.7127 38.7217 66.1376 38.8758 65.5011C38.9667 65.1421 38.949 64.7707 38.9315 64.4031C38.928 64.3302 38.9245 64.2576 38.9218 64.1852C38.8313 62.5157 38.7047 60.8489 38.5642 59.1839C38.441 57.7604 38.3145 56.9311 38.1705 55.9877C38.0735 55.3519 37.9687 54.6644 37.8515 53.7082C37.7718 53.1909 37.7465 52.6641 37.7933 52.1422C37.9077 51.1576 38.2778 50.1969 38.8995 49.4204C39.1063 49.1351 39.3655 48.8992 39.6248 48.6635C39.7868 48.5161 39.9488 48.3687 40.0982 48.2092C40.9403 47.3055 41.468 46.1064 41.5333 44.8703C41.5605 44.6127 41.545 44.3551 41.5295 44.0974C41.5207 43.9504 41.5117 43.8033 41.5108 43.6562C41.454 42.5847 41.3992 41.5131 41.3443 40.4418C41.2987 39.5499 41.2532 38.6581 41.2063 37.7666C41.1882 37.6297 41.1863 37.492 41.1845 37.3542C41.1827 37.2139 41.1808 37.0736 41.1618 36.9344C41.145 36.8145 41.1442 36.6929 41.1433 36.5715C41.1422 36.3967 41.141 36.2221 41.092 36.0527C41.0118 35.7681 40.7762 35.5275 40.4875 35.4552C40.1983 35.3717 39.8663 35.4627 39.6585 35.68C39.4932 35.8437 39.3972 36.0755 39.3988 36.3082C39.3993 37.575 39.3993 38.842 39.3992 40.1089C39.3992 41.0593 39.3992 42.0096 39.3993 42.9599C39.4147 43.3205 39.2182 43.6791 38.9112 43.8665C38.671 44.0144 38.3693 44.0584 38.0975 43.9832C37.7635 43.8964 37.4797 43.6309 37.3816 43.2985C37.3253 43.1151 37.3272 42.9239 37.3292 42.7338C37.3297 42.6844 37.3302 42.635 37.3297 42.5859C37.3297 41.907 37.3298 41.2281 37.3298 40.5492C37.3299 39.1913 37.33 37.8335 37.3297 36.4757C37.338 36.2521 37.2678 36.0307 37.1402 35.8483Z" fill="#080705"/>
<path d="M52.0917 66.3626C52.0893 67.0086 51.4548 67.6095 50.802 67.4761C50.5765 67.435 50.362 67.3468 50.1688 67.2238C49.7447 66.9563 49.3848 66.5981 49.0712 66.2093C48.314 65.274 47.751 64.1966 47.287 63.091C46.7942 61.9455 46.4365 60.7471 46.1228 59.5423C45.8228 58.332 45.6022 57.1028 45.4238 55.8693C45.2278 54.543 45.1502 53.2006 45.17 51.8606C45.1843 51.6896 45.189 51.5181 45.1937 51.3466C45.1972 51.2128 45.2008 51.079 45.2092 50.9453C45.224 50.7873 45.2358 50.6286 45.2478 50.4698C45.2892 49.921 45.3307 49.3701 45.4912 48.842C45.7958 47.7942 46.4855 46.8668 47.3987 46.2705C47.7888 46.0146 48.0988 45.6249 48.219 45.1703C48.31 44.8481 48.2832 44.5163 48.2565 44.1859C48.246 44.057 48.2357 43.9283 48.2322 43.8004C48.1553 42.6513 48.0788 41.9217 48.0022 41.1911C47.9258 40.4644 47.8495 39.7367 47.7727 38.594C47.7668 38.476 47.7585 38.358 47.75 38.2399C47.7283 37.9357 47.7067 37.6315 47.7295 37.3267C47.8283 36.4197 48.5597 35.622 49.4563 35.4487C50.1127 35.3 50.8307 35.5002 51.3288 35.9498C51.7988 36.3499 52.0672 36.9574 52.0917 37.5698C52.092 44.2744 52.092 50.2525 52.0918 56.4635C52.0918 59.658 52.0917 62.9141 52.0917 66.3626Z" fill="#080705"/>
<path d="M31.6673 1.07611L33.8528 10.7956L32.0727 11.1707L26.4561 5.94689L26.3847 5.96193L27.7603 12.0793L25.6993 12.5136L23.5137 2.79411L25.3224 2.413L30.9046 7.63904L30.9903 7.62099L29.6158 1.50837L31.6673 1.07611Z" fill="white"/>
<path d="M35.9392 10.3939L35.467 0.442995L42.1731 0.144807L42.2555 1.87942L37.6535 2.08405L37.766 4.45517L42.0229 4.26589L42.1053 6.0005L37.8483 6.18979L37.9611 8.56577L42.5825 8.36028L42.6648 10.0949L35.9392 10.3939Z" fill="white"/>
<path d="M46.2515 10.3845L44.886 0.138198L47.165 0.45414L47.7854 7.52799L47.8673 7.53934L50.6823 0.941746L52.6337 1.21227L53.4158 8.32326L53.5025 8.33528L56.151 1.69987L58.4301 2.01581L54.1486 11.4793L52.1153 11.1974L51.1894 4.49369L51.1123 4.483L48.2848 10.6664L46.2515 10.3845Z" fill="white"/>
<defs>
<filter id="filter0_d_63_750" x="0" y="16.5269" width="82" height="92.6526" filterUnits="userSpaceOnUse" color-interpolation-filters="sRGB">
<feFlood flood-opacity="0" result="BackgroundImageFix"/>
<feColorMatrix in="SourceAlpha" type="matrix" values="0 0 0 0 0 0 0 0 0 0 0 0 0 0 0 0 0 0 127 0" result="hardAlpha"/>
<feOffset dy="4"/>
<feGaussianBlur stdDeviation="2"/>
<feComposite in2="hardAlpha" operator="out"/>
<feColorMatrix type="matrix" values="0 0 0 0 0 0 0 0 0 0 0 0 0 0 0 0 0 0 0.25 0"/>
<feBlend mode="normal" in2="BackgroundImageFix" result="effect1_dropShadow_63_750"/>
<feBlend mode="normal" in="SourceGraphic" in2="effect1_dropShadow_63_750" result="shape"/>
</filter>
</defs>
</svg>
