<svg width="46" height="21" viewBox="0 0 46 21" fill="none" xmlns="http://www.w3.org/2000/svg">
<path d="M0.0537109 10.3052C0.0537109 4.81836 4.50171 0.370361 9.98859 0.370361H35.2677C40.7545 0.370361 45.2025 4.81836 45.2025 10.3052C45.2025 15.7921 40.7546 20.2401 35.2677 20.2401H9.9886C4.50172 20.2401 0.0537109 15.7921 0.0537109 10.3052Z" fill="white"/>
<path d="M12.4721 4.51001L14.4879 8.28959L18.2675 10.3054L14.4879 12.3211L12.4721 16.1007L10.4563 12.3211L6.67676 10.3054L10.4563 8.28959L12.4721 4.51001Z" fill="url(#paint0_linear_63_694)"/>
<path d="M22.1669 12.8052V7.00983H23.0445L25.9505 11.3729V7.00983H26.828V12.8052H25.9505L23.0445 8.44211V12.8052H22.1669ZM29.6436 12.9045C29.2406 12.9045 28.8819 12.8162 28.5673 12.6396C28.2582 12.4575 28.0153 12.2063 27.8387 11.8862C27.6621 11.5661 27.5738 11.1935 27.5738 10.7685C27.5738 10.338 27.6593 9.95994 27.8304 9.63429C28.0071 9.30865 28.2499 9.05476 28.559 8.87262C28.8736 8.69048 29.2379 8.59941 29.6518 8.59941C30.0548 8.59941 30.4052 8.69048 30.7033 8.87262C31.0013 9.04924 31.2331 9.28657 31.3987 9.58462C31.5643 9.88266 31.6471 10.2111 31.6471 10.5698C31.6471 10.625 31.6443 10.6857 31.6388 10.752C31.6388 10.8127 31.6361 10.8817 31.6305 10.9589H28.4348C28.4624 11.3563 28.5921 11.6599 28.8239 11.8696C29.0613 12.0739 29.3345 12.176 29.6436 12.176C29.8919 12.176 30.0989 12.1208 30.2645 12.0104C30.4356 11.8945 30.5625 11.7399 30.6453 11.5468H31.5229C31.4125 11.9331 31.1917 12.256 30.8606 12.5154C30.5349 12.7748 30.1293 12.9045 29.6436 12.9045ZM29.6436 9.31969C29.351 9.31969 29.0916 9.408 28.8653 9.58462C28.639 9.75572 28.5011 10.0151 28.4514 10.3629H30.7695C30.753 10.0427 30.6398 9.78883 30.4301 9.60118C30.2203 9.41352 29.9582 9.31969 29.6436 9.31969ZM32.9672 12.8052L31.7585 8.69876H32.6361L33.4308 11.7951L34.325 8.69876H35.3019L36.1961 11.7951L36.9908 8.69876H37.8684L36.6597 12.8052H35.7573L34.8135 9.57634L33.8696 12.8052H32.9672Z" fill="black"/>
<defs>
<linearGradient id="paint0_linear_63_694" x1="12.4721" y1="4.51001" x2="12.4721" y2="16.1007" gradientUnits="userSpaceOnUse">
<stop stop-color="#2A69C8"/>
<stop offset="1" stop-color="#3F86F1"/>
</linearGradient>
</defs>
</svg>
