<svg width="81" height="52" viewBox="0 0 81 52" fill="none" xmlns="http://www.w3.org/2000/svg">
<path d="M32.5726 6.62795C30.5854 5.6363 28.6246 5.02798 26.6902 4.80299C24.7384 4.61287 22.9176 4.77114 21.2278 5.27782C19.5205 5.81936 17.9443 6.7093 16.499 7.94764C15.0885 9.20337 13.9049 10.79 12.948 12.7075C11.9564 14.6948 11.2699 16.9432 10.8885 19.4527C10.542 21.9796 10.5006 24.6805 10.7643 27.5555C11.028 30.4304 11.5879 33.4097 12.4442 36.4932C13.318 39.6291 14.4967 42.8082 15.9804 46.0307L24.3431 44.3251C23.7841 42.5656 23.3036 40.9106 22.9016 39.3601C22.5345 37.8269 22.237 36.3286 22.0093 34.8651C21.7816 33.4016 21.6236 31.9293 21.5353 30.4482C21.4819 28.9845 21.5156 27.4772 21.6363 25.9263L39.4099 25.9121C40.3494 24.0295 40.8445 22.121 40.8952 20.1868C40.9808 18.27 40.7093 16.458 40.0806 14.7508C39.452 13.0436 38.4923 11.4761 37.2017 10.0483C35.8937 8.65533 34.3507 7.51521 32.5726 6.62795Z" fill="#CAD1DC"/>
<path d="M67.5824 6.62795C65.5951 5.6363 63.6343 5.02798 61.7 4.80299C59.7482 4.61287 57.9274 4.77114 56.2375 5.27782C54.5303 5.81936 52.954 6.7093 51.5087 7.94764C50.0983 9.20337 48.9147 10.79 47.9578 12.7075C46.9662 14.6948 46.2797 16.9432 45.8983 19.4527C45.5518 21.9796 45.5104 24.6805 45.7741 27.5555C46.0377 30.4304 46.5977 33.4097 47.454 36.4932C48.3278 39.6291 49.5065 42.8082 50.9902 46.0307L59.3529 44.3251C58.7939 42.5656 58.3134 40.9106 57.9114 39.3601C57.5442 37.8269 57.2468 36.3286 57.0191 34.8651C56.7914 33.4016 56.6334 31.9293 56.5451 30.4482C56.4917 28.9845 56.5253 27.4772 56.6461 25.9263L74.4197 25.9121C75.3592 24.0295 75.8542 22.121 75.905 20.1868C75.9906 18.27 75.719 16.458 75.0904 14.7508C74.4617 13.0436 73.5021 11.4761 72.2115 10.0483C70.9035 8.65533 69.3605 7.51521 67.5824 6.62795Z" fill="#CAD1DC"/>
</svg>
