<svg width="9" height="13" viewBox="0 0 9 13" fill="none" xmlns="http://www.w3.org/2000/svg">
<path d="M2.14641 4.16997L3.91541 2.88473C4.10958 2.74322 4.3495 2.66489 4.60135 2.67337C5.21478 2.68846 5.75347 3.09057 5.94085 3.67766C6.04368 3.99996 6.13745 4.21745 6.22223 4.33012C6.72576 4.99962 7.5269 5.43262 8.42915 5.43262V6.5365C7.22886 6.5365 6.15644 5.98914 5.44781 5.13049L5.06277 7.3139L6.20037 8.26848L7.42744 11.6397L6.39013 12.0172L5.26423 8.92396L3.39303 7.35381C3.09082 7.10952 2.92699 6.71267 2.99925 6.30286L3.27996 4.71085L2.90639 4.98229L1.73241 6.59809L0.839355 5.94929L2.13704 4.16316L2.14641 4.16997ZM5.3935 2.39696C4.78382 2.39696 4.28962 1.90274 4.28962 1.29308C4.28962 0.683431 4.78382 0.189209 5.3935 0.189209C6.00311 0.189209 6.49737 0.683431 6.49737 1.29308C6.49737 1.90274 6.00311 2.39696 5.3935 2.39696ZM3.75336 9.67222L1.97946 11.7863L1.13384 11.0767L2.77595 9.11973L3.18798 7.91634L4.17658 8.74425L3.75336 9.67222Z" fill="#545454"/>
</svg>
