<svg width="25" height="24" viewBox="0 0 25 24" fill="none" xmlns="http://www.w3.org/2000/svg">
<g clip-path="url(#clip0_1_2003)">
<mask id="mask0_1_2003" style="mask-type:luminance" maskUnits="userSpaceOnUse" x="0" y="-1" width="25" height="25">
<path d="M24.8409 -0.000976562H0.840881V23.999H24.8409V-0.000976562Z" fill="white"/>
</mask>
<g mask="url(#mask0_1_2003)">
<path fill-rule="evenodd" clip-rule="evenodd" d="M23.5868 4.8326C23.9592 5.20736 24.2266 5.67336 24.3623 6.18395C24.8641 8.06851 24.8641 11.9985 24.8641 11.9985C24.8641 11.9985 24.8641 15.9285 24.3623 17.813C24.2266 18.3236 23.9592 18.7896 23.5868 19.1644C23.2145 19.5392 22.7502 19.8095 22.2405 19.9485C20.3641 20.453 12.8641 20.453 12.8641 20.453C12.8641 20.453 5.36413 20.453 3.48776 19.9485C2.97805 19.8095 2.51378 19.5392 2.14141 19.1644C1.76904 18.7896 1.50163 18.3236 1.36594 17.813C0.864123 15.9285 0.864123 11.9985 0.864123 11.9985C0.864123 11.9985 0.864123 8.06851 1.36594 6.18395C1.50163 5.67336 1.76904 5.20736 2.14141 4.8326C2.51378 4.45784 2.97805 4.18745 3.48776 4.04849C5.36413 3.54395 12.8641 3.54395 12.8641 3.54395C12.8641 3.54395 20.3641 3.54395 22.2405 4.04849C22.7502 4.18745 23.2145 4.45784 23.5868 4.8326ZM16.6823 11.9985L10.4096 8.42986V15.5672L16.6823 11.9985Z" fill="white"/>
</g>
</g>
<defs>
<clipPath id="clip0_1_2003">
<rect width="24" height="24" fill="white" transform="translate(0.841858)"/>
</clipPath>
</defs>
</svg>
