<svg width="75" height="75" viewBox="0 0 75 75" fill="none" xmlns="http://www.w3.org/2000/svg">
<path d="M29.8516 45.5156V48.1094H32.9218V45.5156H29.8516Z" fill="#B7FF2A"/>
<path d="M33.5715 32.2639C31.3223 32.2639 29.4775 34.1306 29.4775 36.3591C29.4775 38.6079 31.3003 40.4531 33.5715 40.4531C35.8668 40.4531 37.6655 38.6079 37.6655 36.3591C37.6655 34.1309 35.8443 32.2639 33.5715 32.2639ZM33.5715 38.1359C32.582 38.1359 31.7943 37.3261 31.7943 36.3591C31.7943 35.3916 32.5815 34.5824 33.5715 34.5824C34.5615 34.5824 35.3488 35.3916 35.3488 36.3591C35.3488 37.3261 34.5618 38.1359 33.5715 38.1359Z" fill="#B7FF2A"/>
<path d="M42.1328 45.5156V48.1094H45.2023V45.5156H42.1328Z" fill="#B7FF2A"/>
<path d="M28.9028 27.9489L45.2441 36.6406L46.4622 34.3506L30.1208 25.6589L28.9028 27.9489Z" fill="#B7FF2A"/>
<path d="M35.9922 45.5156V48.1094H39.0617V45.5156H35.9922Z" fill="#B7FF2A"/>
<path d="M37.5313 25.7928C37.5228 28.0421 39.339 29.8946 41.611 29.9023C43.9058 29.9113 45.7128 28.0726 45.722 25.8218C45.7298 23.5938 43.9135 21.7213 41.6415 21.7123C39.391 21.7046 37.5393 23.5648 37.5313 25.7928ZM43.404 25.8078C43.404 26.7741 42.6163 27.5846 41.626 27.5846C40.636 27.5846 39.8493 26.7741 39.8493 25.8078C39.8493 24.8403 40.6358 24.0298 41.626 24.0298C42.6163 24.0298 43.404 24.8403 43.404 25.8078Z" fill="#B7FF2A"/>
<path d="M0 37.5008C0 58.2108 16.7892 75 37.5 75C58.2103 75 75 58.2108 75 37.5008C75 16.7897 58.2095 0 37.5 0C16.7892 0 0 16.7897 0 37.5008ZM46.251 15.3778C48.2622 15.3778 49.893 17.2432 49.893 19.543V45.5155H48.272V48.1092H49.893V55.4562C49.893 57.7567 48.2615 59.6222 46.251 59.6222H28.8022C26.7915 59.6222 25.1607 57.7567 25.1607 55.4562V48.1092H26.7817L26.7817 45.5155H25.1607V19.543C25.1607 17.243 26.7915 15.3778 28.8022 15.3778H46.251Z" fill="#B7FF2A"/>
</svg>
