<svg width="550" height="655" viewBox="0 0 550 655" fill="none" xmlns="http://www.w3.org/2000/svg">
<g clip-path="url(#clip0_63_722)">
<rect y="0.0666504" width="550" height="654" rx="24" fill="#080705"/>
<rect y="0.0666504" width="550" height="654" rx="20" fill="#080705"/>
<g clip-path="url(#clip1_63_722)">
<path d="M269.504 176.65C269.775 176.651 270.04 176.732 270.266 176.883C270.491 177.035 270.667 177.25 270.771 177.501L282.324 205.56L287.018 194.008C287.12 193.754 287.297 193.537 287.524 193.384C287.751 193.232 288.018 193.15 288.292 193.15H295.625C295.99 193.15 296.339 193.295 296.597 193.553C296.855 193.81 297 194.16 297 194.525C297 194.89 296.855 195.239 296.597 195.497C296.339 195.755 295.99 195.9 295.625 195.9H289.217L283.608 209.709C283.505 209.962 283.329 210.179 283.103 210.332C282.877 210.485 282.61 210.567 282.337 210.568C282.063 210.569 281.796 210.488 281.569 210.336C281.342 210.185 281.165 209.969 281.061 209.716L269.494 181.618L263.896 195.055C263.791 195.305 263.614 195.519 263.388 195.67C263.162 195.82 262.897 195.9 262.625 195.9H254.375C254.01 195.9 253.661 195.755 253.403 195.497C253.145 195.239 253 194.89 253 194.525C253 194.16 253.145 193.81 253.403 193.553C253.661 193.295 254.01 193.15 254.375 193.15H261.708L268.231 177.497C268.336 177.246 268.512 177.031 268.739 176.88C268.965 176.73 269.232 176.649 269.504 176.65Z" fill="#C9FC8C"/>
</g>
<path d="M246.5 314.067L264.812 277.107H244.372V272.347H270.58V277.107L252.436 314.067H246.5ZM281.379 314.067L277.907 310.595L286.867 301.579L277.963 292.675L281.435 289.203L290.339 298.163L299.299 289.203L302.771 292.675L293.811 301.579L302.771 310.595L299.355 314.067L290.339 305.051L281.379 314.067Z" fill="#C9FC8C"/>
<path d="M159.39 405.067V363.347H163.982L187.95 397.059L185.878 397.283V363.347H191.422V405.067H186.83L162.974 371.131L164.878 370.907V405.067H159.39ZM208.966 405.739C206.987 405.739 205.233 405.384 203.702 404.675C202.209 403.928 201.033 402.92 200.174 401.651C199.315 400.344 198.886 398.851 198.886 397.171C198.886 395.565 199.222 394.128 199.894 392.859C200.603 391.552 201.686 390.451 203.142 389.555C204.635 388.659 206.502 388.024 208.742 387.651L219.942 385.803V390.171L209.918 391.851C207.977 392.187 206.558 392.803 205.662 393.699C204.803 394.595 204.374 395.696 204.374 397.003C204.374 398.235 204.859 399.261 205.83 400.083C206.838 400.904 208.089 401.315 209.582 401.315C211.486 401.315 213.129 400.923 214.51 400.139C215.929 399.317 217.03 398.216 217.814 396.835C218.635 395.453 219.046 393.923 219.046 392.243V384.571C219.046 382.928 218.43 381.603 217.198 380.595C216.003 379.549 214.417 379.027 212.438 379.027C210.721 379.027 209.19 379.475 207.846 380.371C206.539 381.229 205.569 382.387 204.934 383.843L200.398 381.491C200.958 380.109 201.854 378.877 203.086 377.795C204.318 376.675 205.755 375.797 207.398 375.163C209.041 374.528 210.758 374.211 212.55 374.211C214.865 374.211 216.899 374.659 218.654 375.555C220.409 376.413 221.771 377.627 222.742 379.195C223.75 380.725 224.254 382.517 224.254 384.571V405.067H219.158V399.355L220.11 399.691C219.475 400.885 218.617 401.931 217.534 402.827C216.451 403.723 215.182 404.432 213.726 404.955C212.27 405.477 210.683 405.739 208.966 405.739ZM240.182 405.067L228.366 374.883H234.19L243.654 400.419H241.638L251.158 374.883H256.982L245.11 405.067H240.182ZM261.641 405.067V374.883H266.849V405.067H261.641ZM261.641 370.067V363.347H266.849V370.067H261.641ZM289.322 417.387C287.194 417.387 285.216 417.051 283.386 416.379C281.594 415.707 280.045 414.773 278.738 413.579C277.469 412.421 276.498 411.059 275.826 409.491L280.698 407.251C281.221 408.669 282.21 409.864 283.666 410.835C285.16 411.843 287.026 412.347 289.266 412.347C290.984 412.347 292.533 412.011 293.914 411.339C295.333 410.704 296.453 409.733 297.274 408.427C298.096 407.157 298.506 405.608 298.506 403.779V397.003L299.458 398.011C298.413 400.064 296.901 401.632 294.922 402.715C292.981 403.797 290.834 404.339 288.482 404.339C285.645 404.339 283.106 403.685 280.866 402.379C278.626 401.035 276.872 399.224 275.602 396.947C274.333 394.632 273.698 392.075 273.698 389.275C273.698 386.437 274.333 383.88 275.602 381.603C276.872 379.325 278.608 377.533 280.81 376.227C283.05 374.883 285.589 374.211 288.426 374.211C290.778 374.211 292.906 374.752 294.81 375.835C296.752 376.88 298.301 378.336 299.458 380.203L298.674 381.603V374.883H303.77V403.779C303.77 406.392 303.154 408.725 301.922 410.779C300.69 412.832 298.973 414.437 296.77 415.595C294.605 416.789 292.122 417.387 289.322 417.387ZM288.93 399.299C290.722 399.299 292.328 398.851 293.746 397.955C295.202 397.059 296.36 395.864 297.218 394.371C298.077 392.84 298.506 391.141 298.506 389.275C298.506 387.445 298.077 385.765 297.218 384.235C296.36 382.704 295.202 381.491 293.746 380.595C292.328 379.699 290.722 379.251 288.93 379.251C287.101 379.251 285.44 379.699 283.946 380.595C282.453 381.491 281.277 382.704 280.418 384.235C279.597 385.728 279.186 387.408 279.186 389.275C279.186 391.141 279.597 392.84 280.418 394.371C281.277 395.864 282.434 397.059 283.89 397.955C285.384 398.851 287.064 399.299 288.93 399.299ZM320.693 405.739C318.714 405.739 316.959 405.384 315.429 404.675C313.935 403.928 312.759 402.92 311.901 401.651C311.042 400.344 310.613 398.851 310.613 397.171C310.613 395.565 310.949 394.128 311.621 392.859C312.33 391.552 313.413 390.451 314.869 389.555C316.362 388.659 318.229 388.024 320.469 387.651L331.669 385.803V390.171L321.645 391.851C319.703 392.187 318.285 392.803 317.389 393.699C316.53 394.595 316.101 395.696 316.101 397.003C316.101 398.235 316.586 399.261 317.557 400.083C318.565 400.904 319.815 401.315 321.309 401.315C323.213 401.315 324.855 400.923 326.237 400.139C327.655 399.317 328.757 398.216 329.541 396.835C330.362 395.453 330.773 393.923 330.773 392.243V384.571C330.773 382.928 330.157 381.603 328.925 380.595C327.73 379.549 326.143 379.027 324.165 379.027C322.447 379.027 320.917 379.475 319.573 380.371C318.266 381.229 317.295 382.387 316.661 383.843L312.125 381.491C312.685 380.109 313.581 378.877 314.812 377.795C316.045 376.675 317.482 375.797 319.125 375.163C320.767 374.528 322.485 374.211 324.276 374.211C326.591 374.211 328.626 374.659 330.381 375.555C332.135 376.413 333.498 377.627 334.469 379.195C335.477 380.725 335.981 382.517 335.981 384.571V405.067H330.885V399.355L331.837 399.691C331.202 400.885 330.343 401.931 329.261 402.827C328.178 403.723 326.909 404.432 325.453 404.955C323.997 405.477 322.41 405.739 320.693 405.739ZM355.773 405.403C352.823 405.403 350.546 404.563 348.941 402.883C347.373 401.203 346.589 398.832 346.589 395.771V379.867H341.101V374.883H342.221C343.565 374.883 344.629 374.472 345.413 373.651C346.197 372.829 346.589 371.747 346.589 370.403V367.939H351.797V374.883H358.573V379.867H351.797V395.603C351.797 396.611 351.946 397.488 352.245 398.235C352.581 398.981 353.122 399.579 353.869 400.027C354.615 400.437 355.605 400.643 356.837 400.643C357.098 400.643 357.415 400.624 357.789 400.587C358.199 400.549 358.573 400.512 358.909 400.475V405.067C358.423 405.179 357.882 405.253 357.285 405.291C356.687 405.365 356.183 405.403 355.773 405.403ZM378.779 405.739C375.867 405.739 373.273 405.048 370.995 403.667C368.718 402.285 366.926 400.4 365.619 398.011C364.313 395.584 363.659 392.877 363.659 389.891C363.659 386.867 364.294 384.179 365.563 381.827C366.87 379.475 368.625 377.627 370.827 376.283C373.067 374.901 375.569 374.211 378.331 374.211C380.571 374.211 382.55 374.621 384.267 375.443C386.022 376.227 387.497 377.309 388.691 378.691C389.923 380.035 390.857 381.584 391.491 383.339C392.163 385.056 392.499 386.848 392.499 388.715C392.499 389.125 392.462 389.592 392.387 390.115C392.35 390.6 392.294 391.067 392.219 391.515H367.467V387.035H389.195L386.731 389.051C387.067 387.109 386.881 385.373 386.171 383.843C385.462 382.312 384.417 381.099 383.035 380.203C381.654 379.307 380.086 378.859 378.331 378.859C376.577 378.859 374.971 379.307 373.515 380.203C372.059 381.099 370.921 382.387 370.099 384.067C369.315 385.709 368.998 387.669 369.147 389.947C368.998 392.149 369.334 394.091 370.155 395.771C371.014 397.413 372.209 398.701 373.739 399.635C375.307 400.531 377.006 400.979 378.835 400.979C380.851 400.979 382.55 400.512 383.931 399.579C385.313 398.645 386.433 397.451 387.291 395.995L391.659 398.235C391.062 399.616 390.129 400.885 388.859 402.043C387.627 403.163 386.153 404.059 384.435 404.731C382.755 405.403 380.87 405.739 378.779 405.739Z" fill="white"/>
<path d="M96.16 475.067V461.657H97.924V475.067H96.16ZM100.708 475.067V465.365H102.346V467.255L102.076 467.093C102.316 466.481 102.7 466.007 103.228 465.671C103.768 465.323 104.398 465.149 105.118 465.149C105.814 465.149 106.432 465.305 106.972 465.617C107.524 465.929 107.956 466.361 108.268 466.913C108.592 467.465 108.754 468.089 108.754 468.785V475.067H107.062V469.325C107.062 468.785 106.966 468.329 106.774 467.957C106.582 467.585 106.306 467.297 105.946 467.093C105.598 466.877 105.196 466.769 104.74 466.769C104.284 466.769 103.876 466.877 103.516 467.093C103.168 467.297 102.892 467.591 102.688 467.975C102.484 468.347 102.382 468.797 102.382 469.325V475.067H100.708ZM115.092 475.175C114.144 475.175 113.412 474.905 112.896 474.365C112.392 473.825 112.14 473.063 112.14 472.079V466.967H110.376V465.365H110.736C111.168 465.365 111.51 465.233 111.762 464.969C112.014 464.705 112.14 464.357 112.14 463.925V463.133H113.814V465.365H115.992V466.967H113.814V472.025C113.814 472.349 113.862 472.631 113.958 472.871C114.066 473.111 114.24 473.303 114.48 473.447C114.72 473.579 115.038 473.645 115.434 473.645C115.518 473.645 115.62 473.639 115.74 473.627C115.872 473.615 115.992 473.603 116.1 473.591V475.067C115.944 475.103 115.77 475.127 115.578 475.139C115.386 475.163 115.224 475.175 115.092 475.175ZM122.487 475.283C121.551 475.283 120.717 475.061 119.985 474.617C119.253 474.173 118.677 473.567 118.257 472.799C117.837 472.019 117.627 471.149 117.627 470.189C117.627 469.217 117.831 468.353 118.239 467.597C118.659 466.841 119.223 466.247 119.931 465.815C120.651 465.371 121.455 465.149 122.343 465.149C123.063 465.149 123.699 465.281 124.251 465.545C124.815 465.797 125.289 466.145 125.673 466.589C126.069 467.021 126.369 467.519 126.573 468.083C126.789 468.635 126.897 469.211 126.897 469.811C126.897 469.943 126.885 470.093 126.861 470.261C126.849 470.417 126.831 470.567 126.807 470.711H118.851V469.271H125.835L125.043 469.919C125.151 469.295 125.091 468.737 124.863 468.245C124.635 467.753 124.299 467.363 123.855 467.075C123.411 466.787 122.907 466.643 122.343 466.643C121.779 466.643 121.263 466.787 120.795 467.075C120.327 467.363 119.961 467.777 119.697 468.317C119.445 468.845 119.343 469.475 119.391 470.207C119.343 470.915 119.451 471.539 119.715 472.079C119.991 472.607 120.375 473.021 120.867 473.321C121.371 473.609 121.917 473.753 122.505 473.753C123.153 473.753 123.699 473.603 124.143 473.303C124.587 473.003 124.947 472.619 125.223 472.151L126.627 472.871C126.435 473.315 126.135 473.723 125.727 474.095C125.331 474.455 124.857 474.743 124.305 474.959C123.765 475.175 123.159 475.283 122.487 475.283ZM129.079 475.067V465.365H130.717V467.147L130.537 466.895C130.765 466.343 131.113 465.935 131.581 465.671C132.049 465.395 132.619 465.257 133.291 465.257H133.885V466.841H133.039C132.355 466.841 131.803 467.057 131.383 467.489C130.963 467.909 130.753 468.509 130.753 469.289V475.067H129.079ZM138.216 475.283C137.58 475.283 137.016 475.169 136.524 474.941C136.044 474.701 135.666 474.377 135.39 473.969C135.114 473.549 134.976 473.069 134.976 472.529C134.976 472.013 135.084 471.551 135.3 471.143C135.528 470.723 135.876 470.369 136.344 470.081C136.824 469.793 137.424 469.589 138.144 469.469L141.744 468.875V470.279L138.522 470.819C137.898 470.927 137.442 471.125 137.154 471.413C136.878 471.701 136.74 472.055 136.74 472.475C136.74 472.871 136.896 473.201 137.208 473.465C137.532 473.729 137.934 473.861 138.414 473.861C139.026 473.861 139.554 473.735 139.998 473.483C140.454 473.219 140.808 472.865 141.06 472.421C141.324 471.977 141.456 471.485 141.456 470.945V468.479C141.456 467.951 141.258 467.525 140.862 467.201C140.478 466.865 139.968 466.697 139.332 466.697C138.78 466.697 138.288 466.841 137.856 467.129C137.436 467.405 137.124 467.777 136.92 468.245L135.462 467.489C135.642 467.045 135.93 466.649 136.326 466.301C136.722 465.941 137.184 465.659 137.712 465.455C138.24 465.251 138.792 465.149 139.368 465.149C140.112 465.149 140.766 465.293 141.33 465.581C141.894 465.857 142.332 466.247 142.644 466.751C142.968 467.243 143.13 467.819 143.13 468.479V475.067H141.492V473.231L141.798 473.339C141.594 473.723 141.318 474.059 140.97 474.347C140.622 474.635 140.214 474.863 139.746 475.031C139.278 475.199 138.768 475.283 138.216 475.283ZM150.226 475.283C149.278 475.283 148.432 475.061 147.688 474.617C146.956 474.173 146.38 473.567 145.96 472.799C145.54 472.031 145.33 471.167 145.33 470.207C145.33 469.235 145.54 468.371 145.96 467.615C146.38 466.859 146.956 466.259 147.688 465.815C148.432 465.371 149.278 465.149 150.226 465.149C150.862 465.149 151.456 465.263 152.008 465.491C152.56 465.719 153.046 466.025 153.466 466.409C153.886 466.793 154.192 467.243 154.384 467.759L152.89 468.479C152.662 467.975 152.314 467.567 151.846 467.255C151.378 466.931 150.838 466.769 150.226 466.769C149.638 466.769 149.104 466.919 148.624 467.219C148.156 467.519 147.784 467.927 147.508 468.443C147.232 468.959 147.094 469.553 147.094 470.225C147.094 470.873 147.232 471.461 147.508 471.989C147.784 472.505 148.156 472.913 148.624 473.213C149.104 473.513 149.638 473.663 150.226 473.663C150.838 473.663 151.378 473.507 151.846 473.195C152.314 472.871 152.662 472.445 152.89 471.917L154.384 472.673C154.192 473.177 153.886 473.627 153.466 474.023C153.046 474.407 152.56 474.713 152.008 474.941C151.456 475.169 150.862 475.283 150.226 475.283ZM160.513 475.175C159.565 475.175 158.833 474.905 158.317 474.365C157.813 473.825 157.561 473.063 157.561 472.079V466.967H155.797V465.365H156.157C156.589 465.365 156.931 465.233 157.183 464.969C157.435 464.705 157.561 464.357 157.561 463.925V463.133H159.235V465.365H161.413V466.967H159.235V472.025C159.235 472.349 159.283 472.631 159.379 472.871C159.487 473.111 159.661 473.303 159.901 473.447C160.141 473.579 160.459 473.645 160.855 473.645C160.939 473.645 161.041 473.639 161.161 473.627C161.293 473.615 161.413 473.603 161.521 473.591V475.067C161.365 475.103 161.191 475.127 160.999 475.139C160.807 475.163 160.645 475.175 160.513 475.175ZM163.708 475.067V465.365H165.382V475.067H163.708ZM163.708 463.817V461.657H165.382V463.817H163.708ZM170.68 475.067L166.882 465.365H168.754L171.796 473.573H171.148L174.208 465.365H176.08L172.264 475.067H170.68ZM181.865 475.283C180.929 475.283 180.095 475.061 179.363 474.617C178.631 474.173 178.055 473.567 177.635 472.799C177.215 472.019 177.005 471.149 177.005 470.189C177.005 469.217 177.209 468.353 177.617 467.597C178.037 466.841 178.601 466.247 179.309 465.815C180.029 465.371 180.833 465.149 181.721 465.149C182.441 465.149 183.077 465.281 183.629 465.545C184.193 465.797 184.667 466.145 185.051 466.589C185.447 467.021 185.747 467.519 185.951 468.083C186.167 468.635 186.275 469.211 186.275 469.811C186.275 469.943 186.263 470.093 186.239 470.261C186.227 470.417 186.209 470.567 186.185 470.711H178.229V469.271H185.213L184.421 469.919C184.529 469.295 184.469 468.737 184.241 468.245C184.013 467.753 183.677 467.363 183.233 467.075C182.789 466.787 182.285 466.643 181.721 466.643C181.157 466.643 180.641 466.787 180.173 467.075C179.705 467.363 179.339 467.777 179.075 468.317C178.823 468.845 178.721 469.475 178.769 470.207C178.721 470.915 178.829 471.539 179.093 472.079C179.369 472.607 179.753 473.021 180.245 473.321C180.749 473.609 181.295 473.753 181.883 473.753C182.531 473.753 183.077 473.603 183.521 473.303C183.965 473.003 184.325 472.619 184.601 472.151L186.005 472.871C185.813 473.315 185.513 473.723 185.105 474.095C184.709 474.455 184.235 474.743 183.683 474.959C183.143 475.175 182.537 475.283 181.865 475.283ZM191.767 475.067V461.657H193.387L198.409 468.803H197.581L202.567 461.657H204.187V475.067H202.405V463.889L203.035 464.087L198.049 471.107H197.905L192.973 464.087L193.531 463.889V475.067H191.767ZM209.812 475.283C209.176 475.283 208.612 475.169 208.12 474.941C207.64 474.701 207.262 474.377 206.986 473.969C206.71 473.549 206.572 473.069 206.572 472.529C206.572 472.013 206.68 471.551 206.896 471.143C207.124 470.723 207.472 470.369 207.94 470.081C208.42 469.793 209.02 469.589 209.74 469.469L213.34 468.875V470.279L210.118 470.819C209.494 470.927 209.038 471.125 208.75 471.413C208.474 471.701 208.336 472.055 208.336 472.475C208.336 472.871 208.492 473.201 208.804 473.465C209.128 473.729 209.53 473.861 210.01 473.861C210.622 473.861 211.15 473.735 211.594 473.483C212.05 473.219 212.404 472.865 212.656 472.421C212.92 471.977 213.052 471.485 213.052 470.945V468.479C213.052 467.951 212.854 467.525 212.458 467.201C212.074 466.865 211.564 466.697 210.928 466.697C210.376 466.697 209.884 466.841 209.452 467.129C209.032 467.405 208.72 467.777 208.516 468.245L207.058 467.489C207.238 467.045 207.526 466.649 207.922 466.301C208.318 465.941 208.78 465.659 209.308 465.455C209.836 465.251 210.388 465.149 210.964 465.149C211.708 465.149 212.362 465.293 212.926 465.581C213.49 465.857 213.928 466.247 214.24 466.751C214.564 467.243 214.726 467.819 214.726 468.479V475.067H213.088V473.231L213.394 473.339C213.19 473.723 212.914 474.059 212.566 474.347C212.218 474.635 211.81 474.863 211.342 475.031C210.874 475.199 210.364 475.283 209.812 475.283ZM217.321 478.667V465.365H218.959V467.453L218.743 467.039C219.103 466.463 219.595 466.007 220.219 465.671C220.843 465.323 221.557 465.149 222.361 465.149C223.273 465.149 224.089 465.371 224.809 465.815C225.541 466.259 226.117 466.865 226.537 467.633C226.957 468.389 227.167 469.253 227.167 470.225C227.167 471.173 226.957 472.031 226.537 472.799C226.117 473.567 225.541 474.173 224.809 474.617C224.089 475.061 223.267 475.283 222.343 475.283C221.563 475.283 220.849 475.109 220.201 474.761C219.565 474.413 219.073 473.921 218.725 473.285L218.995 472.997V478.667H217.321ZM222.217 473.663C222.829 473.663 223.375 473.513 223.855 473.213C224.335 472.913 224.707 472.505 224.971 471.989C225.247 471.461 225.385 470.873 225.385 470.225C225.385 469.553 225.247 468.965 224.971 468.461C224.707 467.945 224.335 467.537 223.855 467.237C223.375 466.925 222.829 466.769 222.217 466.769C221.605 466.769 221.053 466.919 220.561 467.219C220.081 467.519 219.697 467.933 219.409 468.461C219.133 468.977 218.995 469.565 218.995 470.225C218.995 470.873 219.133 471.461 219.409 471.989C219.697 472.505 220.081 472.913 220.561 473.213C221.053 473.513 221.605 473.663 222.217 473.663ZM232.836 475.283C231.864 475.283 231.018 475.043 230.298 474.563C229.578 474.083 229.068 473.435 228.768 472.619L230.1 471.971C230.376 472.547 230.754 473.003 231.234 473.339C231.714 473.675 232.248 473.843 232.836 473.843C233.364 473.843 233.802 473.717 234.15 473.465C234.498 473.213 234.672 472.883 234.672 472.475C234.672 472.187 234.588 471.959 234.42 471.791C234.264 471.611 234.072 471.473 233.844 471.377C233.616 471.269 233.406 471.191 233.214 471.143L231.756 470.729C230.88 470.477 230.238 470.117 229.83 469.649C229.434 469.181 229.236 468.635 229.236 468.011C229.236 467.435 229.38 466.937 229.668 466.517C229.968 466.085 230.37 465.749 230.874 465.509C231.39 465.269 231.966 465.149 232.602 465.149C233.454 465.149 234.216 465.365 234.888 465.797C235.572 466.229 236.058 466.835 236.346 467.615L234.978 468.245C234.762 467.741 234.438 467.345 234.006 467.057C233.574 466.757 233.088 466.607 232.548 466.607C232.056 466.607 231.666 466.733 231.378 466.985C231.09 467.225 230.946 467.531 230.946 467.903C230.946 468.179 231.018 468.407 231.162 468.587C231.306 468.755 231.48 468.887 231.684 468.983C231.888 469.067 232.086 469.139 232.278 469.199L233.862 469.667C234.654 469.895 235.266 470.249 235.698 470.729C236.142 471.209 236.364 471.785 236.364 472.457C236.364 472.997 236.214 473.483 235.914 473.915C235.614 474.347 235.2 474.683 234.672 474.923C234.144 475.163 233.532 475.283 232.836 475.283ZM242.693 475.067V466.967H240.839V465.365H242.693V464.681C242.693 463.985 242.843 463.397 243.143 462.917C243.455 462.437 243.863 462.071 244.367 461.819C244.883 461.567 245.453 461.441 246.077 461.441C246.209 461.441 246.353 461.453 246.509 461.477C246.677 461.489 246.815 461.507 246.923 461.531V463.025C246.827 463.001 246.713 462.989 246.581 462.989C246.449 462.977 246.347 462.971 246.275 462.971C245.723 462.971 245.267 463.103 244.907 463.367C244.559 463.631 244.385 464.069 244.385 464.681V465.365H246.689V466.967H244.385V475.067H242.693ZM252.972 475.283C252.036 475.283 251.19 475.067 250.434 474.635C249.678 474.191 249.078 473.585 248.634 472.817C248.19 472.049 247.968 471.179 247.968 470.207C247.968 469.235 248.184 468.371 248.616 467.615C249.06 466.859 249.66 466.259 250.416 465.815C251.172 465.371 252.024 465.149 252.972 465.149C253.908 465.149 254.754 465.371 255.51 465.815C256.266 466.247 256.86 466.841 257.292 467.597C257.736 468.353 257.958 469.223 257.958 470.207C257.958 471.191 257.73 472.067 257.274 472.835C256.818 473.591 256.212 474.191 255.456 474.635C254.712 475.067 253.884 475.283 252.972 475.283ZM252.972 473.663C253.572 473.663 254.112 473.513 254.592 473.213C255.084 472.913 255.468 472.499 255.744 471.971C256.032 471.443 256.176 470.855 256.176 470.207C256.176 469.547 256.032 468.965 255.744 468.461C255.468 467.945 255.084 467.537 254.592 467.237C254.112 466.925 253.572 466.769 252.972 466.769C252.36 466.769 251.808 466.925 251.316 467.237C250.836 467.537 250.452 467.945 250.164 468.461C249.876 468.965 249.732 469.547 249.732 470.207C249.732 470.855 249.876 471.443 250.164 471.971C250.452 472.499 250.836 472.913 251.316 473.213C251.808 473.513 252.36 473.663 252.972 473.663ZM260.142 475.067V465.365H261.78V467.147L261.6 466.895C261.828 466.343 262.176 465.935 262.644 465.671C263.112 465.395 263.682 465.257 264.354 465.257H264.948V466.841H264.102C263.418 466.841 262.866 467.057 262.446 467.489C262.026 467.909 261.816 468.509 261.816 469.289V475.067H260.142ZM274.352 475.283C273.5 475.283 272.72 475.127 272.012 474.815C271.304 474.491 270.704 474.053 270.212 473.501C269.72 472.949 269.366 472.331 269.15 471.647L270.68 471.017C271.004 471.881 271.484 472.547 272.12 473.015C272.768 473.471 273.524 473.699 274.388 473.699C274.916 473.699 275.378 473.615 275.774 473.447C276.17 473.279 276.476 473.045 276.692 472.745C276.92 472.433 277.034 472.073 277.034 471.665C277.034 471.101 276.872 470.657 276.548 470.333C276.236 469.997 275.774 469.745 275.162 469.577L272.696 468.821C271.724 468.521 270.98 468.047 270.464 467.399C269.948 466.751 269.69 466.007 269.69 465.167C269.69 464.435 269.864 463.793 270.212 463.241C270.572 462.677 271.064 462.239 271.688 461.927C272.324 461.603 273.044 461.441 273.848 461.441C274.652 461.441 275.378 461.585 276.026 461.873C276.686 462.161 277.244 462.551 277.7 463.043C278.156 463.523 278.492 464.075 278.708 464.699L277.196 465.329C276.908 464.573 276.476 464.003 275.9 463.619C275.324 463.223 274.646 463.025 273.866 463.025C273.386 463.025 272.96 463.109 272.588 463.277C272.228 463.433 271.946 463.667 271.742 463.979C271.55 464.279 271.454 464.639 271.454 465.059C271.454 465.551 271.61 465.989 271.922 466.373C272.234 466.757 272.708 467.051 273.344 467.255L275.594 467.921C276.65 468.245 277.448 468.707 277.988 469.307C278.528 469.907 278.798 470.651 278.798 471.539C278.798 472.271 278.606 472.919 278.222 473.483C277.85 474.047 277.328 474.491 276.656 474.815C275.996 475.127 275.228 475.283 274.352 475.283ZM285.647 475.283C284.711 475.283 283.877 475.061 283.145 474.617C282.413 474.173 281.837 473.567 281.417 472.799C280.997 472.019 280.787 471.149 280.787 470.189C280.787 469.217 280.991 468.353 281.399 467.597C281.819 466.841 282.383 466.247 283.091 465.815C283.811 465.371 284.615 465.149 285.503 465.149C286.223 465.149 286.859 465.281 287.411 465.545C287.975 465.797 288.449 466.145 288.833 466.589C289.229 467.021 289.529 467.519 289.733 468.083C289.949 468.635 290.057 469.211 290.057 469.811C290.057 469.943 290.045 470.093 290.021 470.261C290.009 470.417 289.991 470.567 289.967 470.711H282.011V469.271H288.995L288.203 469.919C288.311 469.295 288.251 468.737 288.023 468.245C287.795 467.753 287.459 467.363 287.015 467.075C286.571 466.787 286.067 466.643 285.503 466.643C284.939 466.643 284.423 466.787 283.955 467.075C283.487 467.363 283.121 467.777 282.857 468.317C282.605 468.845 282.503 469.475 282.551 470.207C282.503 470.915 282.611 471.539 282.875 472.079C283.151 472.607 283.535 473.021 284.027 473.321C284.531 473.609 285.077 473.753 285.665 473.753C286.313 473.753 286.859 473.603 287.303 473.303C287.747 473.003 288.107 472.619 288.383 472.151L289.787 472.871C289.595 473.315 289.295 473.723 288.887 474.095C288.491 474.455 288.017 474.743 287.465 474.959C286.925 475.175 286.319 475.283 285.647 475.283ZM294.96 475.283C294.324 475.283 293.76 475.169 293.268 474.941C292.788 474.701 292.41 474.377 292.134 473.969C291.858 473.549 291.72 473.069 291.72 472.529C291.72 472.013 291.828 471.551 292.044 471.143C292.272 470.723 292.62 470.369 293.088 470.081C293.568 469.793 294.168 469.589 294.888 469.469L298.488 468.875V470.279L295.266 470.819C294.642 470.927 294.186 471.125 293.898 471.413C293.622 471.701 293.484 472.055 293.484 472.475C293.484 472.871 293.64 473.201 293.952 473.465C294.276 473.729 294.678 473.861 295.158 473.861C295.77 473.861 296.298 473.735 296.742 473.483C297.198 473.219 297.552 472.865 297.804 472.421C298.068 471.977 298.2 471.485 298.2 470.945V468.479C298.2 467.951 298.002 467.525 297.606 467.201C297.222 466.865 296.712 466.697 296.076 466.697C295.524 466.697 295.032 466.841 294.6 467.129C294.18 467.405 293.868 467.777 293.664 468.245L292.206 467.489C292.386 467.045 292.674 466.649 293.07 466.301C293.466 465.941 293.928 465.659 294.456 465.455C294.984 465.251 295.536 465.149 296.112 465.149C296.856 465.149 297.51 465.293 298.074 465.581C298.638 465.857 299.076 466.247 299.388 466.751C299.712 467.243 299.874 467.819 299.874 468.479V475.067H298.236V473.231L298.542 473.339C298.338 473.723 298.062 474.059 297.714 474.347C297.366 474.635 296.958 474.863 296.49 475.031C296.022 475.199 295.512 475.283 294.96 475.283ZM302.47 475.067V465.365H304.108V467.345L303.874 467.039C304.114 466.427 304.498 465.959 305.026 465.635C305.554 465.311 306.148 465.149 306.808 465.149C307.564 465.149 308.242 465.359 308.842 465.779C309.454 466.199 309.874 466.751 310.102 467.435L309.634 467.453C309.886 466.697 310.312 466.127 310.912 465.743C311.512 465.347 312.178 465.149 312.91 465.149C313.582 465.149 314.188 465.305 314.728 465.617C315.28 465.929 315.718 466.361 316.042 466.913C316.366 467.465 316.528 468.089 316.528 468.785V475.067H314.836V469.325C314.836 468.785 314.74 468.329 314.548 467.957C314.356 467.585 314.092 467.297 313.756 467.093C313.432 466.877 313.048 466.769 312.604 466.769C312.172 466.769 311.782 466.877 311.434 467.093C311.098 467.297 310.828 467.591 310.624 467.975C310.432 468.347 310.336 468.797 310.336 469.325V475.067H308.644V469.325C308.644 468.785 308.548 468.329 308.356 467.957C308.164 467.585 307.9 467.297 307.564 467.093C307.24 466.877 306.856 466.769 306.412 466.769C305.98 466.769 305.59 466.877 305.242 467.093C304.906 467.297 304.636 467.591 304.432 467.975C304.24 468.347 304.144 468.797 304.144 469.325V475.067H302.47ZM318.905 475.067V461.441H320.579V475.067H318.905ZM327.641 475.283C326.705 475.283 325.871 475.061 325.139 474.617C324.407 474.173 323.831 473.567 323.411 472.799C322.991 472.019 322.781 471.149 322.781 470.189C322.781 469.217 322.985 468.353 323.393 467.597C323.813 466.841 324.377 466.247 325.085 465.815C325.805 465.371 326.609 465.149 327.497 465.149C328.217 465.149 328.853 465.281 329.405 465.545C329.969 465.797 330.443 466.145 330.827 466.589C331.223 467.021 331.523 467.519 331.727 468.083C331.943 468.635 332.051 469.211 332.051 469.811C332.051 469.943 332.039 470.093 332.015 470.261C332.003 470.417 331.985 470.567 331.961 470.711H324.005V469.271H330.989L330.197 469.919C330.305 469.295 330.245 468.737 330.017 468.245C329.789 467.753 329.453 467.363 329.009 467.075C328.565 466.787 328.061 466.643 327.497 466.643C326.933 466.643 326.417 466.787 325.949 467.075C325.481 467.363 325.115 467.777 324.851 468.317C324.599 468.845 324.497 469.475 324.545 470.207C324.497 470.915 324.605 471.539 324.869 472.079C325.145 472.607 325.529 473.021 326.021 473.321C326.525 473.609 327.071 473.753 327.659 473.753C328.307 473.753 328.853 473.603 329.297 473.303C329.741 473.003 330.101 472.619 330.377 472.151L331.781 472.871C331.589 473.315 331.289 473.723 330.881 474.095C330.485 474.455 330.011 474.743 329.459 474.959C328.919 475.175 328.313 475.283 327.641 475.283ZM337.708 475.283C336.736 475.283 335.89 475.043 335.17 474.563C334.45 474.083 333.94 473.435 333.64 472.619L334.972 471.971C335.248 472.547 335.626 473.003 336.106 473.339C336.586 473.675 337.12 473.843 337.708 473.843C338.236 473.843 338.674 473.717 339.022 473.465C339.37 473.213 339.544 472.883 339.544 472.475C339.544 472.187 339.46 471.959 339.292 471.791C339.136 471.611 338.944 471.473 338.716 471.377C338.488 471.269 338.278 471.191 338.086 471.143L336.628 470.729C335.752 470.477 335.11 470.117 334.702 469.649C334.306 469.181 334.108 468.635 334.108 468.011C334.108 467.435 334.252 466.937 334.54 466.517C334.84 466.085 335.242 465.749 335.746 465.509C336.262 465.269 336.838 465.149 337.474 465.149C338.326 465.149 339.088 465.365 339.76 465.797C340.444 466.229 340.93 466.835 341.218 467.615L339.85 468.245C339.634 467.741 339.31 467.345 338.878 467.057C338.446 466.757 337.96 466.607 337.42 466.607C336.928 466.607 336.538 466.733 336.25 466.985C335.962 467.225 335.818 467.531 335.818 467.903C335.818 468.179 335.89 468.407 336.034 468.587C336.178 468.755 336.352 468.887 336.556 468.983C336.76 469.067 336.958 469.139 337.15 469.199L338.734 469.667C339.526 469.895 340.138 470.249 340.57 470.729C341.014 471.209 341.236 471.785 341.236 472.457C341.236 472.997 341.086 473.483 340.786 473.915C340.486 474.347 340.072 474.683 339.544 474.923C339.016 475.163 338.404 475.283 337.708 475.283ZM346.901 475.283C345.929 475.283 345.083 475.043 344.363 474.563C343.643 474.083 343.133 473.435 342.833 472.619L344.165 471.971C344.441 472.547 344.819 473.003 345.299 473.339C345.779 473.675 346.313 473.843 346.901 473.843C347.429 473.843 347.867 473.717 348.215 473.465C348.563 473.213 348.737 472.883 348.737 472.475C348.737 472.187 348.653 471.959 348.485 471.791C348.329 471.611 348.137 471.473 347.909 471.377C347.681 471.269 347.471 471.191 347.279 471.143L345.821 470.729C344.945 470.477 344.303 470.117 343.895 469.649C343.499 469.181 343.301 468.635 343.301 468.011C343.301 467.435 343.445 466.937 343.733 466.517C344.033 466.085 344.435 465.749 344.939 465.509C345.455 465.269 346.031 465.149 346.667 465.149C347.519 465.149 348.281 465.365 348.953 465.797C349.637 466.229 350.123 466.835 350.411 467.615L349.043 468.245C348.827 467.741 348.503 467.345 348.071 467.057C347.639 466.757 347.153 466.607 346.613 466.607C346.121 466.607 345.731 466.733 345.443 466.985C345.155 467.225 345.011 467.531 345.011 467.903C345.011 468.179 345.083 468.407 345.227 468.587C345.371 468.755 345.545 468.887 345.749 468.983C345.953 469.067 346.151 469.139 346.343 469.199L347.927 469.667C348.719 469.895 349.331 470.249 349.763 470.729C350.207 471.209 350.429 471.785 350.429 472.457C350.429 472.997 350.279 473.483 349.979 473.915C349.679 474.347 349.265 474.683 348.737 474.923C348.209 475.163 347.597 475.283 346.901 475.283ZM355.93 475.067V461.657H364.66V463.277H357.694V467.525H364.3V469.145H357.694V473.447H364.66V475.067H355.93ZM365.55 475.067L368.952 470.207L365.568 465.365H367.584L370.482 469.577H369.456L372.318 465.365H374.352L370.968 470.207L374.334 475.067H372.318L369.456 470.855H370.464L367.602 475.067H365.55ZM375.841 478.667V465.365H377.479V467.453L377.263 467.039C377.623 466.463 378.115 466.007 378.739 465.671C379.363 465.323 380.077 465.149 380.881 465.149C381.793 465.149 382.609 465.371 383.329 465.815C384.061 466.259 384.637 466.865 385.057 467.633C385.477 468.389 385.687 469.253 385.687 470.225C385.687 471.173 385.477 472.031 385.057 472.799C384.637 473.567 384.061 474.173 383.329 474.617C382.609 475.061 381.787 475.283 380.863 475.283C380.083 475.283 379.369 475.109 378.721 474.761C378.085 474.413 377.593 473.921 377.245 473.285L377.515 472.997V478.667H375.841ZM380.737 473.663C381.349 473.663 381.895 473.513 382.375 473.213C382.855 472.913 383.227 472.505 383.491 471.989C383.767 471.461 383.905 470.873 383.905 470.225C383.905 469.553 383.767 468.965 383.491 468.461C383.227 467.945 382.855 467.537 382.375 467.237C381.895 466.925 381.349 466.769 380.737 466.769C380.125 466.769 379.573 466.919 379.081 467.219C378.601 467.519 378.217 467.933 377.929 468.461C377.653 468.977 377.515 469.565 377.515 470.225C377.515 470.873 377.653 471.461 377.929 471.989C378.217 472.505 378.601 472.913 379.081 473.213C379.573 473.513 380.125 473.663 380.737 473.663ZM387.882 475.067V461.441H389.556V475.067H387.882ZM396.761 475.283C395.825 475.283 394.979 475.067 394.223 474.635C393.467 474.191 392.867 473.585 392.423 472.817C391.979 472.049 391.757 471.179 391.757 470.207C391.757 469.235 391.973 468.371 392.405 467.615C392.849 466.859 393.449 466.259 394.205 465.815C394.961 465.371 395.813 465.149 396.761 465.149C397.697 465.149 398.543 465.371 399.299 465.815C400.055 466.247 400.649 466.841 401.081 467.597C401.525 468.353 401.747 469.223 401.747 470.207C401.747 471.191 401.519 472.067 401.063 472.835C400.607 473.591 400.001 474.191 399.245 474.635C398.501 475.067 397.673 475.283 396.761 475.283ZM396.761 473.663C397.361 473.663 397.901 473.513 398.381 473.213C398.873 472.913 399.257 472.499 399.533 471.971C399.821 471.443 399.965 470.855 399.965 470.207C399.965 469.547 399.821 468.965 399.533 468.461C399.257 467.945 398.873 467.537 398.381 467.237C397.901 466.925 397.361 466.769 396.761 466.769C396.149 466.769 395.597 466.925 395.105 467.237C394.625 467.537 394.241 467.945 393.953 468.461C393.665 468.965 393.521 469.547 393.521 470.207C393.521 470.855 393.665 471.443 393.953 471.971C394.241 472.499 394.625 472.913 395.105 473.213C395.597 473.513 396.149 473.663 396.761 473.663ZM403.931 475.067V465.365H405.569V467.147L405.389 466.895C405.617 466.343 405.965 465.935 406.433 465.671C406.901 465.395 407.471 465.257 408.143 465.257H408.737V466.841H407.891C407.207 466.841 406.655 467.057 406.235 467.489C405.815 467.909 405.605 468.509 405.605 469.289V475.067H403.931ZM413.068 475.283C412.432 475.283 411.868 475.169 411.376 474.941C410.896 474.701 410.518 474.377 410.242 473.969C409.966 473.549 409.828 473.069 409.828 472.529C409.828 472.013 409.936 471.551 410.152 471.143C410.38 470.723 410.728 470.369 411.196 470.081C411.676 469.793 412.276 469.589 412.996 469.469L416.596 468.875V470.279L413.374 470.819C412.75 470.927 412.294 471.125 412.006 471.413C411.73 471.701 411.592 472.055 411.592 472.475C411.592 472.871 411.748 473.201 412.06 473.465C412.384 473.729 412.786 473.861 413.266 473.861C413.878 473.861 414.406 473.735 414.85 473.483C415.306 473.219 415.66 472.865 415.912 472.421C416.176 471.977 416.308 471.485 416.308 470.945V468.479C416.308 467.951 416.11 467.525 415.714 467.201C415.33 466.865 414.82 466.697 414.184 466.697C413.632 466.697 413.14 466.841 412.708 467.129C412.288 467.405 411.976 467.777 411.772 468.245L410.314 467.489C410.494 467.045 410.782 466.649 411.178 466.301C411.574 465.941 412.036 465.659 412.564 465.455C413.092 465.251 413.644 465.149 414.22 465.149C414.964 465.149 415.618 465.293 416.182 465.581C416.746 465.857 417.184 466.247 417.496 466.751C417.82 467.243 417.982 467.819 417.982 468.479V475.067H416.344V473.231L416.65 473.339C416.446 473.723 416.17 474.059 415.822 474.347C415.474 474.635 415.066 474.863 414.598 475.031C414.13 475.199 413.62 475.283 413.068 475.283ZM424.343 475.175C423.395 475.175 422.663 474.905 422.147 474.365C421.643 473.825 421.391 473.063 421.391 472.079V466.967H419.627V465.365H419.987C420.419 465.365 420.761 465.233 421.013 464.969C421.265 464.705 421.391 464.357 421.391 463.925V463.133H423.065V465.365H425.243V466.967H423.065V472.025C423.065 472.349 423.113 472.631 423.209 472.871C423.317 473.111 423.491 473.303 423.731 473.447C423.971 473.579 424.289 473.645 424.685 473.645C424.769 473.645 424.871 473.639 424.991 473.627C425.123 473.615 425.243 473.603 425.351 473.591V475.067C425.195 475.103 425.021 475.127 424.829 475.139C424.637 475.163 424.475 475.175 424.343 475.175ZM427.538 475.067V465.365H429.212V475.067H427.538ZM427.538 463.817V461.657H429.212V463.817H427.538ZM436.418 475.283C435.482 475.283 434.636 475.067 433.88 474.635C433.124 474.191 432.524 473.585 432.08 472.817C431.636 472.049 431.414 471.179 431.414 470.207C431.414 469.235 431.63 468.371 432.062 467.615C432.506 466.859 433.106 466.259 433.862 465.815C434.618 465.371 435.47 465.149 436.418 465.149C437.354 465.149 438.2 465.371 438.956 465.815C439.712 466.247 440.306 466.841 440.738 467.597C441.182 468.353 441.404 469.223 441.404 470.207C441.404 471.191 441.176 472.067 440.72 472.835C440.264 473.591 439.658 474.191 438.902 474.635C438.158 475.067 437.33 475.283 436.418 475.283ZM436.418 473.663C437.018 473.663 437.558 473.513 438.038 473.213C438.53 472.913 438.914 472.499 439.19 471.971C439.478 471.443 439.622 470.855 439.622 470.207C439.622 469.547 439.478 468.965 439.19 468.461C438.914 467.945 438.53 467.537 438.038 467.237C437.558 466.925 437.018 466.769 436.418 466.769C435.806 466.769 435.254 466.925 434.762 467.237C434.282 467.537 433.898 467.945 433.61 468.461C433.322 468.965 433.178 469.547 433.178 470.207C433.178 470.855 433.322 471.443 433.61 471.971C433.898 472.499 434.282 472.913 434.762 473.213C435.254 473.513 435.806 473.663 436.418 473.663ZM443.587 475.067V465.365H445.225V467.255L444.955 467.093C445.195 466.481 445.579 466.007 446.107 465.671C446.647 465.323 447.277 465.149 447.997 465.149C448.693 465.149 449.311 465.305 449.851 465.617C450.403 465.929 450.835 466.361 451.147 466.913C451.471 467.465 451.633 468.089 451.633 468.785V475.067H449.941V469.325C449.941 468.785 449.845 468.329 449.653 467.957C449.461 467.585 449.185 467.297 448.825 467.093C448.477 466.877 448.075 466.769 447.619 466.769C447.163 466.769 446.755 466.877 446.395 467.093C446.047 467.297 445.771 467.591 445.567 467.975C445.363 468.347 445.261 468.797 445.261 469.325V475.067H443.587ZM454.712 475.067V472.907H456.458V475.067H454.712Z" fill="#8B949E"/>
</g>
<defs>
<clipPath id="clip0_63_722">
<rect y="0.0666504" width="550" height="654" rx="24" fill="white"/>
</clipPath>
<clipPath id="clip1_63_722">
<rect width="44" height="44" fill="white" transform="translate(253 172.067)"/>
</clipPath>
</defs>
</svg>
