<svg width="15" height="14" viewBox="0 0 15 14" fill="none" xmlns="http://www.w3.org/2000/svg">
<g clip-path="url(#clip0_63_686)">
<path d="M5.14641 5.16997L6.91541 3.88473C7.10958 3.74322 7.3495 3.66489 7.60135 3.67337C8.21478 3.68846 8.75347 4.09057 8.94085 4.67766C9.04368 4.99996 9.13745 5.21745 9.22223 5.33012C9.72576 5.99962 10.5269 6.43262 11.4292 6.43262V7.5365C10.2289 7.5365 9.15644 6.98914 8.44781 6.13049L8.06277 8.3139L9.20037 9.26848L10.4274 12.6397L9.39013 13.0172L8.26423 9.92396L6.39303 8.35381C6.09082 8.10952 5.92699 7.71267 5.99925 7.30286L6.27996 5.71085L5.90639 5.98229L4.73241 7.59809L3.83936 6.94929L5.13704 5.16316L5.14641 5.16997ZM8.3935 3.39696C7.78382 3.39696 7.28962 2.90274 7.28962 2.29308C7.28962 1.68343 7.78382 1.18921 8.3935 1.18921C9.00311 1.18921 9.49737 1.68343 9.49737 2.29308C9.49737 2.90274 9.00311 3.39696 8.3935 3.39696ZM6.75336 10.6722L4.97946 12.7863L4.13384 12.0767L5.77595 10.1197L6.18798 8.91634L7.17658 9.74425L6.75336 10.6722Z" fill="#545454"/>
</g>
<defs>
<clipPath id="clip0_63_686">
<rect width="13.2465" height="13.2465" fill="white" transform="translate(0.941895 0.361084)"/>
</clipPath>
</defs>
</svg>
