<svg width="226" height="110" viewBox="0 0 226 110" fill="none" xmlns="http://www.w3.org/2000/svg">
<g filter="url(#filter0_d_63_773)">
<path d="M77 52.3085C77 33.0606 60.884 17.4602 41 17.4602C21.116 17.4602 5 33.0606 5 52.3085V51.4373C5 51.1469 5 52.3085 5.012 52.6686C5.18 68.8207 16.7 82.3361 32.222 86.1055C36.1339 94.38 38.521 97.918 39.8922 99.4208C40.7409 100.351 42.2569 100.342 43.0931 99.4012C44.4497 97.8739 46.8064 94.2802 50.654 85.879C65.726 81.825 76.82 68.5303 76.994 52.6918L77 52.3085Z" fill="white"/>
<path d="M77.4999 52.3163H77.5V52.3085C77.5 32.7693 61.1447 16.9602 41 16.9602C21.1825 16.9602 5.03235 32.2598 4.51289 51.3593C4.5046 51.3688 4.50029 51.3747 4.50026 51.3756L4.50007 51.3839L4.50002 51.388L4.50001 51.3906L4.5 51.3991L4.5 51.4373V52.3085H4.50531C4.50697 52.4553 4.50917 52.589 4.51209 52.6794C4.68438 68.9922 16.2617 82.637 31.8718 86.5342C35.7272 94.6634 38.1107 98.2103 39.5229 99.7578C40.5711 100.907 42.4331 100.897 43.4669 99.7332C44.8639 98.1605 47.2175 94.5573 51.011 86.2999C66.1683 82.1199 77.3176 68.6961 77.494 52.6986C77.494 52.6981 77.494 52.6977 77.494 52.6973L77.4999 52.3163Z" stroke="white"/>
</g>
<path d="M41 90C62.5391 90 80 72.9868 80 52C80 31.0132 62.5391 14 41 14C19.4609 14 2 31.0132 2 52C2 72.9868 19.4609 90 41 90Z" fill="#C9FC8C"/>
<path fill-rule="evenodd" clip-rule="evenodd" d="M44.3472 53.0038C44.3472 51.5531 45.5257 50.3731 46.9734 50.3731C48.4226 50.3731 49.6011 51.5531 49.6011 53.0038C49.6011 54.4546 48.4226 55.6346 46.9734 55.6346C45.5257 55.6346 44.3472 54.4546 44.3472 53.0038ZM40.5411 49.1885C39.0919 49.1885 37.9134 48.0146 37.9134 46.5715C37.9134 45.1223 39.0919 43.9423 40.5411 43.9423C41.9903 43.9423 43.1672 45.1223 43.1672 46.5715C43.1672 48.0146 41.9903 49.1885 40.5411 49.1885ZM40.5411 62.0654C39.0919 62.0654 37.9134 60.8854 37.9134 59.4346C37.9134 57.9915 39.0919 56.8177 40.5411 56.8177C41.9903 56.8177 43.1672 57.9915 43.1672 59.4346C43.1672 60.8854 41.9903 62.0654 40.5411 62.0654ZM34.1072 55.6346C32.658 55.6346 31.4795 54.4546 31.4795 53.0038C31.4795 51.5531 32.658 50.3731 34.1072 50.3731C35.5564 50.3731 36.7334 51.5531 36.7334 53.0038C36.7334 54.4546 35.5564 55.6346 34.1072 55.6346ZM54.5903 65.4962H48.4411C52.578 62.87 55.3365 58.2577 55.3365 53.0038C55.3365 44.8423 48.6996 38.2039 40.5411 38.2039C32.3826 38.2039 25.7441 44.8423 25.7441 53.0038C25.7441 61.1638 32.3811 67.8023 40.5396 67.8038H54.5903C55.2272 67.8038 55.7442 67.2869 55.7442 66.65C55.7442 66.0131 55.2272 65.4962 54.5903 65.4962Z" fill="#080705"/>
<path d="M31.6673 1.00946L33.8528 10.7289L32.0727 11.104L26.4561 5.88024L26.3847 5.89528L27.7603 12.0127L25.6993 12.4469L23.5137 2.72746L25.3224 2.34635L30.9046 7.57239L30.9903 7.55434L29.6158 1.44172L31.6673 1.00946Z" fill="white"/>
<path d="M35.9392 10.3273L35.467 0.376345L42.1731 0.0781565L42.2555 1.81277L37.6535 2.0174L37.766 4.38852L42.0229 4.19924L42.1053 5.93385L37.8483 6.12314L37.9611 8.49912L42.5825 8.29363L42.6648 10.0282L35.9392 10.3273Z" fill="white"/>
<path d="M46.2515 10.3179L44.886 0.0715476L47.165 0.38749L47.7854 7.46134L47.8673 7.47269L50.6823 0.875096L52.6337 1.14562L53.4158 8.25661L53.5025 8.26863L56.151 1.63322L58.4301 1.94916L54.1486 11.4126L52.1153 11.1308L51.1894 4.42704L51.1123 4.41635L48.2848 10.5997L46.2515 10.3179Z" fill="white"/>
<g filter="url(#filter1_d_63_773)">
<rect x="85" y="13.2566" width="84" height="24" rx="12" fill="#080705" shape-rendering="crispEdges"/>
<g clip-path="url(#clip0_63_773)">
<path d="M97 29.2566C99.2091 29.2566 101 27.4657 101 25.2566C101 23.0475 99.2091 21.2566 97 21.2566C94.7909 21.2566 93 23.0475 93 25.2566C93 27.4657 94.7909 29.2566 97 29.2566Z" fill="#B7FF2A"/>
</g>
<path d="M109.752 29.4006C108.912 29.4006 108.176 29.2166 107.544 28.8486C106.92 28.4806 106.428 27.9726 106.068 27.3246C105.716 26.6686 105.54 25.9126 105.54 25.0566C105.54 24.2006 105.716 23.4486 106.068 22.8006C106.428 22.1446 106.92 21.6326 107.544 21.2646C108.176 20.8966 108.912 20.7126 109.752 20.7126C110.584 20.7126 111.316 20.8966 111.948 21.2646C112.58 21.6326 113.072 22.1446 113.424 22.8006C113.776 23.4486 113.952 24.2006 113.952 25.0566C113.952 25.9126 113.776 26.6686 113.424 27.3246C113.072 27.9726 112.58 28.4806 111.948 28.8486C111.316 29.2166 110.584 29.4006 109.752 29.4006ZM109.752 28.0206C110.552 28.0206 111.188 27.7566 111.66 27.2286C112.14 26.7006 112.38 25.9766 112.38 25.0566C112.38 24.1366 112.14 23.4126 111.66 22.8846C111.188 22.3566 110.552 22.0926 109.752 22.0926C108.952 22.0926 108.312 22.3566 107.832 22.8846C107.352 23.4126 107.112 24.1366 107.112 25.0566C107.112 25.9766 107.352 26.7006 107.832 27.2286C108.312 27.7566 108.952 28.0206 109.752 28.0206ZM115.548 29.2566V24.5886H114.732V23.3046H115.548V22.6086C115.548 21.8886 115.728 21.3766 116.088 21.0726C116.456 20.7686 116.952 20.6166 117.576 20.6166H118.236V21.9246H117.816C117.552 21.9246 117.364 21.9766 117.252 22.0806C117.14 22.1846 117.084 22.3606 117.084 22.6086V23.3046H118.368V24.5886H117.084V29.2566H115.548ZM119.861 29.2566V24.5886H119.045V23.3046H119.861V22.6086C119.861 21.8886 120.041 21.3766 120.401 21.0726C120.769 20.7686 121.265 20.6166 121.889 20.6166H122.549V21.9246H122.129C121.865 21.9246 121.677 21.9766 121.565 22.0806C121.453 22.1846 121.397 22.3606 121.397 22.6086V23.3046H122.681V24.5886H121.397V29.2566H119.861ZM126.555 29.4006C125.955 29.4006 125.423 29.2726 124.959 29.0166C124.495 28.7606 124.131 28.4006 123.867 27.9366C123.603 27.4726 123.471 26.9366 123.471 26.3286C123.471 25.7126 123.599 25.1646 123.855 24.6846C124.119 24.2046 124.479 23.8326 124.935 23.5686C125.399 23.2966 125.943 23.1606 126.567 23.1606C127.151 23.1606 127.667 23.2886 128.115 23.5446C128.563 23.8006 128.911 24.1526 129.159 24.6006C129.415 25.0406 129.543 25.5326 129.543 26.0766C129.543 26.1646 129.539 26.2566 129.531 26.3526C129.531 26.4486 129.527 26.5486 129.519 26.6526H124.995C125.027 27.1166 125.187 27.4806 125.475 27.7446C125.771 28.0086 126.127 28.1406 126.543 28.1406C126.855 28.1406 127.115 28.0726 127.323 27.9366C127.539 27.7926 127.699 27.6086 127.803 27.3846H129.363C129.251 27.7606 129.063 28.1046 128.799 28.4166C128.543 28.7206 128.223 28.9606 127.839 29.1366C127.463 29.3126 127.035 29.4006 126.555 29.4006ZM126.567 24.4086C126.191 24.4086 125.859 24.5166 125.571 24.7326C125.283 24.9406 125.099 25.2606 125.019 25.6926H127.983C127.959 25.3006 127.815 24.9886 127.551 24.7566C127.287 24.5246 126.959 24.4086 126.567 24.4086ZM130.835 29.2566V23.3046H132.203L132.347 24.4206C132.563 24.0366 132.855 23.7326 133.223 23.5086C133.599 23.2766 134.039 23.1606 134.543 23.1606V24.7806H134.111C133.775 24.7806 133.475 24.8326 133.211 24.9366C132.947 25.0406 132.739 25.2206 132.587 25.4766C132.443 25.7326 132.371 26.0886 132.371 26.5446V29.2566H130.835ZM138.488 29.2566V20.8566H140.024V28.0566H143.744V29.2566H138.488ZM145.889 22.3806C145.609 22.3806 145.377 22.2966 145.193 22.1286C145.017 21.9606 144.929 21.7486 144.929 21.4926C144.929 21.2366 145.017 21.0286 145.193 20.8686C145.377 20.7006 145.609 20.6166 145.889 20.6166C146.169 20.6166 146.397 20.7006 146.573 20.8686C146.757 21.0286 146.849 21.2366 146.849 21.4926C146.849 21.7486 146.757 21.9606 146.573 22.1286C146.397 22.2966 146.169 22.3806 145.889 22.3806ZM145.121 29.2566V23.3046H146.657V29.2566H145.121ZM149.868 29.2566L147.684 23.3046H149.292L150.804 27.8046L152.316 23.3046H153.924L151.728 29.2566H149.868ZM157.492 29.4006C156.892 29.4006 156.36 29.2726 155.896 29.0166C155.432 28.7606 155.068 28.4006 154.804 27.9366C154.54 27.4726 154.408 26.9366 154.408 26.3286C154.408 25.7126 154.536 25.1646 154.792 24.6846C155.056 24.2046 155.416 23.8326 155.872 23.5686C156.336 23.2966 156.88 23.1606 157.504 23.1606C158.088 23.1606 158.604 23.2886 159.052 23.5446C159.5 23.8006 159.848 24.1526 160.096 24.6006C160.352 25.0406 160.48 25.5326 160.48 26.0766C160.48 26.1646 160.476 26.2566 160.468 26.3526C160.468 26.4486 160.464 26.5486 160.456 26.6526H155.932C155.964 27.1166 156.124 27.4806 156.412 27.7446C156.708 28.0086 157.064 28.1406 157.48 28.1406C157.792 28.1406 158.052 28.0726 158.26 27.9366C158.476 27.7926 158.636 27.6086 158.74 27.3846H160.3C160.188 27.7606 160 28.1046 159.736 28.4166C159.48 28.7206 159.16 28.9606 158.776 29.1366C158.4 29.3126 157.972 29.4006 157.492 29.4006ZM157.504 24.4086C157.128 24.4086 156.796 24.5166 156.508 24.7326C156.22 24.9406 156.036 25.2606 155.956 25.6926H158.92C158.896 25.3006 158.752 24.9886 158.488 24.7566C158.224 24.5246 157.896 24.4086 157.504 24.4086Z" fill="#B7FF2A"/>
</g>
<g filter="url(#filter2_d_63_773)">
<rect x="173" y="13.2566" width="24" height="24" rx="12" fill="url(#paint0_linear_63_773)" shape-rendering="crispEdges"/>
<path d="M185 34.215C181.548 34.215 178.75 31.4168 178.75 27.965C178.75 26.1702 179.507 24.5521 180.718 23.4122C181.837 22.3598 184.583 20.4646 184.167 16.2983C189.167 19.6317 191.667 22.965 186.667 27.965C187.5 27.965 188.75 27.965 190.833 25.9063C191.058 26.551 191.25 27.2438 191.25 27.965C191.25 31.4168 188.452 34.215 185 34.215Z" fill="white"/>
</g>
<path d="M86.36 61.2566V47.2566H95.5V49.3166H88.92V53.1566H94.9V55.1566H88.92V59.1966H95.5V61.2566H86.36ZM97.8625 61.2566V51.3366H100.123L100.323 53.0166C100.629 52.4299 101.069 51.9633 101.643 51.6166C102.229 51.2699 102.916 51.0966 103.703 51.0966C104.929 51.0966 105.883 51.4833 106.562 52.2566C107.242 53.0299 107.582 54.1633 107.582 55.6566V61.2566H105.023V55.8966C105.023 55.0433 104.849 54.3899 104.503 53.9366C104.156 53.4833 103.616 53.2566 102.883 53.2566C102.163 53.2566 101.569 53.5099 101.103 54.0166C100.649 54.5233 100.423 55.2299 100.423 56.1366V61.2566H97.8625ZM114.45 61.2566C113.41 61.2566 112.577 61.0033 111.95 60.4966C111.324 59.9899 111.01 59.0899 111.01 57.7966V53.4766H109.31V51.3366H111.01L111.31 48.6766H113.57V51.3366H116.25V53.4766H113.57V57.8166C113.57 58.2966 113.67 58.6299 113.87 58.8166C114.084 58.9899 114.444 59.0766 114.95 59.0766H116.19V61.2566H114.45ZM123.015 61.4966C122.015 61.4966 121.128 61.2833 120.355 60.8566C119.581 60.4299 118.975 59.8299 118.535 59.0566C118.095 58.2833 117.875 57.3899 117.875 56.3766C117.875 55.3499 118.088 54.4366 118.515 53.6366C118.955 52.8366 119.555 52.2166 120.315 51.7766C121.088 51.3233 121.995 51.0966 123.035 51.0966C124.008 51.0966 124.868 51.3099 125.615 51.7366C126.361 52.1633 126.941 52.7499 127.355 53.4966C127.781 54.2299 127.995 55.0499 127.995 55.9566C127.995 56.1033 127.988 56.2566 127.975 56.4166C127.975 56.5766 127.968 56.7433 127.955 56.9166H120.415C120.468 57.6899 120.735 58.2966 121.215 58.7366C121.708 59.1766 122.301 59.3966 122.995 59.3966C123.515 59.3966 123.948 59.2833 124.295 59.0566C124.655 58.8166 124.921 58.5099 125.095 58.1366H127.695C127.508 58.7633 127.195 59.3366 126.755 59.8566C126.328 60.3633 125.795 60.7633 125.155 61.0566C124.528 61.3499 123.815 61.4966 123.015 61.4966ZM123.035 53.1766C122.408 53.1766 121.855 53.3566 121.375 53.7166C120.895 54.0633 120.588 54.5966 120.455 55.3166H125.395C125.355 54.6633 125.115 54.1433 124.675 53.7566C124.235 53.3699 123.688 53.1766 123.035 53.1766ZM130.148 61.2566V51.3366H132.428L132.668 53.1966C133.028 52.5566 133.514 52.0499 134.128 51.6766C134.754 51.2899 135.488 51.0966 136.328 51.0966V53.7966H135.608C135.048 53.7966 134.548 53.8833 134.108 54.0566C133.668 54.2299 133.321 54.5299 133.068 54.9566C132.828 55.3833 132.708 55.9766 132.708 56.7366V61.2566H130.148ZM142.497 61.2566C141.457 61.2566 140.624 61.0033 139.997 60.4966C139.371 59.9899 139.057 59.0899 139.057 57.7966V53.4766H137.357V51.3366H139.057L139.357 48.6766H141.617V51.3366H144.297V53.4766H141.617V57.8166C141.617 58.2966 141.717 58.6299 141.917 58.8166C142.131 58.9899 142.491 59.0766 142.997 59.0766H144.237V61.2566H142.497ZM149.915 61.4966C149.062 61.4966 148.362 61.3633 147.815 61.0966C147.269 60.8166 146.862 60.4499 146.595 59.9966C146.329 59.5433 146.195 59.0433 146.195 58.4966C146.195 57.5766 146.555 56.8299 147.275 56.2566C147.995 55.6833 149.075 55.3966 150.515 55.3966H153.035V55.1566C153.035 54.4766 152.842 53.9766 152.455 53.6566C152.069 53.3366 151.589 53.1766 151.015 53.1766C150.495 53.1766 150.042 53.3033 149.655 53.5566C149.269 53.7966 149.029 54.1566 148.935 54.6366H146.435C146.502 53.9166 146.742 53.2899 147.155 52.7566C147.582 52.2233 148.129 51.8166 148.795 51.5366C149.462 51.2433 150.209 51.0966 151.035 51.0966C152.449 51.0966 153.562 51.4499 154.375 52.1566C155.189 52.8633 155.595 53.8633 155.595 55.1566V61.2566H153.415L153.175 59.6566C152.882 60.1899 152.469 60.6299 151.935 60.9766C151.415 61.3233 150.742 61.4966 149.915 61.4966ZM150.495 59.4966C151.229 59.4966 151.795 59.2566 152.195 58.7766C152.609 58.2966 152.869 57.7033 152.975 56.9966H150.795C150.115 56.9966 149.629 57.1233 149.335 57.3766C149.042 57.6166 148.895 57.9166 148.895 58.2766C148.895 58.6633 149.042 58.9633 149.335 59.1766C149.629 59.3899 150.015 59.4966 150.495 59.4966ZM159.418 49.7966C158.952 49.7966 158.565 49.6566 158.258 49.3766C157.965 49.0966 157.818 48.7433 157.818 48.3166C157.818 47.8899 157.965 47.5433 158.258 47.2766C158.565 46.9966 158.952 46.8566 159.418 46.8566C159.885 46.8566 160.265 46.9966 160.558 47.2766C160.865 47.5433 161.018 47.8899 161.018 48.3166C161.018 48.7433 160.865 49.0966 160.558 49.3766C160.265 49.6566 159.885 49.7966 159.418 49.7966ZM158.138 61.2566V51.3366H160.698V61.2566H158.138ZM163.37 61.2566V51.3366H165.63L165.83 53.0166C166.137 52.4299 166.577 51.9633 167.15 51.6166C167.737 51.2699 168.424 51.0966 169.21 51.0966C170.437 51.0966 171.39 51.4833 172.07 52.2566C172.75 53.0299 173.09 54.1633 173.09 55.6566V61.2566H170.53V55.8966C170.53 55.0433 170.357 54.3899 170.01 53.9366C169.664 53.4833 169.124 53.2566 168.39 53.2566C167.67 53.2566 167.077 53.5099 166.61 54.0166C166.157 54.5233 165.93 55.2299 165.93 56.1366V61.2566H163.37ZM175.538 61.2566V51.3366H177.798L178.018 52.6766C178.338 52.1966 178.758 51.8166 179.278 51.5366C179.812 51.2433 180.425 51.0966 181.118 51.0966C182.652 51.0966 183.738 51.6899 184.378 52.8766C184.738 52.3299 185.218 51.8966 185.818 51.5766C186.432 51.2566 187.098 51.0966 187.818 51.0966C189.112 51.0966 190.105 51.4833 190.798 52.2566C191.492 53.0299 191.838 54.1633 191.838 55.6566V61.2566H189.278V55.8966C189.278 55.0433 189.112 54.3899 188.778 53.9366C188.458 53.4833 187.958 53.2566 187.278 53.2566C186.585 53.2566 186.025 53.5099 185.598 54.0166C185.185 54.5233 184.978 55.2299 184.978 56.1366V61.2566H182.418V55.8966C182.418 55.0433 182.252 54.3899 181.918 53.9366C181.585 53.4833 181.072 53.2566 180.378 53.2566C179.698 53.2566 179.145 53.5099 178.718 54.0166C178.305 54.5233 178.098 55.2299 178.098 56.1366V61.2566H175.538ZM199.089 61.4966C198.089 61.4966 197.202 61.2833 196.429 60.8566C195.655 60.4299 195.049 59.8299 194.609 59.0566C194.169 58.2833 193.949 57.3899 193.949 56.3766C193.949 55.3499 194.162 54.4366 194.589 53.6366C195.029 52.8366 195.629 52.2166 196.389 51.7766C197.162 51.3233 198.069 51.0966 199.109 51.0966C200.082 51.0966 200.942 51.3099 201.689 51.7366C202.435 52.1633 203.015 52.7499 203.429 53.4966C203.855 54.2299 204.069 55.0499 204.069 55.9566C204.069 56.1033 204.062 56.2566 204.049 56.4166C204.049 56.5766 204.042 56.7433 204.029 56.9166H196.489C196.542 57.6899 196.809 58.2966 197.289 58.7366C197.782 59.1766 198.375 59.3966 199.069 59.3966C199.589 59.3966 200.022 59.2833 200.369 59.0566C200.729 58.8166 200.995 58.5099 201.169 58.1366H203.769C203.582 58.7633 203.269 59.3366 202.829 59.8566C202.402 60.3633 201.869 60.7633 201.229 61.0566C200.602 61.3499 199.889 61.4966 199.089 61.4966ZM199.109 53.1766C198.482 53.1766 197.929 53.3566 197.449 53.7166C196.969 54.0633 196.662 54.5966 196.529 55.3166H201.469C201.429 54.6633 201.189 54.1433 200.749 53.7566C200.309 53.3699 199.762 53.1766 199.109 53.1766ZM206.222 61.2566V51.3366H208.482L208.682 53.0166C208.989 52.4299 209.429 51.9633 210.002 51.6166C210.589 51.2699 211.275 51.0966 212.062 51.0966C213.289 51.0966 214.242 51.4833 214.922 52.2566C215.602 53.0299 215.942 54.1633 215.942 55.6566V61.2566H213.382V55.8966C213.382 55.0433 213.209 54.3899 212.862 53.9366C212.515 53.4833 211.975 53.2566 211.242 53.2566C210.522 53.2566 209.929 53.5099 209.462 54.0166C209.009 54.5233 208.782 55.2299 208.782 56.1366V61.2566H206.222ZM222.81 61.2566C221.77 61.2566 220.937 61.0033 220.31 60.4966C219.683 59.9899 219.37 59.0899 219.37 57.7966V53.4766H217.67V51.3366H219.37L219.67 48.6766H221.93V51.3366H224.61V53.4766H221.93V57.8166C221.93 58.2966 222.03 58.6299 222.23 58.8166C222.443 58.9899 222.803 59.0766 223.31 59.0766H224.55V61.2566H222.81Z" fill="white"/>
<path d="M91.3474 79.0169L94.0183 77.0764C94.3115 76.8627 94.6738 76.7444 95.054 76.7573C95.9802 76.78 96.7935 77.3872 97.0764 78.2736C97.2317 78.7602 97.3733 79.0886 97.5013 79.2587C98.2615 80.2695 99.4711 80.9233 100.833 80.9233V82.5899C99.0211 82.5899 97.4019 81.7635 96.332 80.4671L95.7507 83.7637L97.4683 85.2049L99.3209 90.2949L97.7548 90.8649L96.0548 86.1946L93.2296 83.8239C92.7733 83.4551 92.526 82.8559 92.6351 82.2372L93.0589 79.8335L92.4949 80.2433L90.7224 82.6829L89.374 81.7033L91.3333 79.0066L91.3474 79.0169ZM96.25 76.3399C95.3295 76.3399 94.5833 75.5937 94.5833 74.6733C94.5833 73.7528 95.3295 73.0066 96.25 73.0066C97.1704 73.0066 97.9167 73.7528 97.9167 74.6733C97.9167 75.5937 97.1704 76.3399 96.25 76.3399ZM93.7737 87.3243L91.0954 90.5163L89.8186 89.4449L92.298 86.4902L92.9201 84.6733L94.4127 85.9233L93.7737 87.3243Z" fill="white"/>
<path d="M113.96 87.4486C113.213 87.4486 112.536 87.3153 111.928 87.0486C111.331 86.7713 110.851 86.3873 110.488 85.8966C110.136 85.4059 109.96 84.8299 109.96 84.1686C109.96 83.4966 110.147 82.8939 110.52 82.3606C110.904 81.8273 111.411 81.4646 112.04 81.2726C111.475 81.0486 111.037 80.7233 110.728 80.2966C110.419 79.8593 110.264 79.3793 110.264 78.8566C110.264 78.3126 110.408 77.8166 110.696 77.3686C110.984 76.9099 111.4 76.5473 111.944 76.2806C112.499 76.0033 113.171 75.8646 113.96 75.8646C114.749 75.8646 115.416 76.0033 115.96 76.2806C116.515 76.5473 116.936 76.9099 117.224 77.3686C117.512 77.8166 117.656 78.3126 117.656 78.8566C117.656 79.3686 117.496 79.8486 117.176 80.2966C116.867 80.7339 116.429 81.0593 115.864 81.2726C116.493 81.4753 116.995 81.8433 117.368 82.3766C117.752 82.8993 117.944 83.4966 117.944 84.1686C117.944 84.8299 117.768 85.4059 117.416 85.8966C117.064 86.3873 116.584 86.7713 115.976 87.0486C115.379 87.3153 114.707 87.4486 113.96 87.4486ZM113.96 80.7286C114.579 80.7286 115.064 80.5686 115.416 80.2486C115.779 79.9286 115.96 79.5179 115.96 79.0166C115.96 78.4513 115.784 78.0193 115.432 77.7206C115.08 77.4219 114.589 77.2726 113.96 77.2726C113.331 77.2726 112.84 77.4219 112.488 77.7206C112.136 78.0193 111.96 78.4513 111.96 79.0166C111.96 79.5179 112.136 79.9286 112.488 80.2486C112.84 80.5686 113.331 80.7286 113.96 80.7286ZM113.96 86.0086C114.728 86.0086 115.304 85.8273 115.688 85.4646C116.072 85.0913 116.264 84.6166 116.264 84.0406C116.264 83.4006 116.056 82.9099 115.64 82.5686C115.235 82.2166 114.675 82.0406 113.96 82.0406C113.245 82.0406 112.68 82.2166 112.264 82.5686C111.848 82.9099 111.64 83.4006 111.64 84.0406C111.64 84.6166 111.832 85.0913 112.216 85.4646C112.611 85.8273 113.192 86.0086 113.96 86.0086ZM124.025 87.2566V79.3206H125.529L125.673 80.4406C125.929 80.0353 126.265 79.7153 126.681 79.4806C127.108 79.2459 127.598 79.1286 128.153 79.1286C129.412 79.1286 130.286 79.6246 130.777 80.6166C131.065 80.1579 131.449 79.7953 131.929 79.5286C132.42 79.2619 132.948 79.1286 133.513 79.1286C134.505 79.1286 135.284 79.4273 135.849 80.0246C136.414 80.6219 136.697 81.5126 136.697 82.6966V87.2566H135.001V82.8726C135.001 81.3366 134.414 80.5686 133.241 80.5686C132.644 80.5686 132.153 80.7926 131.769 81.2406C131.396 81.6886 131.209 82.3286 131.209 83.1606V87.2566H129.513V82.8726C129.513 81.3366 128.921 80.5686 127.737 80.5686C127.15 80.5686 126.665 80.7926 126.281 81.2406C125.908 81.6886 125.721 82.3286 125.721 83.1606V87.2566H124.025ZM139.641 77.8166C139.321 77.8166 139.055 77.7206 138.841 77.5286C138.639 77.3259 138.537 77.0753 138.537 76.7766C138.537 76.4779 138.639 76.2326 138.841 76.0406C139.055 75.8379 139.321 75.7366 139.641 75.7366C139.961 75.7366 140.223 75.8379 140.425 76.0406C140.639 76.2326 140.745 76.4779 140.745 76.7766C140.745 77.0753 140.639 77.3259 140.425 77.5286C140.223 77.7206 139.961 77.8166 139.641 77.8166ZM138.793 87.2566V79.3206H140.489V87.2566H138.793ZM142.728 87.2566V79.3206H144.232L144.36 80.7126C144.606 80.2219 144.963 79.8379 145.432 79.5606C145.912 79.2726 146.462 79.1286 147.08 79.1286C148.04 79.1286 148.792 79.4273 149.336 80.0246C149.891 80.6219 150.168 81.5126 150.168 82.6966V87.2566H148.488V82.8726C148.488 81.3366 147.859 80.5686 146.6 80.5686C145.971 80.5686 145.448 80.7926 145.032 81.2406C144.627 81.6886 144.424 82.3286 144.424 83.1606V87.2566H142.728Z" fill="white"/>
<defs>
<filter id="filter0_d_63_773" x="0" y="16.4602" width="82" height="92.6526" filterUnits="userSpaceOnUse" color-interpolation-filters="sRGB">
<feFlood flood-opacity="0" result="BackgroundImageFix"/>
<feColorMatrix in="SourceAlpha" type="matrix" values="0 0 0 0 0 0 0 0 0 0 0 0 0 0 0 0 0 0 127 0" result="hardAlpha"/>
<feOffset dy="4"/>
<feGaussianBlur stdDeviation="2"/>
<feComposite in2="hardAlpha" operator="out"/>
<feColorMatrix type="matrix" values="0 0 0 0 0 0 0 0 0 0 0 0 0 0 0 0 0 0 0.25 0"/>
<feBlend mode="normal" in2="BackgroundImageFix" result="effect1_dropShadow_63_773"/>
<feBlend mode="normal" in="SourceGraphic" in2="effect1_dropShadow_63_773" result="shape"/>
</filter>
<filter id="filter1_d_63_773" x="81" y="11.2566" width="92" height="32" filterUnits="userSpaceOnUse" color-interpolation-filters="sRGB">
<feFlood flood-opacity="0" result="BackgroundImageFix"/>
<feColorMatrix in="SourceAlpha" type="matrix" values="0 0 0 0 0 0 0 0 0 0 0 0 0 0 0 0 0 0 127 0" result="hardAlpha"/>
<feOffset dy="2"/>
<feGaussianBlur stdDeviation="2"/>
<feComposite in2="hardAlpha" operator="out"/>
<feColorMatrix type="matrix" values="0 0 0 0 0 0 0 0 0 0 0 0 0 0 0 0 0 0 0.08 0"/>
<feBlend mode="normal" in2="BackgroundImageFix" result="effect1_dropShadow_63_773"/>
<feBlend mode="normal" in="SourceGraphic" in2="effect1_dropShadow_63_773" result="shape"/>
</filter>
<filter id="filter2_d_63_773" x="169" y="11.2566" width="32" height="32" filterUnits="userSpaceOnUse" color-interpolation-filters="sRGB">
<feFlood flood-opacity="0" result="BackgroundImageFix"/>
<feColorMatrix in="SourceAlpha" type="matrix" values="0 0 0 0 0 0 0 0 0 0 0 0 0 0 0 0 0 0 127 0" result="hardAlpha"/>
<feOffset dy="2"/>
<feGaussianBlur stdDeviation="2"/>
<feComposite in2="hardAlpha" operator="out"/>
<feColorMatrix type="matrix" values="0 0 0 0 0 0 0 0 0 0 0 0 0 0 0 0 0 0 0.08 0"/>
<feBlend mode="normal" in2="BackgroundImageFix" result="effect1_dropShadow_63_773"/>
<feBlend mode="normal" in="SourceGraphic" in2="effect1_dropShadow_63_773" result="shape"/>
</filter>
<linearGradient id="paint0_linear_63_773" x1="185" y1="13.2566" x2="185" y2="37.2566" gradientUnits="userSpaceOnUse">
<stop stop-color="#FF6B00"/>
<stop offset="1" stop-color="#FF6B00"/>
</linearGradient>
<clipPath id="clip0_63_773">
<rect width="8" height="8" fill="white" transform="translate(93 21.2566)"/>
</clipPath>
</defs>
</svg>
