<svg width="212" height="110" viewBox="0 0 212 110" fill="none" xmlns="http://www.w3.org/2000/svg">
<g filter="url(#filter0_d_63_749)">
<path d="M77 53.0519C77 33.804 60.884 18.2036 41 18.2036C21.116 18.2036 5 33.804 5 53.0519V52.1807C5 51.8903 5 53.0519 5.012 53.412C5.18 69.5641 16.7 83.0795 32.222 86.8489C36.1339 95.1234 38.521 98.6615 39.8922 100.164C40.7409 101.094 42.2569 101.086 43.0931 100.145C44.4497 98.6173 46.8064 95.0237 50.654 86.6224C65.726 82.5684 76.82 69.2737 76.994 53.4352L77 53.0519Z" fill="white"/>
<path d="M77.4999 53.0597H77.5V53.0519C77.5 33.5127 61.1447 17.7036 41 17.7036C21.1825 17.7036 5.03235 33.0032 4.51289 52.1027C4.5046 52.1122 4.50029 52.1181 4.50026 52.119L4.50007 52.1273L4.50002 52.1315L4.50001 52.134L4.5 52.1425L4.5 52.1807V53.0519H4.50531C4.50697 53.1987 4.50917 53.3324 4.51209 53.4228C4.68438 69.7356 16.2617 83.3804 31.8718 87.2776C35.7272 95.4068 38.1107 98.9537 39.5229 100.501C40.5711 101.65 42.4331 101.64 43.4669 100.477C44.8639 98.9039 47.2175 95.3007 51.011 87.0434C66.1683 82.8633 77.3176 69.4395 77.494 53.442C77.494 53.4415 77.494 53.4411 77.494 53.4407L77.4999 53.0597Z" stroke="white"/>
</g>
<path d="M41 90.7434C62.5391 90.7434 80 73.7302 80 52.7434C80 31.7566 62.5391 14.7434 41 14.7434C19.4609 14.7434 2 31.7566 2 52.7434C2 73.7302 19.4609 90.7434 41 90.7434Z" fill="#C9FC8C"/>
<path d="M37.1402 36.525C36.9026 36.1702 36.4406 36.0111 36.0292 36.1016C35.6436 36.1847 35.3295 36.508 35.2377 36.8886C35.1984 37.0213 35.2007 37.1591 35.2029 37.2963C35.2036 37.3464 35.2044 37.3965 35.2032 37.4462C35.2036 39.5236 35.2036 41.6015 35.2032 43.679C35.2078 44.0999 34.9157 44.5046 34.5168 44.6371C34.1379 44.7755 33.6833 44.6637 33.412 44.3654C33.2142 44.1626 33.1311 43.8743 33.1336 43.5963C33.1341 42.3376 33.134 41.079 33.134 39.8204C33.1339 38.8766 33.1339 37.9328 33.1341 36.9891C33.1486 36.6713 32.9674 36.353 32.6845 36.2068C32.4589 36.0846 32.1805 36.0651 31.9428 36.1656C31.6291 36.2874 31.4077 36.6085 31.4073 36.9455C31.3613 37.828 31.3178 38.7106 31.2743 39.5932C31.2482 40.1239 31.222 40.6546 31.1954 41.1852C31.1786 41.3296 31.1758 41.4749 31.173 41.6202C31.1699 41.7802 31.1669 41.9402 31.1451 42.0989C31.1362 42.2196 31.1333 42.3408 31.1304 42.462C31.126 42.6464 31.1216 42.8308 31.0961 43.0138C31.0965 43.2428 31.0821 43.4707 31.0678 43.6986C31.0535 43.9264 31.0391 44.1542 31.0396 44.3828C30.9909 44.805 30.9972 45.2313 31.0063 45.6555C31.0591 46.2688 31.2087 46.8741 31.4559 47.4384C31.7837 48.1904 32.3022 48.8502 32.9234 49.3829C34.2297 50.4993 34.9319 52.2755 34.7416 53.9837C34.6772 54.551 34.6151 55.0898 34.5556 55.6078C34.1612 59.0357 33.8723 61.5468 33.6709 65.3198C33.6326 65.9323 33.788 66.5602 34.1387 67.067C34.5255 67.6113 35.1126 68.019 35.772 68.1493C36.4572 68.2935 37.2005 68.151 37.778 67.7535C38.3232 67.3895 38.7217 66.8143 38.8758 66.1778C38.9667 65.8188 38.949 65.4475 38.9315 65.0798C38.928 65.007 38.9245 64.9343 38.9218 64.862C38.8313 63.1925 38.7047 61.5257 38.5642 59.8607C38.441 58.4372 38.3145 57.6078 38.1705 56.6645C38.0735 56.0287 37.9687 55.3412 37.8515 54.385C37.7718 53.8677 37.7465 53.3408 37.7933 52.819C37.9077 51.8343 38.2778 50.8737 38.8995 50.0972C39.1063 49.8118 39.3655 49.576 39.6248 49.3402C39.7868 49.1928 39.9488 49.0454 40.0982 48.886C40.9403 47.9823 41.468 46.7831 41.5333 45.5471C41.5605 45.2894 41.545 45.0318 41.5295 44.7742C41.5207 44.6271 41.5117 44.48 41.5108 44.333C41.454 43.2614 41.3992 42.1899 41.3443 41.1185C41.2987 40.2266 41.2532 39.3349 41.2063 38.4434C41.1882 38.3065 41.1863 38.1687 41.1845 38.031C41.1827 37.8906 41.1808 37.7504 41.1618 37.6111C41.145 37.4912 41.1442 37.3697 41.1433 37.2482C41.1422 37.0735 41.141 36.8988 41.092 36.7294C41.0118 36.4448 40.7762 36.2043 40.4875 36.132C40.1983 36.0484 39.8663 36.1394 39.6585 36.3567C39.4932 36.5204 39.3972 36.7523 39.3988 36.985C39.3993 38.2518 39.3993 39.5187 39.3992 40.7857C39.3992 41.736 39.3992 42.6864 39.3993 43.6366C39.4147 43.9973 39.2182 44.3558 38.9112 44.5432C38.671 44.6911 38.3693 44.7352 38.0975 44.66C37.7635 44.5731 37.4797 44.3076 37.3816 43.9752C37.3253 43.7919 37.3272 43.6007 37.3292 43.4105C37.3297 43.3611 37.3302 43.3118 37.3297 43.2627C37.3297 42.5838 37.3298 41.9048 37.3298 41.2259C37.3299 39.8681 37.33 38.5102 37.3297 37.1524C37.338 36.9289 37.2678 36.7074 37.1402 36.525Z" fill="#080705"/>
<path d="M52.0917 67.0394C52.0893 67.6854 51.4548 68.2862 50.802 68.1529C50.5765 68.1117 50.362 68.0236 50.1688 67.9006C49.7447 67.6331 49.3848 67.2749 49.0712 66.8861C48.314 65.9507 47.751 64.8734 47.287 63.7677C46.7942 62.6222 46.4365 61.4239 46.1228 60.2191C45.8228 59.0087 45.6022 57.7796 45.4238 56.5461C45.2278 55.2197 45.1502 53.8774 45.17 52.5374C45.1843 52.3664 45.189 52.1949 45.1937 52.0234C45.1972 51.8896 45.2008 51.7557 45.2092 51.6221C45.224 51.4641 45.2358 51.3054 45.2478 51.1466C45.2892 50.5977 45.3307 50.0469 45.4912 49.5187C45.7958 48.4709 46.4855 47.5435 47.3987 46.9473C47.7888 46.6913 48.0988 46.3016 48.219 45.8471C48.31 45.5249 48.2832 45.193 48.2565 44.8626C48.246 44.7337 48.2357 44.605 48.2322 44.4772C48.1553 43.328 48.0788 42.5984 48.0022 41.8679C47.9258 41.1412 47.8495 40.4134 47.7727 39.2707C47.7668 39.1527 47.7585 39.0347 47.75 38.9167C47.7283 38.6125 47.7067 38.3082 47.7295 38.0035C47.8283 37.0965 48.5597 36.2987 49.4563 36.1255C50.1127 35.9767 50.8307 36.177 51.3288 36.6265C51.7988 37.0267 52.0672 37.6341 52.0917 38.2466C52.092 44.9512 52.092 50.9292 52.0918 57.1402C52.0918 60.3347 52.0917 63.5909 52.0917 67.0394Z" fill="#080705"/>
<path d="M31.6673 1.75287L33.8528 11.4723L32.0727 11.8474L26.4561 6.62364L26.3847 6.63869L27.7603 12.7561L25.6993 13.1903L23.5137 3.47087L25.3224 3.08976L30.9046 8.3158L30.9903 8.29775L29.6158 2.18512L31.6673 1.75287Z" fill="white"/>
<path d="M35.9392 11.0707L35.467 1.11975L42.1731 0.821565L42.2555 2.55618L37.6535 2.76081L37.766 5.13193L42.0229 4.94265L42.1053 6.67726L37.8483 6.86654L37.9611 9.24253L42.5825 9.03704L42.6648 10.7717L35.9392 11.0707Z" fill="white"/>
<path d="M46.2515 11.0613L44.886 0.814956L47.165 1.1309L47.7854 8.20475L47.8673 8.2161L50.6823 1.6185L52.6337 1.88902L53.4158 9.00002L53.5025 9.01204L56.151 2.37663L58.4301 2.69257L54.1486 12.156L52.1153 11.8742L51.1894 5.17045L51.1123 5.15976L48.2848 11.3431L46.2515 11.0613Z" fill="white"/>
<g filter="url(#filter1_d_63_749)">
<rect x="85" y="14" width="95" height="24" rx="12" fill="#F13F3F" shape-rendering="crispEdges"/>
<path d="M93.816 30V21.6H99.3V22.836H95.352V25.14H98.94V26.34H95.352V28.764H99.3V30H93.816ZM100.154 30L102.314 27.024L100.154 24.048H101.798L103.31 26.16L104.81 24.048H106.466L104.294 27.024L106.466 30H104.81L103.31 27.888L101.798 30H100.154ZM107.444 32.64V24.048H108.812L108.98 24.9C109.172 24.636 109.424 24.404 109.736 24.204C110.056 24.004 110.468 23.904 110.972 23.904C111.532 23.904 112.032 24.04 112.472 24.312C112.912 24.584 113.26 24.956 113.516 25.428C113.772 25.9 113.9 26.436 113.9 27.036C113.9 27.636 113.772 28.172 113.516 28.644C113.26 29.108 112.912 29.476 112.472 29.748C112.032 30.012 111.532 30.144 110.972 30.144C110.524 30.144 110.132 30.06 109.796 29.892C109.46 29.724 109.188 29.488 108.98 29.184V32.64H107.444ZM110.648 28.8C111.136 28.8 111.54 28.636 111.86 28.308C112.18 27.98 112.34 27.556 112.34 27.036C112.34 26.516 112.18 26.088 111.86 25.752C111.54 25.416 111.136 25.248 110.648 25.248C110.152 25.248 109.744 25.416 109.424 25.752C109.112 26.08 108.956 26.504 108.956 27.024C108.956 27.544 109.112 27.972 109.424 28.308C109.744 28.636 110.152 28.8 110.648 28.8ZM116.1 23.124C115.82 23.124 115.588 23.04 115.404 22.872C115.228 22.704 115.14 22.492 115.14 22.236C115.14 21.98 115.228 21.772 115.404 21.612C115.588 21.444 115.82 21.36 116.1 21.36C116.38 21.36 116.608 21.444 116.784 21.612C116.968 21.772 117.06 21.98 117.06 22.236C117.06 22.492 116.968 22.704 116.784 22.872C116.608 23.04 116.38 23.124 116.1 23.124ZM115.332 30V24.048H116.868V30H115.332ZM118.471 30V24.048H119.839L119.983 25.164C120.199 24.78 120.491 24.476 120.859 24.252C121.235 24.02 121.675 23.904 122.179 23.904V25.524H121.747C121.411 25.524 121.111 25.576 120.847 25.68C120.583 25.784 120.375 25.964 120.223 26.22C120.079 26.476 120.007 26.832 120.007 27.288V30H118.471ZM124.057 23.124C123.777 23.124 123.545 23.04 123.361 22.872C123.185 22.704 123.097 22.492 123.097 22.236C123.097 21.98 123.185 21.772 123.361 21.612C123.545 21.444 123.777 21.36 124.057 21.36C124.337 21.36 124.565 21.444 124.741 21.612C124.925 21.772 125.017 21.98 125.017 22.236C125.017 22.492 124.925 22.704 124.741 22.872C124.565 23.04 124.337 23.124 124.057 23.124ZM123.289 30V24.048H124.825V30H123.289ZM126.428 30V24.048H127.784L127.904 25.056C128.088 24.704 128.352 24.424 128.696 24.216C129.048 24.008 129.46 23.904 129.932 23.904C130.668 23.904 131.24 24.136 131.648 24.6C132.056 25.064 132.26 25.744 132.26 26.64V30H130.724V26.784C130.724 26.272 130.62 25.88 130.412 25.608C130.204 25.336 129.88 25.2 129.44 25.2C129.008 25.2 128.652 25.352 128.372 25.656C128.1 25.96 127.964 26.384 127.964 26.928V30H126.428ZM136.249 28.224C135.961 28.224 135.693 28.192 135.445 28.128L135.001 28.572C135.137 28.644 135.321 28.704 135.553 28.752C135.785 28.8 136.161 28.848 136.681 28.896C137.473 28.968 138.049 29.156 138.409 29.46C138.769 29.764 138.949 30.184 138.949 30.72C138.949 31.072 138.853 31.404 138.661 31.716C138.469 32.036 138.173 32.292 137.773 32.484C137.373 32.684 136.861 32.784 136.237 32.784C135.389 32.784 134.705 32.624 134.185 32.304C133.665 31.992 133.405 31.52 133.405 30.888C133.405 30.352 133.665 29.888 134.185 29.496C134.025 29.424 133.885 29.348 133.765 29.268C133.653 29.188 133.553 29.104 133.465 29.016V28.74L134.509 27.636C134.045 27.228 133.813 26.704 133.813 26.064C133.813 25.664 133.909 25.3 134.101 24.972C134.301 24.644 134.581 24.384 134.941 24.192C135.301 24 135.737 23.904 136.249 23.904C136.585 23.904 136.897 23.952 137.185 24.048H139.441V24.984L138.421 25.056C138.581 25.36 138.661 25.696 138.661 26.064C138.661 26.464 138.565 26.828 138.373 27.156C138.181 27.484 137.901 27.744 137.533 27.936C137.173 28.128 136.745 28.224 136.249 28.224ZM136.249 27.048C136.561 27.048 136.817 26.964 137.017 26.796C137.225 26.628 137.329 26.388 137.329 26.076C137.329 25.764 137.225 25.524 137.017 25.356C136.817 25.188 136.561 25.104 136.249 25.104C135.921 25.104 135.657 25.188 135.457 25.356C135.257 25.524 135.157 25.764 135.157 26.076C135.157 26.388 135.257 26.628 135.457 26.796C135.657 26.964 135.921 27.048 136.249 27.048ZM134.809 30.732C134.809 31.028 134.945 31.248 135.217 31.392C135.497 31.544 135.837 31.62 136.237 31.62C136.621 31.62 136.933 31.54 137.173 31.38C137.413 31.228 137.533 31.02 137.533 30.756C137.533 30.54 137.453 30.36 137.293 30.216C137.141 30.072 136.833 29.984 136.369 29.952C136.041 29.928 135.737 29.892 135.457 29.844C135.225 29.972 135.057 30.112 134.953 30.264C134.857 30.416 134.809 30.572 134.809 30.732ZM146.325 30.144C145.709 30.144 145.165 30.04 144.693 29.832C144.221 29.616 143.849 29.312 143.577 28.92C143.305 28.52 143.165 28.036 143.157 27.468H144.777C144.793 27.86 144.933 28.192 145.197 28.464C145.469 28.728 145.841 28.86 146.313 28.86C146.721 28.86 147.045 28.764 147.285 28.572C147.525 28.372 147.645 28.108 147.645 27.78C147.645 27.436 147.537 27.168 147.321 26.976C147.113 26.784 146.833 26.628 146.481 26.508C146.129 26.388 145.753 26.26 145.353 26.124C144.705 25.9 144.209 25.612 143.865 25.26C143.529 24.908 143.361 24.44 143.361 23.856C143.353 23.36 143.469 22.936 143.709 22.584C143.957 22.224 144.293 21.948 144.717 21.756C145.141 21.556 145.629 21.456 146.181 21.456C146.741 21.456 147.233 21.556 147.657 21.756C148.089 21.956 148.425 22.236 148.665 22.596C148.913 22.956 149.045 23.384 149.061 23.88H147.417C147.409 23.584 147.293 23.324 147.069 23.1C146.853 22.868 146.549 22.752 146.157 22.752C145.821 22.744 145.537 22.828 145.305 23.004C145.081 23.172 144.969 23.42 144.969 23.748C144.969 24.028 145.057 24.252 145.233 24.42C145.409 24.58 145.649 24.716 145.953 24.828C146.257 24.94 146.605 25.06 146.997 25.188C147.413 25.332 147.793 25.5 148.137 25.692C148.481 25.884 148.757 26.14 148.965 26.46C149.173 26.772 149.277 27.176 149.277 27.672C149.277 28.112 149.165 28.52 148.941 28.896C148.717 29.272 148.385 29.576 147.945 29.808C147.505 30.032 146.965 30.144 146.325 30.144ZM153.437 30.144C152.861 30.144 152.341 30.012 151.877 29.748C151.421 29.484 151.057 29.12 150.785 28.656C150.521 28.184 150.389 27.64 150.389 27.024C150.389 26.408 150.525 25.868 150.797 25.404C151.069 24.932 151.433 24.564 151.889 24.3C152.353 24.036 152.873 23.904 153.449 23.904C154.017 23.904 154.529 24.036 154.985 24.3C155.449 24.564 155.813 24.932 156.077 25.404C156.349 25.868 156.485 26.408 156.485 27.024C156.485 27.64 156.349 28.184 156.077 28.656C155.813 29.12 155.449 29.484 154.985 29.748C154.521 30.012 154.005 30.144 153.437 30.144ZM153.437 28.812C153.837 28.812 154.185 28.664 154.481 28.368C154.777 28.064 154.925 27.616 154.925 27.024C154.925 26.432 154.777 25.988 154.481 25.692C154.185 25.388 153.841 25.236 153.449 25.236C153.041 25.236 152.689 25.388 152.393 25.692C152.105 25.988 151.961 26.432 151.961 27.024C151.961 27.616 152.105 28.064 152.393 28.368C152.689 28.664 153.037 28.812 153.437 28.812ZM160.714 30.144C160.138 30.144 159.618 30.012 159.154 29.748C158.698 29.484 158.334 29.12 158.062 28.656C157.798 28.184 157.666 27.64 157.666 27.024C157.666 26.408 157.802 25.868 158.074 25.404C158.346 24.932 158.71 24.564 159.166 24.3C159.63 24.036 160.15 23.904 160.726 23.904C161.294 23.904 161.806 24.036 162.262 24.3C162.726 24.564 163.09 24.932 163.354 25.404C163.626 25.868 163.762 26.408 163.762 27.024C163.762 27.64 163.626 28.184 163.354 28.656C163.09 29.12 162.726 29.484 162.262 29.748C161.798 30.012 161.282 30.144 160.714 30.144ZM160.714 28.812C161.114 28.812 161.462 28.664 161.758 28.368C162.054 28.064 162.202 27.616 162.202 27.024C162.202 26.432 162.054 25.988 161.758 25.692C161.462 25.388 161.118 25.236 160.726 25.236C160.318 25.236 159.966 25.388 159.67 25.692C159.382 25.988 159.238 26.432 159.238 27.024C159.238 27.616 159.382 28.064 159.67 28.368C159.966 28.664 160.314 28.812 160.714 28.812ZM165.135 30V24.048H166.491L166.611 25.056C166.795 24.704 167.059 24.424 167.403 24.216C167.755 24.008 168.167 23.904 168.639 23.904C169.375 23.904 169.947 24.136 170.355 24.6C170.763 25.064 170.967 25.744 170.967 26.64V30H169.431V26.784C169.431 26.272 169.327 25.88 169.119 25.608C168.911 25.336 168.587 25.2 168.147 25.2C167.715 25.2 167.359 25.352 167.079 25.656C166.807 25.96 166.671 26.384 166.671 26.928V30H165.135Z" fill="white"/>
</g>
<g filter="url(#filter2_d_63_749)">
<rect x="184" y="14" width="24" height="24" rx="12" fill="url(#paint0_linear_63_749)" shape-rendering="crispEdges"/>
<path d="M196 34.9584C192.548 34.9584 189.75 32.1602 189.75 28.7084C189.75 26.9136 190.507 25.2955 191.718 24.1556C192.837 23.1032 195.583 21.208 195.167 17.0417C200.167 20.3751 202.667 23.7084 197.667 28.7084C198.5 28.7084 199.75 28.7084 201.833 26.6497C202.058 27.2944 202.25 27.9872 202.25 28.7084C202.25 32.1602 199.452 34.9584 196 34.9584Z" fill="white"/>
</g>
<path d="M86.36 62V48H95.4V50.06H88.92V53.98H94.16V56H88.92V62H86.36ZM101.548 62.24C100.588 62.24 99.7216 62.02 98.9483 61.58C98.1883 61.14 97.5816 60.5333 97.1283 59.76C96.6883 58.9733 96.4683 58.0667 96.4683 57.04C96.4683 56.0133 96.6949 55.1133 97.1483 54.34C97.6016 53.5533 98.2083 52.94 98.9683 52.5C99.7416 52.06 100.608 51.84 101.568 51.84C102.515 51.84 103.368 52.06 104.128 52.5C104.902 52.94 105.508 53.5533 105.948 54.34C106.402 55.1133 106.628 56.0133 106.628 57.04C106.628 58.0667 106.402 58.9733 105.948 59.76C105.508 60.5333 104.902 61.14 104.128 61.58C103.355 62.02 102.495 62.24 101.548 62.24ZM101.548 60.02C102.215 60.02 102.795 59.7733 103.288 59.28C103.782 58.7733 104.028 58.0267 104.028 57.04C104.028 56.0533 103.782 55.3133 103.288 54.82C102.795 54.3133 102.222 54.06 101.568 54.06C100.888 54.06 100.302 54.3133 99.8083 54.82C99.3283 55.3133 99.0883 56.0533 99.0883 57.04C99.0883 58.0267 99.3283 58.7733 99.8083 59.28C100.302 59.7733 100.882 60.02 101.548 60.02ZM113.677 62.24C112.717 62.24 111.851 62.02 111.077 61.58C110.317 61.14 109.711 60.5333 109.257 59.76C108.817 58.9733 108.597 58.0667 108.597 57.04C108.597 56.0133 108.824 55.1133 109.277 54.34C109.731 53.5533 110.337 52.94 111.097 52.5C111.871 52.06 112.737 51.84 113.697 51.84C114.644 51.84 115.497 52.06 116.257 52.5C117.031 52.94 117.637 53.5533 118.077 54.34C118.531 55.1133 118.757 56.0133 118.757 57.04C118.757 58.0667 118.531 58.9733 118.077 59.76C117.637 60.5333 117.031 61.14 116.257 61.58C115.484 62.02 114.624 62.24 113.677 62.24ZM113.677 60.02C114.344 60.02 114.924 59.7733 115.417 59.28C115.911 58.7733 116.157 58.0267 116.157 57.04C116.157 56.0533 115.911 55.3133 115.417 54.82C114.924 54.3133 114.351 54.06 113.697 54.06C113.017 54.06 112.431 54.3133 111.937 54.82C111.457 55.3133 111.217 56.0533 111.217 57.04C111.217 58.0267 111.457 58.7733 111.937 59.28C112.431 59.7733 113.011 60.02 113.677 60.02ZM125.606 62.24C124.673 62.24 123.839 62.0133 123.106 61.56C122.373 61.1067 121.793 60.4867 121.366 59.7C120.939 58.9133 120.726 58.02 120.726 57.02C120.726 56.02 120.939 55.1333 121.366 54.36C121.793 53.5733 122.373 52.96 123.106 52.52C123.839 52.0667 124.673 51.84 125.606 51.84C126.353 51.84 127.006 51.98 127.566 52.26C128.126 52.54 128.579 52.9333 128.926 53.44V47.6H131.486V62H129.206L128.926 60.58C128.606 61.02 128.179 61.4067 127.646 61.74C127.126 62.0733 126.446 62.24 125.606 62.24ZM126.146 60C126.973 60 127.646 59.7267 128.166 59.18C128.699 58.62 128.966 57.9067 128.966 57.04C128.966 56.1733 128.699 55.4667 128.166 54.92C127.646 54.36 126.973 54.08 126.146 54.08C125.333 54.08 124.659 54.3533 124.126 54.9C123.593 55.4467 123.326 56.1533 123.326 57.02C123.326 57.8867 123.593 58.6 124.126 59.16C124.659 59.72 125.333 60 126.146 60Z" fill="white"/>
<rect x="137.5" y="47" width="63.6667" height="16" rx="8" fill="#080705"/>
<rect x="137.5" y="47" width="63.6667" height="16" rx="8" stroke="black"/>
<path d="M141 52.6L143.667 54.2L146.333 51L149 54.2L151.667 52.6V59H141V52.6Z" fill="url(#paint1_linear_63_749)"/>
<path d="M154.347 58.5V51.5H156.937C157.497 51.5 157.96 51.5933 158.327 51.78C158.693 51.9667 158.967 52.2233 159.147 52.55C159.327 52.8767 159.417 53.2433 159.417 53.65C159.417 54.0367 159.33 54.3933 159.157 54.72C158.983 55.04 158.713 55.3 158.347 55.5C157.98 55.6933 157.51 55.79 156.937 55.79H155.627V58.5H154.347ZM155.627 54.75H156.857C157.303 54.75 157.623 54.6533 157.817 54.46C158.017 54.26 158.117 53.99 158.117 53.65C158.117 53.3033 158.017 53.0333 157.817 52.84C157.623 52.64 157.303 52.54 156.857 52.54H155.627V54.75ZM160.391 58.5V53.54H161.531L161.651 54.47C161.831 54.15 162.074 53.8967 162.381 53.71C162.694 53.5167 163.061 53.42 163.481 53.42V54.77H163.121C162.841 54.77 162.591 54.8133 162.371 54.9C162.151 54.9867 161.977 55.1367 161.851 55.35C161.731 55.5633 161.671 55.86 161.671 56.24V58.5H160.391ZM166.678 58.62C166.178 58.62 165.734 58.5133 165.348 58.3C164.961 58.0867 164.658 57.7867 164.438 57.4C164.218 57.0133 164.108 56.5667 164.108 56.06C164.108 55.5467 164.214 55.09 164.428 54.69C164.648 54.29 164.948 53.98 165.328 53.76C165.714 53.5333 166.168 53.42 166.688 53.42C167.174 53.42 167.604 53.5267 167.978 53.74C168.351 53.9533 168.641 54.2467 168.848 54.62C169.061 54.9867 169.168 55.3967 169.168 55.85C169.168 55.9233 169.164 56 169.158 56.08C169.158 56.16 169.154 56.2433 169.148 56.33H165.378C165.404 56.7167 165.538 57.02 165.778 57.24C166.024 57.46 166.321 57.57 166.668 57.57C166.928 57.57 167.144 57.5133 167.318 57.4C167.498 57.28 167.631 57.1267 167.718 56.94H169.018C168.924 57.2533 168.768 57.54 168.548 57.8C168.334 58.0533 168.068 58.2533 167.748 58.4C167.434 58.5467 167.078 58.62 166.678 58.62ZM166.688 54.46C166.374 54.46 166.098 54.55 165.858 54.73C165.618 54.9033 165.464 55.17 165.398 55.53H167.868C167.848 55.2033 167.728 54.9433 167.508 54.75C167.288 54.5567 167.014 54.46 166.688 54.46ZM170.244 58.5V53.54H171.374L171.484 54.21C171.644 53.97 171.854 53.78 172.114 53.64C172.381 53.4933 172.688 53.42 173.034 53.42C173.801 53.42 174.344 53.7167 174.664 54.31C174.844 54.0367 175.084 53.82 175.384 53.66C175.691 53.5 176.024 53.42 176.384 53.42C177.031 53.42 177.528 53.6133 177.874 54C178.221 54.3867 178.394 54.9533 178.394 55.7V58.5H177.114V55.82C177.114 55.3933 177.031 55.0667 176.864 54.84C176.704 54.6133 176.454 54.5 176.114 54.5C175.768 54.5 175.488 54.6267 175.274 54.88C175.068 55.1333 174.964 55.4867 174.964 55.94V58.5H173.684V55.82C173.684 55.3933 173.601 55.0667 173.434 54.84C173.268 54.6133 173.011 54.5 172.664 54.5C172.324 54.5 172.048 54.6267 171.834 54.88C171.628 55.1333 171.524 55.4867 171.524 55.94V58.5H170.244ZM180.299 52.77C180.066 52.77 179.873 52.7 179.719 52.56C179.573 52.42 179.499 52.2433 179.499 52.03C179.499 51.8167 179.573 51.6433 179.719 51.51C179.873 51.37 180.066 51.3 180.299 51.3C180.533 51.3 180.723 51.37 180.869 51.51C181.023 51.6433 181.099 51.8167 181.099 52.03C181.099 52.2433 181.023 52.42 180.869 52.56C180.723 52.7 180.533 52.77 180.299 52.77ZM179.659 58.5V53.54H180.939V58.5H179.659ZM184.135 58.62C183.515 58.62 183.035 58.4267 182.695 58.04C182.362 57.6533 182.195 57.0867 182.195 56.34V53.54H183.465V56.22C183.465 56.6467 183.552 56.9733 183.725 57.2C183.899 57.4267 184.172 57.54 184.545 57.54C184.899 57.54 185.189 57.4133 185.415 57.16C185.649 56.9067 185.765 56.5533 185.765 56.1V53.54H187.045V58.5H185.915L185.815 57.66C185.662 57.9533 185.439 58.1867 185.145 58.36C184.859 58.5333 184.522 58.62 184.135 58.62ZM188.359 58.5V53.54H189.489L189.599 54.21C189.759 53.97 189.969 53.78 190.229 53.64C190.496 53.4933 190.803 53.42 191.149 53.42C191.916 53.42 192.459 53.7167 192.779 54.31C192.959 54.0367 193.199 53.82 193.499 53.66C193.806 53.5 194.139 53.42 194.499 53.42C195.146 53.42 195.643 53.6133 195.989 54C196.336 54.3867 196.509 54.9533 196.509 55.7V58.5H195.229V55.82C195.229 55.3933 195.146 55.0667 194.979 54.84C194.819 54.6133 194.569 54.5 194.229 54.5C193.883 54.5 193.603 54.6267 193.389 54.88C193.183 55.1333 193.079 55.4867 193.079 55.94V58.5H191.799V55.82C191.799 55.3933 191.716 55.0667 191.549 54.84C191.383 54.6133 191.126 54.5 190.779 54.5C190.439 54.5 190.163 54.6267 189.949 54.88C189.743 55.1333 189.639 55.4867 189.639 55.94V58.5H188.359Z" fill="url(#paint2_linear_63_749)"/>
<path d="M91.3474 79.7603L94.0183 77.8198C94.3115 77.6061 94.6738 77.4879 95.054 77.5007C95.9802 77.5234 96.7935 78.1306 97.0764 79.017C97.2317 79.5036 97.3733 79.832 97.5013 80.0021C98.2615 81.0129 99.4711 81.6667 100.833 81.6667V83.3333C99.0211 83.3333 97.4019 82.5069 96.332 81.2105L95.7507 84.5071L97.4683 85.9483L99.3209 91.0383L97.7548 91.6083L96.0548 86.938L93.2296 84.5673C92.7733 84.1985 92.526 83.5993 92.6351 82.9806L93.0589 80.5769L92.4949 80.9867L90.7224 83.4263L89.374 82.4467L91.3333 79.75L91.3474 79.7603ZM96.25 77.0833C95.3295 77.0833 94.5833 76.3371 94.5833 75.4167C94.5833 74.4962 95.3295 73.75 96.25 73.75C97.1704 73.75 97.9167 74.4962 97.9167 75.4167C97.9167 76.3371 97.1704 77.0833 96.25 77.0833ZM93.7737 88.0677L91.0954 91.2597L89.8186 90.1883L92.298 87.2336L92.9201 85.4167L94.4127 86.6667L93.7737 88.0677Z" fill="white"/>
<path d="M112.04 88.192C111.251 88.192 110.568 88.0533 109.992 87.776C109.416 87.488 108.957 87.0987 108.616 86.608C108.285 86.1067 108.083 85.5413 108.008 84.912H109.672C109.779 85.4453 110.045 85.888 110.472 86.24C110.899 86.5813 111.427 86.752 112.056 86.752C112.525 86.752 112.931 86.64 113.272 86.416C113.613 86.1813 113.88 85.872 114.072 85.488C114.264 85.104 114.36 84.672 114.36 84.192C114.36 83.4347 114.147 82.832 113.72 82.384C113.293 81.9253 112.755 81.696 112.104 81.696C111.549 81.696 111.075 81.8293 110.68 82.096C110.285 82.352 109.997 82.6773 109.816 83.072H108.2L109.16 76.8H115.208V78.288H110.44L109.864 81.28C110.109 81.0027 110.445 80.7733 110.872 80.592C111.309 80.4 111.8 80.304 112.344 80.304C113.101 80.304 113.752 80.48 114.296 80.832C114.84 81.1733 115.256 81.6373 115.544 82.224C115.843 82.8107 115.992 83.4613 115.992 84.176C115.992 84.9227 115.832 85.6 115.512 86.208C115.192 86.816 114.733 87.3013 114.136 87.664C113.549 88.016 112.851 88.192 112.04 88.192ZM121.963 88V80.064H123.467L123.611 81.184C123.867 80.7787 124.203 80.4587 124.619 80.224C125.045 79.9893 125.536 79.872 126.091 79.872C127.349 79.872 128.224 80.368 128.715 81.36C129.003 80.9013 129.387 80.5387 129.867 80.272C130.357 80.0053 130.885 79.872 131.451 79.872C132.443 79.872 133.221 80.1707 133.787 80.768C134.352 81.3653 134.635 82.256 134.635 83.44V88H132.939V83.616C132.939 82.08 132.352 81.312 131.179 81.312C130.581 81.312 130.091 81.536 129.707 81.984C129.333 82.432 129.147 83.072 129.147 83.904V88H127.451V83.616C127.451 82.08 126.859 81.312 125.675 81.312C125.088 81.312 124.603 81.536 124.219 81.984C123.845 82.432 123.659 83.072 123.659 83.904V88H121.963ZM137.579 78.56C137.259 78.56 136.992 78.464 136.779 78.272C136.576 78.0693 136.475 77.8187 136.475 77.52C136.475 77.2213 136.576 76.976 136.779 76.784C136.992 76.5813 137.259 76.48 137.579 76.48C137.899 76.48 138.16 76.5813 138.363 76.784C138.576 76.976 138.683 77.2213 138.683 77.52C138.683 77.8187 138.576 78.0693 138.363 78.272C138.16 78.464 137.899 78.56 137.579 78.56ZM136.731 88V80.064H138.427V88H136.731ZM140.666 88V80.064H142.17L142.298 81.456C142.543 80.9653 142.9 80.5813 143.37 80.304C143.85 80.016 144.399 79.872 145.018 79.872C145.978 79.872 146.73 80.1707 147.274 80.768C147.828 81.3653 148.106 82.256 148.106 83.44V88H146.426V83.616C146.426 82.08 145.796 81.312 144.538 81.312C143.908 81.312 143.386 81.536 142.97 81.984C142.564 82.432 142.362 83.072 142.362 83.904V88H140.666Z" fill="white"/>
<defs>
<filter id="filter0_d_63_749" x="0" y="17.2036" width="82" height="92.6526" filterUnits="userSpaceOnUse" color-interpolation-filters="sRGB">
<feFlood flood-opacity="0" result="BackgroundImageFix"/>
<feColorMatrix in="SourceAlpha" type="matrix" values="0 0 0 0 0 0 0 0 0 0 0 0 0 0 0 0 0 0 127 0" result="hardAlpha"/>
<feOffset dy="4"/>
<feGaussianBlur stdDeviation="2"/>
<feComposite in2="hardAlpha" operator="out"/>
<feColorMatrix type="matrix" values="0 0 0 0 0 0 0 0 0 0 0 0 0 0 0 0 0 0 0.25 0"/>
<feBlend mode="normal" in2="BackgroundImageFix" result="effect1_dropShadow_63_749"/>
<feBlend mode="normal" in="SourceGraphic" in2="effect1_dropShadow_63_749" result="shape"/>
</filter>
<filter id="filter1_d_63_749" x="81" y="12" width="103" height="32" filterUnits="userSpaceOnUse" color-interpolation-filters="sRGB">
<feFlood flood-opacity="0" result="BackgroundImageFix"/>
<feColorMatrix in="SourceAlpha" type="matrix" values="0 0 0 0 0 0 0 0 0 0 0 0 0 0 0 0 0 0 127 0" result="hardAlpha"/>
<feOffset dy="2"/>
<feGaussianBlur stdDeviation="2"/>
<feComposite in2="hardAlpha" operator="out"/>
<feColorMatrix type="matrix" values="0 0 0 0 0 0 0 0 0 0 0 0 0 0 0 0 0 0 0.08 0"/>
<feBlend mode="normal" in2="BackgroundImageFix" result="effect1_dropShadow_63_749"/>
<feBlend mode="normal" in="SourceGraphic" in2="effect1_dropShadow_63_749" result="shape"/>
</filter>
<filter id="filter2_d_63_749" x="180" y="12" width="32" height="32" filterUnits="userSpaceOnUse" color-interpolation-filters="sRGB">
<feFlood flood-opacity="0" result="BackgroundImageFix"/>
<feColorMatrix in="SourceAlpha" type="matrix" values="0 0 0 0 0 0 0 0 0 0 0 0 0 0 0 0 0 0 127 0" result="hardAlpha"/>
<feOffset dy="2"/>
<feGaussianBlur stdDeviation="2"/>
<feComposite in2="hardAlpha" operator="out"/>
<feColorMatrix type="matrix" values="0 0 0 0 0 0 0 0 0 0 0 0 0 0 0 0 0 0 0.08 0"/>
<feBlend mode="normal" in2="BackgroundImageFix" result="effect1_dropShadow_63_749"/>
<feBlend mode="normal" in="SourceGraphic" in2="effect1_dropShadow_63_749" result="shape"/>
</filter>
<linearGradient id="paint0_linear_63_749" x1="196" y1="14" x2="196" y2="38" gradientUnits="userSpaceOnUse">
<stop stop-color="#FF6B00"/>
<stop offset="1" stop-color="#FF6B00"/>
</linearGradient>
<linearGradient id="paint1_linear_63_749" x1="152" y1="56.2434" x2="141" y2="56.2434" gradientUnits="userSpaceOnUse">
<stop stop-color="#AE8625"/>
<stop offset="0.415" stop-color="#F7EF8A"/>
<stop offset="0.71" stop-color="#D2AC47"/>
<stop offset="1" stop-color="#EDC967"/>
</linearGradient>
<linearGradient id="paint2_linear_63_749" x1="199.041" y1="57.0205" x2="153.667" y2="57.0205" gradientUnits="userSpaceOnUse">
<stop stop-color="#AE8625"/>
<stop offset="0.415" stop-color="#F7EF8A"/>
<stop offset="0.71" stop-color="#D2AC47"/>
<stop offset="1" stop-color="#EDC967"/>
</linearGradient>
</defs>
</svg>
