<svg width="178" height="91" viewBox="0 0 178 91" fill="none" xmlns="http://www.w3.org/2000/svg">
<g filter="url(#filter0_d_63_792)">
<path d="M64.9457 43.3878C64.9457 27.3625 51.5279 14.3739 34.9729 14.3739C18.4178 14.3739 5 27.3625 5 43.3878V42.6625C5 42.4207 5 43.3878 5.00999 43.6877C5.14986 57.1356 14.7412 68.3882 27.6645 71.5265C30.9214 78.4157 32.9088 81.3614 34.0505 82.6126C34.7571 83.3869 36.0193 83.3799 36.7155 82.5962C37.845 81.3247 39.8072 78.3327 43.0106 71.3379C55.5592 67.9627 64.7958 56.8938 64.9407 43.707L64.9457 43.3878Z" fill="white"/>
<path d="M65.3619 43.3944L65.362 43.3944V43.3878C65.362 27.1199 51.7449 13.9576 34.9729 13.9576C18.4732 13.9576 5.02693 26.6958 4.59444 42.5976C4.58754 42.6055 4.58396 42.6104 4.58392 42.6112L4.58377 42.6181L4.58373 42.6215L4.58372 42.6237L4.58371 42.6307L4.58371 42.6625V43.3878H4.58813C4.58951 43.5101 4.59134 43.6214 4.59377 43.6967C4.73722 57.2784 14.3763 68.6387 27.3729 71.8834C30.5828 78.6516 32.5673 81.6047 33.743 82.8932C34.6158 83.8496 36.166 83.8416 37.0267 82.8727C38.1899 81.5633 40.1494 78.5633 43.3078 71.6884C55.9275 68.2082 65.2103 57.0317 65.357 43.7123C65.357 43.7121 65.357 43.7118 65.357 43.7116L65.3619 43.3944Z" stroke="white" stroke-width="0.832579"/>
</g>
<path d="M34.9725 74.7692C52.9056 74.7692 67.4431 60.6044 67.4431 43.1312C67.4431 25.658 52.9056 11.4932 34.9725 11.4932C17.0395 11.4932 2.50195 25.658 2.50195 43.1312C2.50195 60.6044 17.0395 74.7692 34.9725 74.7692Z" fill="#C9FC8C"/>
<path fill-rule="evenodd" clip-rule="evenodd" d="M39.8378 49.4375H41.9745V47.4393H39.8378V49.4375ZM37.4853 44.799H39.622V42.8008H37.4853V44.799ZM33.6434 47.0823H31.1657V49.5108H29.1675V47.0823H26.6871V45.0841H29.1675V42.6543H31.1657V45.0841H33.6434V47.0823ZM39.6513 36.2414H35.6389V35.7778C35.6296 33.7543 33.9525 32.1025 31.8957 32.0958H30.525C30.0973 32.0958 29.7483 31.7628 29.7483 31.3552V30.3561H27.7501V31.3552C27.7501 32.8645 28.9957 34.094 30.525 34.094H31.8917C32.8521 34.0967 33.6368 34.8573 33.6408 35.7832V36.2414H29.6271C24.1787 36.2414 19.748 40.6734 19.748 46.1205C19.748 51.5676 24.1787 55.9996 29.6271 55.9996H39.6513C45.0997 55.9996 49.5304 51.5676 49.5304 46.1205C49.5304 40.6734 45.0997 36.2414 39.6513 36.2414Z" fill="#080705"/>
<path d="M27.2408 0.849983L29.0605 8.9422L27.5783 9.25449L22.9021 4.90529L22.8426 4.91782L23.9879 10.011L22.272 10.3726L20.4523 2.28036L21.9582 1.96305L26.6058 6.31415L26.6772 6.29912L25.5328 1.20987L27.2408 0.849983Z" fill="white"/>
<path d="M30.767 8.61174L30.3738 0.326785L35.9572 0.0785198L36.0258 1.52272L32.1942 1.69309L32.2879 3.66724L35.8322 3.50965L35.9007 4.95385L32.3565 5.11144L32.4503 7.08964L36.298 6.91855L36.3665 8.36276L30.767 8.61174Z" fill="white"/>
<path d="M39.3188 8.60228L38.1819 0.0714184L40.0793 0.334465L40.5958 6.224L40.664 6.23346L43.0078 0.740436L44.6325 0.965666L45.2836 6.88613L45.3558 6.89614L47.5609 1.37164L49.4584 1.63468L45.8937 9.51377L44.2009 9.27908L43.43 3.69771L43.3658 3.68881L41.0116 8.83696L39.3188 8.60228Z" fill="white"/>
<g filter="url(#filter1_d_63_792)">
<rect x="71.6064" y="11.1006" width="70.3122" height="19.6606" rx="9.83032" fill="#080705" shape-rendering="crispEdges"/>
<g clip-path="url(#clip0_63_792)">
<path d="M81.5974 24.2612C83.4367 24.2612 84.9277 22.7702 84.9277 20.9309C84.9277 19.0916 83.4367 17.6006 81.5974 17.6006C79.7581 17.6006 78.2671 19.0916 78.2671 20.9309C78.2671 22.7702 79.7581 24.2612 81.5974 24.2612Z" fill="#B7FF2A"/>
</g>
<path d="M92.2142 24.5508C91.5149 24.5508 90.9021 24.3976 90.3759 24.0912C89.8564 23.7848 89.4467 23.3619 89.147 22.8224C88.8539 22.2762 88.7074 21.6468 88.7074 20.9341C88.7074 20.2214 88.8539 19.5953 89.147 19.0558C89.4467 18.5096 89.8564 18.0833 90.3759 17.7769C90.9021 17.4705 91.5149 17.3174 92.2142 17.3174C92.9069 17.3174 93.5164 17.4705 94.0426 17.7769C94.5688 18.0833 94.9784 18.5096 95.2715 19.0558C95.5645 19.5953 95.7111 20.2214 95.7111 20.9341C95.7111 21.6468 95.5645 22.2762 95.2715 22.8224C94.9784 23.3619 94.5688 23.7848 94.0426 24.0912C93.5164 24.3976 92.9069 24.5508 92.2142 24.5508ZM92.2142 23.4018C92.8803 23.4018 93.4098 23.182 93.8028 22.7424C94.2024 22.3028 94.4022 21.7 94.4022 20.9341C94.4022 20.1681 94.2024 19.5653 93.8028 19.1257C93.4098 18.6861 92.8803 18.4663 92.2142 18.4663C91.5482 18.4663 91.0153 18.6861 90.6157 19.1257C90.216 19.5653 90.0162 20.1681 90.0162 20.9341C90.0162 21.7 90.216 22.3028 90.6157 22.7424C91.0153 23.182 91.5482 23.4018 92.2142 23.4018ZM97.04 24.4309V20.5444H96.3606V19.4754H97.04V18.8959C97.04 18.2965 97.1899 17.8702 97.4896 17.6171C97.796 17.364 98.209 17.2374 98.7285 17.2374H99.278V18.3264H98.9283C98.7085 18.3264 98.552 18.3697 98.4587 18.4563C98.3655 18.5429 98.3189 18.6894 98.3189 18.8959V19.4754H99.3879V20.5444H98.3189V24.4309H97.04ZM100.631 24.4309V20.5444H99.9511V19.4754H100.631V18.8959C100.631 18.2965 100.78 17.8702 101.08 17.6171C101.386 17.364 101.799 17.2374 102.319 17.2374H102.868V18.3264H102.519C102.299 18.3264 102.142 18.3697 102.049 18.4563C101.956 18.5429 101.909 18.6894 101.909 18.8959V19.4754H102.978V20.5444H101.909V24.4309H100.631ZM106.204 24.5508C105.704 24.5508 105.261 24.4442 104.875 24.2311C104.489 24.0179 104.186 23.7182 103.966 23.3319C103.746 22.9456 103.636 22.4993 103.636 21.9931C103.636 21.4802 103.743 21.024 103.956 20.6244C104.176 20.2247 104.475 19.915 104.855 19.6952C105.241 19.4687 105.694 19.3555 106.214 19.3555C106.7 19.3555 107.13 19.4621 107.503 19.6752C107.876 19.8884 108.165 20.1814 108.372 20.5544C108.585 20.9208 108.692 21.3304 108.692 21.7833C108.692 21.8566 108.688 21.9332 108.682 22.0131C108.682 22.093 108.678 22.1763 108.672 22.2629H104.905C104.932 22.6492 105.065 22.9522 105.305 23.172C105.551 23.3918 105.848 23.5017 106.194 23.5017C106.454 23.5017 106.67 23.4451 106.843 23.3319C107.023 23.212 107.156 23.0588 107.243 22.8723H108.542C108.449 23.1854 108.292 23.4718 108.072 23.7315C107.859 23.9846 107.593 24.1845 107.273 24.331C106.96 24.4775 106.604 24.5508 106.204 24.5508ZM106.214 20.3946C105.901 20.3946 105.624 20.4845 105.385 20.6643C105.145 20.8375 104.992 21.1039 104.925 21.4636H107.393C107.373 21.1372 107.253 20.8775 107.033 20.6843C106.813 20.4911 106.54 20.3946 106.214 20.3946ZM109.767 24.4309V19.4754H110.906L111.026 20.4046C111.206 20.0848 111.449 19.8317 111.755 19.6452C112.068 19.4521 112.435 19.3555 112.854 19.3555V20.7043H112.495C112.215 20.7043 111.965 20.7476 111.745 20.8342C111.526 20.9208 111.352 21.0706 111.226 21.2838C111.106 21.4969 111.046 21.7933 111.046 22.173V24.4309H109.767ZM116.139 24.4309V17.4372H117.418V23.4318H120.515V24.4309H116.139ZM122.301 18.7061C122.068 18.7061 121.875 18.6362 121.722 18.4963C121.575 18.3564 121.502 18.1799 121.502 17.9668C121.502 17.7536 121.575 17.5804 121.722 17.4472C121.875 17.3074 122.068 17.2374 122.301 17.2374C122.534 17.2374 122.724 17.3074 122.871 17.4472C123.024 17.5804 123.101 17.7536 123.101 17.9668C123.101 18.1799 123.024 18.3564 122.871 18.4963C122.724 18.6362 122.534 18.7061 122.301 18.7061ZM121.662 24.4309V19.4754H122.941V24.4309H121.662ZM125.614 24.4309L123.796 19.4754H125.135L126.394 23.222L127.653 19.4754H128.991L127.163 24.4309H125.614ZM131.962 24.5508C131.462 24.5508 131.019 24.4442 130.633 24.2311C130.247 24.0179 129.944 23.7182 129.724 23.3319C129.504 22.9456 129.394 22.4993 129.394 21.9931C129.394 21.4802 129.501 21.024 129.714 20.6244C129.934 20.2247 130.233 19.915 130.613 19.6952C130.999 19.4687 131.452 19.3555 131.972 19.3555C132.458 19.3555 132.888 19.4621 133.261 19.6752C133.634 19.8884 133.923 20.1814 134.13 20.5544C134.343 20.9208 134.45 21.3304 134.45 21.7833C134.45 21.8566 134.446 21.9332 134.44 22.0131C134.44 22.093 134.436 22.1763 134.43 22.2629H130.663C130.69 22.6492 130.823 22.9522 131.063 23.172C131.309 23.3918 131.605 23.5017 131.952 23.5017C132.212 23.5017 132.428 23.4451 132.601 23.3319C132.781 23.212 132.914 23.0588 133.001 22.8723H134.3C134.206 23.1854 134.05 23.4718 133.83 23.7315C133.617 23.9846 133.351 24.1845 133.031 24.331C132.718 24.4775 132.361 24.5508 131.962 24.5508ZM131.972 20.3946C131.659 20.3946 131.382 20.4845 131.143 20.6643C130.903 20.8375 130.75 21.1039 130.683 21.4636H133.151C133.131 21.1372 133.011 20.8775 132.791 20.6843C132.571 20.4911 132.298 20.3946 131.972 20.3946Z" fill="#B7FF2A"/>
</g>
<g filter="url(#filter2_d_63_792)">
<rect x="145.249" y="10.9399" width="19.9819" height="19.9819" rx="9.99095" fill="url(#paint0_linear_63_792)" shape-rendering="crispEdges"/>
<path d="M155.24 28.3893C152.366 28.3893 150.036 26.0596 150.036 23.1857C150.036 21.6914 150.666 20.3442 151.675 19.3951C152.606 18.5189 154.893 16.941 154.546 13.4723C158.709 16.2476 160.79 19.0228 156.627 23.1857C157.321 23.1857 158.362 23.1857 160.096 21.4717C160.284 22.0084 160.443 22.5852 160.443 23.1857C160.443 26.0596 158.114 28.3893 155.24 28.3893Z" fill="white"/>
</g>
<path d="M77.8341 51.452C76.7351 51.452 75.7749 51.2022 74.9534 50.7027C74.1319 50.2031 73.4936 49.5093 73.0385 48.6212C72.5833 47.7221 72.3558 46.6786 72.3558 45.4907C72.3558 44.2918 72.5889 43.2372 73.0551 42.3269C73.5325 41.4056 74.2041 40.6895 75.07 40.1789C75.947 39.6571 76.9849 39.3963 78.1838 39.3963C79.5493 39.3963 80.6816 39.7237 81.5807 40.3787C82.4799 41.0337 83.0627 41.9384 83.3292 43.0929H80.948C80.7704 42.549 80.4484 42.1271 79.9822 41.8274C79.5159 41.5166 78.9165 41.3612 78.1838 41.3612C77.0182 41.3612 76.119 41.733 75.4863 42.4768C74.8535 43.2095 74.5371 44.2197 74.5371 45.5074C74.5371 46.7951 74.848 47.7942 75.4696 48.5047C76.1024 49.2041 76.9572 49.5537 78.034 49.5537C79.0886 49.5537 79.8823 49.2707 80.4151 48.7045C80.9591 48.1272 81.2866 47.3724 81.3976 46.4399H78.4502V44.8413H83.5456V51.2522H81.5807L81.4142 49.7203C81.0368 50.2753 80.565 50.7027 79.9988 51.0024C79.4327 51.3022 78.7111 51.452 77.8341 51.452ZM88.4152 51.452C87.7047 51.452 87.1219 51.341 86.6668 51.119C86.2116 50.8859 85.873 50.5806 85.651 50.2031C85.429 49.8257 85.318 49.4094 85.318 48.9543C85.318 48.1883 85.6177 47.5666 86.2172 47.0893C86.8166 46.612 87.7158 46.3733 88.9147 46.3733H91.0128V46.1735C91.0128 45.6073 90.8519 45.191 90.5299 44.9246C90.208 44.6582 89.8084 44.525 89.331 44.525C88.8981 44.525 88.5206 44.6304 88.1987 44.8413C87.8768 45.0412 87.677 45.3409 87.5993 45.7405H85.5178C85.5733 45.1411 85.7731 44.6193 86.1173 44.1753C86.4725 43.7312 86.9276 43.3926 87.4827 43.1595C88.0377 42.9153 88.6594 42.7932 89.3477 42.7932C90.5244 42.7932 91.4513 43.0874 92.1285 43.6757C92.8056 44.2641 93.1442 45.0967 93.1442 46.1735V51.2522H91.3292L91.1294 49.9201C90.8852 50.3641 90.541 50.7304 90.097 51.0191C89.664 51.3077 89.1034 51.452 88.4152 51.452ZM88.8981 49.7869C89.5086 49.7869 89.9804 49.587 90.3135 49.1874C90.6576 48.7878 90.8741 48.2938 90.9629 47.7054H89.1478C88.5817 47.7054 88.1765 47.8109 87.9323 48.0218C87.6881 48.2216 87.5659 48.4714 87.5659 48.7711C87.5659 49.093 87.6881 49.3428 87.9323 49.5204C88.1765 49.698 88.4984 49.7869 88.8981 49.7869ZM95.1782 51.2522V42.993H97.0598L97.243 44.1087C97.5094 43.709 97.8591 43.3926 98.292 43.1595C98.7361 42.9153 99.2467 42.7932 99.824 42.7932C101.101 42.7932 102.005 43.2872 102.538 44.2752C102.838 43.82 103.238 43.4593 103.737 43.1928C104.248 42.9264 104.803 42.7932 105.402 42.7932C106.479 42.7932 107.306 43.1151 107.883 43.759C108.461 44.4028 108.749 45.3464 108.749 46.5898V51.2522H106.618V46.7896C106.618 46.0791 106.479 45.5352 106.202 45.1577C105.935 44.7803 105.519 44.5916 104.953 44.5916C104.375 44.5916 103.909 44.8025 103.554 45.2243C103.21 45.6462 103.038 46.2345 103.038 46.9894V51.2522H100.906V46.7896C100.906 46.0791 100.768 45.5352 100.49 45.1577C100.213 44.7803 99.7851 44.5916 99.2079 44.5916C98.6417 44.5916 98.181 44.8025 97.8258 45.2243C97.4817 45.6462 97.3096 46.2345 97.3096 46.9894V51.2522H95.1782ZM111.922 41.7108C111.533 41.7108 111.211 41.5943 110.956 41.3612C110.712 41.128 110.59 40.8339 110.59 40.4786C110.59 40.1234 110.712 39.8348 110.956 39.6127C111.211 39.3796 111.533 39.2631 111.922 39.2631C112.31 39.2631 112.627 39.3796 112.871 39.6127C113.126 39.8348 113.254 40.1234 113.254 40.4786C113.254 40.8339 113.126 41.128 112.871 41.3612C112.627 41.5943 112.31 41.7108 111.922 41.7108ZM110.856 51.2522V42.993H112.987V51.2522H110.856ZM115.212 51.2522V42.993H117.094L117.26 44.3917C117.516 43.9033 117.882 43.5148 118.359 43.2261C118.848 42.9375 119.419 42.7932 120.074 42.7932C121.096 42.7932 121.889 43.1151 122.456 43.759C123.022 44.4028 123.305 45.3464 123.305 46.5898V51.2522H121.173V46.7896C121.173 46.0791 121.029 45.5352 120.74 45.1577C120.452 44.7803 120.002 44.5916 119.392 44.5916C118.792 44.5916 118.298 44.8025 117.91 45.2243C117.532 45.6462 117.344 46.2345 117.344 46.9894V51.2522H115.212ZM128.84 48.7878C128.44 48.7878 128.068 48.7434 127.724 48.6546L127.108 49.2707C127.297 49.3706 127.552 49.4538 127.874 49.5204C128.196 49.587 128.718 49.6536 129.439 49.7203C130.538 49.8202 131.338 50.081 131.837 50.5029C132.337 50.9247 132.586 51.5075 132.586 52.2513C132.586 52.7397 132.453 53.2004 132.187 53.6334C131.92 54.0774 131.51 54.4327 130.955 54.6991C130.399 54.9766 129.689 55.1154 128.823 55.1154C127.646 55.1154 126.697 54.8933 125.976 54.4493C125.254 54.0164 124.893 53.3614 124.893 52.4844C124.893 51.7406 125.254 51.0968 125.976 50.5528C125.754 50.4529 125.559 50.3475 125.393 50.2365C125.237 50.1254 125.099 50.0089 124.977 49.8868V49.5038L126.425 47.9718C125.781 47.4057 125.459 46.6786 125.459 45.7905C125.459 45.2354 125.593 44.7303 125.859 44.2752C126.137 43.82 126.525 43.4593 127.025 43.1928C127.524 42.9264 128.129 42.7932 128.84 42.7932C129.306 42.7932 129.739 42.8598 130.139 42.993H133.269V44.2918L131.854 44.3917C132.076 44.8136 132.187 45.2798 132.187 45.7905C132.187 46.3455 132.054 46.8506 131.787 47.3058C131.521 47.7609 131.132 48.1217 130.621 48.3881C130.122 48.6546 129.528 48.7878 128.84 48.7878ZM128.84 47.1559C129.273 47.1559 129.628 47.0393 129.905 46.8062C130.194 46.5731 130.338 46.2401 130.338 45.8071C130.338 45.3742 130.194 45.0412 129.905 44.808C129.628 44.5749 129.273 44.4584 128.84 44.4584C128.385 44.4584 128.018 44.5749 127.741 44.808C127.463 45.0412 127.324 45.3742 127.324 45.8071C127.324 46.2401 127.463 46.5731 127.741 46.8062C128.018 47.0393 128.385 47.1559 128.84 47.1559ZM126.842 52.2679C126.842 52.6787 127.03 52.984 127.408 53.1838C127.796 53.3947 128.268 53.5002 128.823 53.5002C129.356 53.5002 129.789 53.3892 130.122 53.1671C130.455 52.9562 130.621 52.6676 130.621 52.3012C130.621 52.0015 130.51 51.7517 130.288 51.5519C130.078 51.3521 129.65 51.23 129.006 51.1856C128.551 51.1523 128.129 51.1023 127.741 51.0357C127.419 51.2133 127.186 51.4076 127.041 51.6185C126.908 51.8295 126.842 52.0459 126.842 52.2679ZM138.491 51.2522V49.6203L143.853 41.3778H138.541V39.5961H146.318V41.2279L140.922 49.4705H146.351V51.2522H138.491ZM152.186 51.452C151.386 51.452 150.665 51.2688 150.021 50.9025C149.388 50.5362 148.883 50.0311 148.506 49.3872C148.139 48.7323 147.956 47.9774 147.956 47.1226C147.956 46.2678 148.145 45.5185 148.522 44.8746C148.9 44.2197 149.405 43.709 150.038 43.3427C150.681 42.9764 151.403 42.7932 152.202 42.7932C152.991 42.7932 153.701 42.9764 154.334 43.3427C154.978 43.709 155.483 44.2197 155.849 44.8746C156.226 45.5185 156.415 46.2678 156.415 47.1226C156.415 47.9774 156.226 48.7323 155.849 49.3872C155.483 50.0311 154.978 50.5362 154.334 50.9025C153.69 51.2688 152.974 51.452 152.186 51.452ZM152.186 49.6037C152.741 49.6037 153.224 49.3983 153.634 48.9876C154.045 48.5657 154.25 47.9441 154.25 47.1226C154.25 46.3011 154.045 45.685 153.634 45.2743C153.224 44.8524 152.746 44.6415 152.202 44.6415C151.636 44.6415 151.148 44.8524 150.737 45.2743C150.337 45.685 150.138 46.3011 150.138 47.1226C150.138 47.9441 150.337 48.5657 150.737 48.9876C151.148 49.3983 151.631 49.6037 152.186 49.6037ZM158.321 51.2522V42.993H160.202L160.369 44.3917C160.624 43.9033 160.991 43.5148 161.468 43.2261C161.956 42.9375 162.528 42.7932 163.183 42.7932C164.204 42.7932 164.998 43.1151 165.564 43.759C166.13 44.4028 166.414 45.3464 166.414 46.5898V51.2522H164.282V46.7896C164.282 46.0791 164.138 45.5352 163.849 45.1577C163.561 44.7803 163.111 44.5916 162.5 44.5916C161.901 44.5916 161.407 44.8025 161.018 45.2243C160.641 45.6462 160.452 46.2345 160.452 46.9894V51.2522H158.321ZM172.465 51.452C171.632 51.452 170.894 51.2744 170.25 50.9192C169.606 50.5639 169.101 50.0644 168.735 49.4205C168.368 48.7767 168.185 48.0329 168.185 47.1892C168.185 46.3344 168.363 45.574 168.718 44.9079C169.084 44.2419 169.584 43.7257 170.217 43.3593C170.861 42.9819 171.615 42.7932 172.481 42.7932C173.292 42.7932 174.008 42.9708 174.629 43.326C175.251 43.6813 175.734 44.1697 176.078 44.7914C176.433 45.4019 176.611 46.0847 176.611 46.8395C176.611 46.9616 176.605 47.0893 176.594 47.2225C176.594 47.3557 176.589 47.4945 176.578 47.6388H170.3C170.344 48.2827 170.566 48.7878 170.966 49.1541C171.377 49.5204 171.871 49.7036 172.448 49.7036C172.881 49.7036 173.242 49.6092 173.53 49.4205C173.83 49.2207 174.052 48.9654 174.196 48.6546H176.361C176.206 49.1763 175.945 49.6536 175.579 50.0866C175.223 50.5084 174.779 50.8415 174.246 51.0857C173.725 51.3299 173.131 51.452 172.465 51.452ZM172.481 44.525C171.96 44.525 171.499 44.6748 171.099 44.9745C170.7 45.2632 170.444 45.7072 170.333 46.3067H174.446C174.413 45.7627 174.213 45.3298 173.847 45.0079C173.48 44.6859 173.025 44.525 172.481 44.525Z" fill="white"/>
<path d="M76.8911 65.8013L79.1148 64.1857C79.3589 64.0078 79.6605 63.9093 79.9771 63.92C80.7482 63.9389 81.4254 64.4444 81.6609 65.1824C81.7902 65.5876 81.908 65.861 82.0146 66.0026C82.6476 66.8442 83.6547 67.3885 84.7888 67.3885V68.7761C83.28 68.7761 81.9319 68.0881 81.0411 67.0087L80.5571 69.7534L81.9871 70.9533L83.5296 75.1911L82.2257 75.6657L80.8104 71.7773L78.4582 69.8035C78.0783 69.4964 77.8723 68.9976 77.9631 68.4824L78.316 66.4812L77.8464 66.8224L76.3707 68.8536L75.248 68.038L76.8793 65.7927L76.8911 65.8013ZM80.9728 63.5725C80.2065 63.5725 79.5852 62.9512 79.5852 62.1849C79.5852 61.4185 80.2065 60.7972 80.9728 60.7972C81.7392 60.7972 82.3605 61.4185 82.3605 62.1849C82.3605 62.9512 81.7392 63.5725 80.9728 63.5725ZM78.9111 72.7179L76.6812 75.3754L75.6182 74.4835L77.6825 72.0234L78.2004 70.5107L79.4431 71.5514L78.9111 72.7179Z" fill="white"/>
<path d="M95.718 72.7424C95.0963 72.7424 94.5324 72.6314 94.0262 72.4093C93.5288 72.1784 93.1292 71.8587 92.8273 71.4502C92.5342 71.0417 92.3877 70.5621 92.3877 70.0115C92.3877 69.452 92.5431 68.9503 92.8539 68.5062C93.1736 68.0622 93.5954 67.7602 94.1194 67.6004C93.6487 67.4139 93.2846 67.143 93.0271 66.7878C92.7695 66.4237 92.6408 66.024 92.6408 65.5889C92.6408 65.1359 92.7607 64.723 93.0004 64.35C93.2402 63.9681 93.5866 63.6662 94.0395 63.4441C94.5013 63.2132 95.0608 63.0978 95.718 63.0978C96.3752 63.0978 96.9302 63.2132 97.3831 63.4441C97.8449 63.6662 98.1957 63.9681 98.4355 64.35C98.6753 64.723 98.7952 65.1359 98.7952 65.5889C98.7952 66.0151 98.662 66.4148 98.3955 66.7878C98.138 67.1519 97.7739 67.4227 97.3032 67.6004C97.8272 67.7691 98.2446 68.0755 98.5554 68.5195C98.8751 68.9547 99.035 69.452 99.035 70.0115C99.035 70.5621 98.8884 71.0417 98.5954 71.4502C98.3023 71.8587 97.9027 72.1784 97.3965 72.4093C96.8991 72.6314 96.3396 72.7424 95.718 72.7424ZM95.718 67.1474C96.2331 67.1474 96.6371 67.0142 96.9302 66.7478C97.2322 66.4814 97.3831 66.1395 97.3831 65.7221C97.3831 65.2514 97.2366 64.8917 96.9435 64.643C96.6505 64.3944 96.2419 64.27 95.718 64.27C95.194 64.27 94.7855 64.3944 94.4924 64.643C94.1993 64.8917 94.0528 65.2514 94.0528 65.7221C94.0528 66.1395 94.1993 66.4814 94.4924 66.7478C94.7855 67.0142 95.194 67.1474 95.718 67.1474ZM95.718 71.5435C96.3574 71.5435 96.837 71.3925 97.1567 71.0905C97.4764 70.7797 97.6362 70.3845 97.6362 69.9049C97.6362 69.3721 97.4631 68.9636 97.1167 68.6794C96.7792 68.3863 96.313 68.2398 95.718 68.2398C95.123 68.2398 94.6523 68.3863 94.3059 68.6794C93.9596 68.9636 93.7864 69.3721 93.7864 69.9049C93.7864 70.3845 93.9462 70.7797 94.266 71.0905C94.5945 71.3925 95.0786 71.5435 95.718 71.5435ZM104.098 72.5825V65.9752H105.35L105.47 66.9077C105.683 66.5702 105.963 66.3038 106.309 66.1084C106.665 65.913 107.073 65.8153 107.535 65.8153C108.583 65.8153 109.311 66.2283 109.72 67.0542C109.959 66.6723 110.279 66.3704 110.679 66.1483C111.087 65.9263 111.527 65.8153 111.997 65.8153C112.823 65.8153 113.472 66.064 113.942 66.5613C114.413 67.0586 114.648 67.8002 114.648 68.786V72.5825H113.236V68.9325C113.236 67.6537 112.748 67.0142 111.771 67.0142C111.274 67.0142 110.865 67.2007 110.545 67.5737C110.235 67.9467 110.079 68.4796 110.079 69.1723V72.5825H108.667V68.9325C108.667 67.6537 108.174 67.0142 107.189 67.0142C106.7 67.0142 106.296 67.2007 105.976 67.5737C105.665 67.9467 105.51 68.4796 105.51 69.1723V72.5825H104.098ZM117.1 64.723C116.833 64.723 116.611 64.643 116.434 64.4832C116.265 64.3145 116.181 64.1058 116.181 63.8571C116.181 63.6084 116.265 63.4042 116.434 63.2443C116.611 63.0756 116.833 62.9912 117.1 62.9912C117.366 62.9912 117.584 63.0756 117.752 63.2443C117.93 63.4042 118.019 63.6084 118.019 63.8571C118.019 64.1058 117.93 64.3145 117.752 64.4832C117.584 64.643 117.366 64.723 117.1 64.723ZM116.394 72.5825V65.9752H117.806V72.5825H116.394ZM119.67 72.5825V65.9752H120.922L121.029 67.1341C121.233 66.7256 121.53 66.4059 121.921 66.175C122.321 65.9352 122.778 65.8153 123.293 65.8153C124.092 65.8153 124.719 66.064 125.172 66.5613C125.633 67.0586 125.864 67.8002 125.864 68.786V72.5825H124.465V68.9325C124.465 67.6537 123.942 67.0142 122.894 67.0142C122.37 67.0142 121.934 67.2007 121.588 67.5737C121.251 67.9467 121.082 68.4796 121.082 69.1723V72.5825H119.67Z" fill="white"/>
<defs>
<filter id="filter0_d_63_792" x="0.837164" y="13.5414" width="68.2715" height="77.1405" filterUnits="userSpaceOnUse" color-interpolation-filters="sRGB">
<feFlood flood-opacity="0" result="BackgroundImageFix"/>
<feColorMatrix in="SourceAlpha" type="matrix" values="0 0 0 0 0 0 0 0 0 0 0 0 0 0 0 0 0 0 127 0" result="hardAlpha"/>
<feOffset dy="3.33032"/>
<feGaussianBlur stdDeviation="1.66516"/>
<feComposite in2="hardAlpha" operator="out"/>
<feColorMatrix type="matrix" values="0 0 0 0 0 0 0 0 0 0 0 0 0 0 0 0 0 0 0.25 0"/>
<feBlend mode="normal" in2="BackgroundImageFix" result="effect1_dropShadow_63_792"/>
<feBlend mode="normal" in="SourceGraphic" in2="effect1_dropShadow_63_792" result="shape"/>
</filter>
<filter id="filter1_d_63_792" x="68.2761" y="9.43543" width="76.9726" height="26.3213" filterUnits="userSpaceOnUse" color-interpolation-filters="sRGB">
<feFlood flood-opacity="0" result="BackgroundImageFix"/>
<feColorMatrix in="SourceAlpha" type="matrix" values="0 0 0 0 0 0 0 0 0 0 0 0 0 0 0 0 0 0 127 0" result="hardAlpha"/>
<feOffset dy="1.66516"/>
<feGaussianBlur stdDeviation="1.66516"/>
<feComposite in2="hardAlpha" operator="out"/>
<feColorMatrix type="matrix" values="0 0 0 0 0 0 0 0 0 0 0 0 0 0 0 0 0 0 0.08 0"/>
<feBlend mode="normal" in2="BackgroundImageFix" result="effect1_dropShadow_63_792"/>
<feBlend mode="normal" in="SourceGraphic" in2="effect1_dropShadow_63_792" result="shape"/>
</filter>
<filter id="filter2_d_63_792" x="141.919" y="9.27478" width="26.6426" height="26.6426" filterUnits="userSpaceOnUse" color-interpolation-filters="sRGB">
<feFlood flood-opacity="0" result="BackgroundImageFix"/>
<feColorMatrix in="SourceAlpha" type="matrix" values="0 0 0 0 0 0 0 0 0 0 0 0 0 0 0 0 0 0 127 0" result="hardAlpha"/>
<feOffset dy="1.66516"/>
<feGaussianBlur stdDeviation="1.66516"/>
<feComposite in2="hardAlpha" operator="out"/>
<feColorMatrix type="matrix" values="0 0 0 0 0 0 0 0 0 0 0 0 0 0 0 0 0 0 0.08 0"/>
<feBlend mode="normal" in2="BackgroundImageFix" result="effect1_dropShadow_63_792"/>
<feBlend mode="normal" in="SourceGraphic" in2="effect1_dropShadow_63_792" result="shape"/>
</filter>
<linearGradient id="paint0_linear_63_792" x1="155.24" y1="10.9399" x2="155.24" y2="30.9218" gradientUnits="userSpaceOnUse">
<stop stop-color="#FF6B00"/>
<stop offset="1" stop-color="#FF6B00"/>
</linearGradient>
<clipPath id="clip0_63_792">
<rect width="6.66063" height="6.66063" fill="white" transform="translate(78.2671 17.6006)"/>
</clipPath>
</defs>
</svg>
